<svg width="9" height="10" viewBox="0 0 9 10" fill="none" xmlns="http://www.w3.org/2000/svg">
<g id="Group 17840">
<line id="Line 71" x1="0.849382" y1="5.19163" x2="8.19086" y2="5.19163" stroke="#555555" stroke-width="1.51517" stroke-linecap="round"/>
<path id="Union" d="M5.51758 1.51953C5.51758 0.967247 5.06986 0.519531 4.51758 0.519531C3.96529 0.519531 3.51758 0.967246 3.51758 1.51953V3.94531H1.08984C0.537559 3.94531 0.0898438 4.39303 0.0898438 4.94531C0.0898438 5.4976 0.537559 5.94531 1.08984 5.94531H3.51758V8.37618C3.51758 8.92846 3.96529 9.37618 4.51758 9.37618C5.06986 9.37618 5.51758 8.92846 5.51758 8.37618V5.94531H7.94649C8.49878 5.94531 8.94649 5.4976 8.94649 4.94531C8.94649 4.39303 8.49878 3.94531 7.94649 3.94531H5.51758V1.51953Z" fill="#555555"/>
</g>
</svg>
