<svg width="24" height="25" viewBox="0 0 24 25" fill="none" xmlns="http://www.w3.org/2000/svg">
<circle cx="12" cy="12.0918" r="12" fill="#BF2231"/>
<path d="M13.5195 8.61133C13.5195 8.05904 13.0718 7.61133 12.5195 7.61133C11.9672 7.61133 11.5195 8.05904 11.5195 8.61133V11.0371H9.0918C8.53951 11.0371 8.0918 11.4848 8.0918 12.0371C8.0918 12.5894 8.53951 13.0371 9.0918 13.0371H11.5195V15.468C11.5195 16.0203 11.9672 16.468 12.5195 16.468C13.0718 16.468 13.5195 16.0203 13.5195 15.468V13.0371H15.9484C16.5007 13.0371 16.9484 12.5894 16.9484 12.0371C16.9484 11.4848 16.5007 11.0371 15.9484 11.0371H13.5195V8.61133Z" fill="#FFEED6"/>
</svg>
