<svg width="23" height="19" viewBox="0 0 23 19" fill="none" xmlns="http://www.w3.org/2000/svg">
<g id="6KUemh">
<g id="Group">
<path id="Vector" d="M16.3626 1.91653C16.5326 1.62653 16.6626 1.33653 16.8526 1.09653C17.0226 0.866535 17.2526 0.676535 17.4626 0.486535C17.5826 0.376535 17.7426 0.296535 17.8726 0.456535C18.0126 0.626535 17.8926 0.766535 17.7526 0.866535C17.0026 1.43653 16.7226 2.23653 16.6426 3.13653C16.6426 3.15653 16.6526 3.18653 16.6626 3.20653C17.0526 3.12653 17.4326 3.02653 17.8226 2.97653C19.5126 2.74653 21.2426 3.72654 21.9526 5.27654C22.5926 6.68653 22.5326 8.10653 22.0526 9.54653C21.6026 10.8865 20.9626 12.1165 19.9026 13.0765C19.1726 13.7465 18.3226 14.1565 17.3126 14.2265C17.2826 14.2265 17.2526 14.2465 17.1926 14.2565C17.5826 14.9465 17.6526 15.6665 17.3826 16.3965C17.1926 16.9065 16.8626 17.3165 16.4026 17.6165C15.5826 18.1365 14.1926 18.2865 13.0826 17.0365C12.6126 17.6165 12.0026 17.9565 11.2526 18.0065C10.5026 18.0465 9.87262 17.7865 9.33262 17.2765C8.45262 18.0165 7.49262 18.2165 6.46262 17.6865C5.43262 17.1565 5.04262 16.2465 5.14262 15.1465C4.80262 15.0465 4.48262 14.9765 4.17262 14.8565C3.78262 14.7065 3.46262 14.4265 3.22262 14.0765C3.12262 13.9365 3.04262 13.9165 2.88262 13.9765C2.35262 14.1465 1.82262 14.2965 1.28262 14.4365C1.04262 14.4965 0.932617 14.4065 0.892617 14.1565C0.792617 13.3665 0.962613 12.6565 1.48261 12.0465C1.51261 12.0165 1.53262 11.9865 1.57262 11.9265C1.49262 11.8865 1.42262 11.8365 1.35262 11.8065C0.672616 11.4565 0.242617 10.8965 0.0326165 10.1665C-0.0473835 9.90653 0.0126187 9.80654 0.292619 9.74654C1.38262 9.47653 2.47262 9.42653 3.57262 9.62653C3.62262 9.63653 3.68262 9.63653 3.78262 9.64653C3.62262 9.44654 3.48262 9.26653 3.35262 9.09653C2.65262 8.17653 2.30262 7.11653 2.15262 5.97653C2.13262 5.82653 2.18261 5.68653 2.34261 5.68653C2.44261 5.68653 2.59262 5.78653 2.63262 5.88653C2.70262 6.05653 2.70262 6.25653 2.74262 6.44653C2.97262 7.59653 3.45261 8.61654 4.30261 9.44654C4.39261 9.53654 4.50261 9.61654 4.63262 9.72653C4.57262 8.28654 5.13261 7.26653 6.51261 6.90653C7.70261 6.59653 8.63261 7.10653 9.27261 8.10653C9.59261 7.91653 9.91262 7.74653 10.2126 7.54654C10.2726 7.50654 10.2926 7.35653 10.2926 7.25654C10.3526 6.26653 10.6226 5.34654 11.2326 4.54654C11.8926 3.69654 12.7426 3.16653 13.8126 3.00653C13.8626 3.00653 13.9026 2.98653 13.9326 2.97653C13.7526 2.57653 13.5226 2.20653 13.4126 1.80653C13.2826 1.31653 13.2526 0.796535 13.1926 0.286535C13.1726 0.0665347 13.3326 0.0165347 13.5226 0.00653466C14.6726 -0.0734653 15.7426 0.586535 16.2126 1.68653C16.2526 1.76653 16.2826 1.84653 16.3226 1.93653L16.3626 1.91653ZM13.5326 10.3765C13.6126 10.3965 13.6726 10.4165 13.7326 10.4365C14.4626 10.5965 15.0326 10.9865 15.4126 11.6565C15.6426 12.0665 15.7426 12.5065 15.7226 12.9665C15.7226 13.1265 15.7826 13.1765 15.9126 13.2365C16.1626 13.3565 16.4026 13.5065 16.6526 13.6365C16.7526 13.6865 16.8626 13.7465 16.9626 13.7465C17.8926 13.7665 18.7226 13.4665 19.4126 12.8565C21.0226 11.4265 21.7926 9.57653 21.9226 7.45653C21.9726 6.62653 21.7426 5.83653 21.3026 5.13653C20.3326 3.60653 18.5026 3.03653 16.8326 3.74653C16.5126 3.88653 16.2526 3.88653 15.9226 3.74653C15.0526 3.37653 14.1426 3.32653 13.2526 3.66653C11.8726 4.19653 11.1426 5.26653 10.8826 6.68653C10.8426 6.90653 10.8326 7.13653 10.8126 7.36653C12.7026 7.29653 13.8226 8.84653 13.5226 10.3865L13.5326 10.3765ZM9.16261 10.3765C8.09261 10.3365 7.18262 11.1965 7.14262 12.2765C7.10262 13.3465 7.97262 14.2765 9.03262 14.3065C10.1426 14.3365 11.0526 13.4865 11.0826 12.3765C11.1126 11.2965 10.2626 10.4065 9.16261 10.3665V10.3765ZM14.8426 17.5065C16.0126 17.5265 16.7926 16.8965 17.0226 15.9165C17.2226 15.0765 16.7326 14.1265 15.9026 13.7365C15.0826 13.3565 14.0826 13.6165 13.5226 14.3665C13.4226 14.4965 13.4126 14.5965 13.4626 14.7565C13.6526 15.2865 13.6526 15.8165 13.4626 16.3465C13.4026 16.5165 13.4326 16.6265 13.5326 16.7565C13.9226 17.2365 14.4126 17.4965 14.8326 17.5165L14.8426 17.5065ZM13.0926 15.7165C13.0926 14.5865 12.4026 13.7665 11.4526 13.6165C11.3626 13.6065 11.2026 13.6665 11.1526 13.7365C10.7326 14.3065 10.1826 14.6565 9.48261 14.7765C9.34261 14.7965 9.27261 14.8565 9.23261 14.9965C9.02261 15.7965 9.23261 16.4865 9.84261 17.0265C10.4826 17.5865 11.2326 17.6665 12.0026 17.3065C12.7326 16.9565 13.0526 16.3365 13.0926 15.7165ZM3.29262 12.3665C3.24262 13.6265 4.11262 14.5565 5.14262 14.5765C5.23262 14.5765 5.36262 14.4965 5.40262 14.4165C5.66262 13.8765 6.07262 13.4965 6.61262 13.2565C6.75262 13.1965 6.77261 13.1265 6.73261 12.9865C6.60261 12.5565 6.59261 12.1165 6.73261 11.6865C6.81261 11.4665 6.74262 11.3265 6.58262 11.1865C5.94262 10.6165 5.21262 10.4865 4.43262 10.8265C3.67262 11.1565 3.31262 11.7765 3.28262 12.3665H3.29262ZM7.11262 10.8765C7.46262 10.4265 7.92261 10.0865 8.52261 9.93653C8.57261 9.92653 8.63262 9.82654 8.64262 9.76653C8.73262 9.44654 8.79262 9.10653 8.89262 8.78654C8.94262 8.62654 8.94261 8.50654 8.87261 8.36654C8.41261 7.52654 7.44262 7.10653 6.57262 7.38653C5.59262 7.70653 5.04262 8.56653 5.18262 9.57654C5.24262 10.0565 5.29262 10.1165 5.75262 10.2065C5.84262 10.2265 5.93261 10.2465 6.01261 10.2865C6.37261 10.4765 6.72262 10.6665 7.10262 10.8765H7.11262ZM8.76261 14.7965C8.64261 14.7665 8.53262 14.7265 8.42262 14.6965C7.90262 14.5565 7.46262 14.2765 7.15262 13.8365C7.02262 13.6465 6.91261 13.6365 6.73261 13.7365C6.01261 14.1365 5.64261 14.7465 5.66261 15.5565C5.68261 16.3565 6.08261 16.9565 6.80261 17.2865C7.53261 17.6165 8.24261 17.5065 8.88262 17.0265C9.02262 16.9165 9.02261 16.8265 8.94261 16.6765C8.67261 16.1765 8.59262 15.6465 8.70261 15.0865C8.72262 14.9965 8.73262 14.9065 8.75262 14.8065L8.76261 14.7965ZM11.3426 11.2865C11.7926 10.8265 12.2726 10.5165 12.8726 10.4065C12.9526 10.3965 13.0426 10.2565 13.0526 10.1665C13.1626 9.40653 12.9326 8.76653 12.3226 8.29653C11.6726 7.79653 10.9626 7.74653 10.2226 8.08653C9.61262 8.36653 9.08262 9.17653 9.17262 9.84653C10.1226 9.93653 10.8826 10.3665 11.3426 11.2765V11.2865ZM13.1626 14.0365C13.1626 14.0365 13.1826 13.9765 13.2126 13.9465C13.7026 13.4065 14.3026 13.0965 15.0426 13.0765C15.2226 13.0765 15.2426 12.9865 15.2326 12.8365C15.2326 12.0465 14.7326 11.3265 13.9926 11.0165C13.2926 10.7365 12.4026 10.9065 11.8726 11.4565C11.7426 11.5965 11.5926 11.7765 11.5726 11.9465C11.5226 12.3165 11.5626 12.6965 11.5626 13.0765C11.8026 13.1765 12.1026 13.2665 12.3726 13.4265C12.6426 13.5865 12.8726 13.8065 13.1626 14.0365ZM1.41261 13.9365C1.87261 13.7865 2.29261 13.6565 2.70261 13.5265C2.86261 13.4765 2.89262 13.3965 2.85262 13.2365C2.57262 12.0765 3.08262 10.9765 4.14262 10.4165C4.18262 10.3965 4.22261 10.3665 4.27261 10.3365C3.49261 9.94653 1.29262 9.88654 0.58262 10.2465C0.73262 10.4665 0.862614 10.6965 1.02261 10.9065C1.29261 11.2565 1.68261 11.4265 2.09261 11.5465C2.41261 11.6465 2.45261 11.8365 2.20261 12.0665C2.10261 12.1565 2.00261 12.2465 1.91261 12.3465C1.52261 12.7865 1.34262 13.2865 1.40262 13.9465L1.41261 13.9365ZM16.0926 3.19653C16.0626 1.68653 15.1126 0.426535 13.7326 0.516535C13.7826 1.40653 13.9826 2.23653 14.6726 2.86653C14.7226 2.90653 14.7826 2.94653 14.8426 2.95653C15.2526 3.03653 15.6626 3.11653 16.0926 3.20653V3.19653Z" fill="black"/>
<path id="Vector_2" d="M20.9225 7.64641C20.9225 8.40641 20.7325 9.03641 20.5125 9.66641C20.4525 9.82641 20.3425 9.89641 20.1825 9.83641C20.0325 9.77641 20.0025 9.65641 20.0425 9.50641C20.1425 9.17641 20.2525 8.85641 20.3225 8.52641C20.5225 7.59641 20.4225 6.70641 19.8625 5.91641C19.5125 5.41641 19.0325 5.08641 18.4425 4.91641C18.4025 4.90641 18.3625 4.89641 18.3225 4.88641C18.1825 4.83641 18.0725 4.73641 18.1425 4.59641C18.1925 4.50641 18.3625 4.40641 18.4425 4.42641C18.7325 4.49641 19.0225 4.58641 19.2725 4.73641C20.4125 5.40641 20.8925 6.44641 20.9225 7.64641Z" fill="black"/>
<path id="Vector_3" d="M19.1126 11.7867C18.9126 11.7867 18.7926 11.5767 18.9026 11.4267C19.0726 11.1867 19.2626 10.9567 19.4726 10.7367C19.5226 10.6867 19.6726 10.6867 19.7326 10.7367C19.7926 10.7767 19.8626 10.9367 19.8326 10.9767C19.6426 11.2467 19.4226 11.5067 19.2026 11.7667C19.1826 11.7967 19.1226 11.7867 19.1026 11.7967L19.1126 11.7867Z" fill="black"/>
</g>
</g>
</svg>
