<svg width="17" height="17" viewBox="0 0 17 17" fill="none" xmlns="http://www.w3.org/2000/svg">
<g id="9wc55a">
<g id="Group">
<path id="Vector" d="M9.33 16.0463C9.15 16.1663 8.97 16.2763 8.79 16.3963C8.66 16.4863 8.53 16.4863 8.4 16.3963C8.16 16.2363 7.93 16.0863 7.69 15.9263C7.66 15.9063 7.64 15.9063 7.6 15.9263C7.36 16.0863 7.13 16.2363 6.89 16.3963C6.76 16.4763 6.64 16.4763 6.51 16.3963C6.27 16.2363 6.03 16.0863 5.79 15.9263C5.76 15.9063 5.74 15.9063 5.71 15.9263C5.48 16.0763 5.24 16.2363 5.01 16.3863C4.87 16.4763 4.74 16.4763 4.6 16.3863C4.37 16.2263 4.13 16.0763 3.9 15.9263C3.87 15.9063 3.85 15.9063 3.82 15.9263C3.58 16.0863 3.34 16.2363 3.11 16.3963C2.98 16.4863 2.85 16.4863 2.72 16.3963C2.48 16.2363 2.25 16.0863 2.01 15.9263C1.98 15.9063 1.95 15.9063 1.92 15.9263C1.68 16.0863 1.44 16.2363 1.2 16.3963C1.11 16.4563 1.01 16.4763 0.900002 16.4263C0.740002 16.3663 0.669999 16.1963 0.709999 16.0363C0.759999 15.8463 0.81 15.6663 0.84 15.4763C0.91 14.9963 0.840002 14.5163 0.670002 14.0663C0.450002 13.4963 0.29 12.9163 0.18 12.3163C0.0600003 11.6663 0.01 11.0163 0 10.3563C0 9.57628 0.0499994 8.79628 0.139999 8.02628C0.239999 7.16628 0.379999 6.31628 0.529999 5.46628C0.559999 5.28628 0.720002 5.16628 0.900002 5.19628C1.08 5.22628 1.19 5.39628 1.16 5.57628C1.12 5.82628 1.08 6.07628 1.03 6.31628C1.03 6.33628 1.03 6.35628 1.03 6.37628C4.21 5.40628 7.38 4.43628 10.56 3.47628C10.54 3.35628 10.52 3.23628 10.49 3.12628C10.44 2.93628 10.39 2.75628 10.34 2.56628C10.34 2.53628 10.32 2.51628 10.28 2.52628C10.25 2.52628 10.23 2.52628 10.2 2.52628C7.37 2.52628 4.54 2.52628 1.71 2.52628C1.63 2.52628 1.64 2.52628 1.63 2.59628C1.56 3.06628 1.49 3.53628 1.42 3.99628C1.41 4.09628 1.39 4.19628 1.37 4.29628C1.34 4.48628 1.18 4.59628 1 4.57628C0.83 4.54628 0.710002 4.38628 0.740002 4.20628C0.810002 3.74628 0.880001 3.29628 0.950001 2.83628C0.990001 2.56628 1.03 2.28628 0.990002 2.01628C0.970002 1.86628 0.930001 1.71628 0.900002 1.56628C0.830002 1.21628 0.770001 0.866282 0.700001 0.516282C0.690001 0.456282 0.67 0.386279 0.68 0.326279C0.68 0.196279 0.760001 0.0962827 0.880001 0.0562827C1.01 0.00628267 1.12 0.0362824 1.22 0.126282C1.45 0.346282 1.68 0.57628 1.91 0.796281C1.91 0.796281 1.93 0.816279 1.94 0.826279C2.01 0.756279 2.08 0.696282 2.14 0.626282C2.31 0.456282 2.48 0.296282 2.65 0.126282C2.79 -0.0137176 2.98 -0.0137176 3.12 0.126282C3.34 0.346282 3.56 0.556284 3.78 0.776284C3.79 0.786284 3.81 0.806277 3.83 0.816277C3.91 0.746277 3.98 0.666284 4.05 0.596284C4.21 0.436284 4.37 0.27628 4.54 0.11628C4.68 -0.0237198 4.87 -0.0237198 5.01 0.11628C5.23 0.33628 5.46 0.556284 5.68 0.776284C5.69 0.786284 5.7 0.796283 5.72 0.806283C5.82 0.706283 5.92 0.60628 6.03 0.50628C6.16 0.37628 6.29 0.24628 6.42 0.11628C6.58 -0.0337198 6.75 -0.0437198 6.91 0.11628C7.13 0.32628 7.34 0.536277 7.56 0.746277C7.58 0.766277 7.59 0.786283 7.61 0.806283C7.63 0.786283 7.65 0.776282 7.66 0.766282C7.88 0.546282 8.11 0.326278 8.33 0.106278C8.47 -0.0237219 8.66 -0.0337219 8.79 0.106278C9.01 0.326278 9.24 0.546282 9.46 0.766282C9.47 0.776282 9.49 0.796283 9.5 0.806283C9.55 0.756283 9.59 0.716278 9.64 0.676278C9.83 0.486278 10.03 0.296278 10.22 0.106278C10.32 0.00627809 10.47 -0.0237195 10.6 0.0462805C10.72 0.106281 10.78 0.246277 10.76 0.386277C10.69 0.976277 10.68 1.55628 10.87 2.12628C11.06 2.67628 11.16 3.25628 11.26 3.82628C11.37 4.52628 11.47 5.22628 11.54 5.92628C11.6 6.54628 11.65 7.17628 11.66 7.80628C11.66 7.97628 11.66 8.14628 11.66 8.30628C11.76 8.33628 11.85 8.35628 11.94 8.38628C12.15 8.45628 12.33 8.56628 12.49 8.71628C12.52 8.74628 12.54 8.74628 12.57 8.73628C13.47 8.34628 14.48 8.85628 14.7 9.80628C14.71 9.86628 14.74 9.87628 14.79 9.86628C15.45 9.86628 15.91 10.1663 16.22 10.7363C16.38 11.0463 16.43 11.3763 16.4 11.7163C16.4 11.7663 16.4 11.8163 16.4 11.8663C16.4 12.3663 16.4 12.8663 16.4 13.3563C16.38 14.0063 16.23 14.6263 15.92 15.1963C15.67 15.6563 15.33 16.0463 14.92 16.3763C14.86 16.4263 14.79 16.4463 14.71 16.4463C13.11 16.4463 11.5 16.4463 9.9 16.4463C9.82 16.4463 9.75 16.4263 9.69 16.3763C9.56 16.2663 9.43 16.1463 9.29 16.0263L9.33 16.0463ZM0.970001 12.8963C0.970001 12.8963 1.01 12.8963 1.02 12.8863C1.24 12.8163 1.46 12.7563 1.68 12.6863C2.76 12.3563 3.85 12.0263 4.93 11.6963C6.03 11.3663 7.12 11.0263 8.22 10.6963C8.25 10.6963 8.26 10.6763 8.26 10.6363C8.26 10.4463 8.29 10.2463 8.36 10.0663C8.53 9.59628 8.83 9.25628 9.31 9.07628C9.56 8.97628 9.83 8.96628 10.09 9.00628C10.15 9.00628 10.18 9.00628 10.21 8.95628C10.41 8.67628 10.68 8.49628 11.01 8.39628C11.05 8.38628 11.06 8.36628 11.06 8.32628C11.06 8.13628 11.06 7.93628 11.05 7.74628C11.02 7.21628 11 6.68628 10.95 6.15628C10.9 5.60628 10.82 5.06628 10.75 4.52628C10.73 4.38628 10.71 4.25628 10.69 4.11628C10.67 4.11628 10.65 4.11628 10.64 4.12628C9.93 4.33628 9.23 4.55628 8.52 4.76628C7.19 5.16628 5.87 5.57628 4.54 5.97628C3.35 6.33628 2.17 6.69628 0.98 7.05628C0.95 7.05628 0.93 7.07628 0.93 7.11628C0.89 7.39628 0.85 7.66628 0.82 7.94628C0.72 8.76628 0.650002 9.59628 0.670002 10.4263C0.680002 11.1163 0.749999 11.7963 0.889999 12.4663C0.919999 12.6063 0.950002 12.7363 0.990002 12.8763L0.970001 12.8963ZM8.89 13.4663C8.89 13.4663 8.89 13.5063 8.89 13.5163C8.92 13.6963 8.94 13.8863 8.98 14.0663C9.13 14.7563 9.47 15.3363 10.01 15.7963C10.03 15.8163 10.07 15.8263 10.1 15.8263C11.6 15.8263 13.11 15.8263 14.61 15.8263C14.64 15.8263 14.67 15.8163 14.69 15.7963C14.95 15.5863 15.16 15.3263 15.33 15.0463C15.61 14.5763 15.76 14.0663 15.8 13.5163C15.8 13.4963 15.8 13.4763 15.8 13.4563H8.89V13.4663ZM8.39 11.3063C5.98 12.0363 3.57 12.7763 1.16 13.5063C1.16 13.5263 1.16 13.5363 1.17 13.5463C1.22 13.6763 1.26 13.7963 1.31 13.9263C1.32 13.9663 1.34 13.9663 1.38 13.9663C3.67 13.9663 5.96 13.9663 8.25 13.9663C8.27 13.9663 8.29 13.9663 8.31 13.9663C8.31 13.9463 8.31 13.9363 8.31 13.9163C8.29 13.7863 8.27 13.6463 8.27 13.5163C8.27 12.9663 8.26 12.4163 8.26 11.8763C8.26 11.7463 8.33 11.6563 8.44 11.5963C8.47 11.5763 8.51 11.5763 8.54 11.5663C8.49 11.4763 8.45 11.3963 8.4 11.3063H8.39ZM1.52 15.4463C1.6 15.3963 1.68 15.3463 1.76 15.2863C1.91 15.1863 2.05 15.1863 2.19 15.2863C2.42 15.4363 2.65 15.5863 2.88 15.7363C2.91 15.7563 2.93 15.7563 2.96 15.7363C3.19 15.5863 3.43 15.4263 3.66 15.2763C3.8 15.1863 3.93 15.1863 4.07 15.2763C4.3 15.4263 4.53 15.5763 4.76 15.7363C4.79 15.7563 4.82 15.7563 4.85 15.7363C5.09 15.5763 5.33 15.4263 5.57 15.2663C5.69 15.1863 5.82 15.1863 5.94 15.2663C6.18 15.4163 6.42 15.5763 6.65 15.7363C6.69 15.7663 6.71 15.7563 6.75 15.7363C6.98 15.5863 7.21 15.4363 7.44 15.2863C7.58 15.1963 7.71 15.1963 7.85 15.2863C8.08 15.4463 8.32 15.5963 8.55 15.7463C8.57 15.7463 8.59 15.7663 8.6 15.7563C8.71 15.6863 8.82 15.6163 8.92 15.5463C8.92 15.5263 8.9 15.5163 8.9 15.5063C8.72 15.2463 8.58 14.9563 8.48 14.6663C8.46 14.6163 8.44 14.6063 8.4 14.6063C6.11 14.6063 3.82 14.6063 1.54 14.6063C1.52 14.6063 1.5 14.6063 1.5 14.6063C1.5 14.8863 1.51 15.1663 1.52 15.4463ZM8.59 0.796281C8.59 0.796281 8.56 0.826281 8.55 0.836281C8.33 1.05628 8.11 1.26628 7.89 1.48628C7.74 1.63628 7.55 1.63628 7.4 1.48628C7.26 1.34628 7.11 1.19628 6.96 1.05628C6.87 0.966283 6.78 0.886281 6.7 0.796281C6.69 0.80628 6.68 0.816279 6.67 0.826279C6.44 1.04628 6.22 1.26628 5.99 1.49628C5.84 1.63628 5.66 1.63628 5.51 1.49628C5.34 1.32628 5.16 1.15628 4.99 0.986283C4.93 0.926283 4.87 0.866283 4.8 0.806283C4.79 0.816283 4.78 0.826281 4.77 0.836281C4.54 1.06628 4.31 1.28628 4.08 1.51628C3.95 1.64628 3.76 1.64628 3.62 1.51628C3.46 1.36628 3.31 1.21628 3.15 1.05628C3.07 0.976283 2.98 0.896277 2.9 0.816277C2.89 0.816277 2.88 0.826281 2.88 0.836281C2.69 1.01628 2.51 1.19628 2.32 1.38628C2.27 1.42628 2.23 1.47628 2.18 1.51628C2.05 1.64628 1.86 1.64628 1.72 1.51628C1.65 1.44628 1.58 1.37628 1.51 1.30628C1.51 1.33628 1.51 1.35628 1.51 1.38628C1.54 1.53628 1.58 1.69628 1.61 1.84628C1.61 1.89628 1.63 1.90628 1.68 1.90628C4.48 1.90628 7.29 1.90628 10.09 1.90628H10.14C10.12 1.66628 10.09 1.42628 10.07 1.18628C10.07 1.18628 10.05 1.20628 10.04 1.21628C9.94 1.31628 9.84 1.40628 9.75 1.50628C9.6 1.65628 9.42 1.65628 9.27 1.50628C9.17 1.41628 9.08 1.31628 8.98 1.22628C8.84 1.08628 8.7 0.956277 8.56 0.816277L8.59 0.796281ZM15.81 12.2063H8.88V12.8263H15.81V12.2063ZM11 11.5663C11 11.5663 11 11.5263 10.99 11.5063C10.96 11.3863 10.92 11.2563 10.9 11.1363C10.85 10.8663 10.8 10.5863 10.75 10.3163C10.73 10.2363 10.7 10.1463 10.67 10.0663C10.6 9.88628 10.47 9.76628 10.3 9.70628C10.06 9.61628 9.81 9.57628 9.56 9.65628C9.26 9.75628 9.07 9.97628 8.97 10.2663C8.8 10.7563 8.95 11.2963 9.48 11.5363C9.51 11.5463 9.55 11.5563 9.58 11.5563C10.03 11.5563 10.49 11.5563 10.94 11.5563C10.96 11.5563 10.97 11.5563 11 11.5563V11.5663ZM14.07 11.5663C14.07 11.5663 14.09 11.5663 14.1 11.5663C14.66 11.5663 15.22 11.5663 15.77 11.5663C15.81 11.5663 15.82 11.5563 15.81 11.5163C15.81 11.3663 15.77 11.2263 15.71 11.0863C15.59 10.8163 15.4 10.6163 15.1 10.5463C14.78 10.4663 14.48 10.5263 14.22 10.7263C14.07 10.8363 13.96 10.9863 14.02 11.2063C14.05 11.3263 14.05 11.4463 14.06 11.5663H14.07ZM13.42 11.5663C13.44 11.4163 13.4 11.2163 13.32 11.0763C13.17 10.8063 12.93 10.6563 12.64 10.5663C12.59 10.5463 12.54 10.5463 12.48 10.5363C12.33 10.5363 12.19 10.5863 12.07 10.6663C11.89 10.7963 11.72 10.9363 11.55 11.0763C11.54 11.0863 11.53 11.1163 11.54 11.1363C11.57 11.2563 11.61 11.3763 11.64 11.4963C11.65 11.5363 11.67 11.5563 11.72 11.5563C12.26 11.5563 12.81 11.5563 13.35 11.5563H13.41L13.42 11.5663ZM11.41 10.3863C11.52 10.3063 11.62 10.2263 11.73 10.1563C11.91 10.0363 12.11 9.94628 12.34 9.91628C12.39 9.91628 12.4 9.88628 12.4 9.84628C12.37 9.20628 11.75 8.79628 11.15 9.01628C11.02 9.06628 10.91 9.14628 10.81 9.24628C11 9.37628 11.14 9.54628 11.24 9.74628C11.34 9.94628 11.39 10.1563 11.43 10.3763L11.41 10.3863ZM13.63 10.4263C13.63 10.4263 13.64 10.4063 13.65 10.3963C13.77 10.2463 13.92 10.1363 14.1 10.0563C14.14 10.0363 14.15 10.0263 14.14 9.98628C14.05 9.56628 13.67 9.25628 13.24 9.25628C13.13 9.25628 13.03 9.27628 12.93 9.30628V9.31628C13.01 9.53628 13.05 9.76628 13.03 9.99628C13.03 10.0063 13.04 10.0263 13.05 10.0363C13.26 10.1263 13.46 10.2563 13.63 10.4263Z" fill="black"/>
<path id="Vector_2" d="M5.6701 7.79649C5.6901 7.68649 5.71009 7.57649 5.73009 7.46649C5.77009 7.26649 5.83009 7.07649 5.93009 6.89649C6.08009 6.61649 6.30009 6.40649 6.59009 6.27649C7.00009 6.09649 7.42009 6.01649 7.86009 6.10649C8.35009 6.20649 8.72009 6.47649 8.98009 6.89649C9.35009 7.49649 9.40009 8.11649 9.10009 8.76649C8.99009 9.01649 8.81009 9.20649 8.60009 9.37649C8.58009 9.39649 8.56009 9.41649 8.53009 9.43649C8.48009 9.47649 8.44009 9.51649 8.38009 9.54649C7.26009 9.97649 6.1401 10.4065 5.0101 10.8365C4.9601 10.8565 4.90009 10.8765 4.85009 10.8965C4.78009 10.9265 4.72009 10.9365 4.64009 10.9165C4.60009 10.9165 4.57009 10.9165 4.53009 10.9165C3.89009 10.9365 3.36009 10.6865 2.97009 10.1865C2.60009 9.72649 2.47009 9.19649 2.60009 8.61649C2.70009 8.14649 2.98009 7.80649 3.38009 7.54649C3.62009 7.39649 3.8701 7.28649 4.1501 7.23649C4.4901 7.18649 4.80009 7.24649 5.10009 7.41649C5.27009 7.51649 5.43009 7.63649 5.60009 7.74649C5.62009 7.75649 5.64009 7.77649 5.66009 7.79649H5.6701ZM7.06009 9.38649C7.06009 9.38649 7.00009 9.36649 6.97009 9.35649C6.78009 9.27649 6.59009 9.19649 6.41009 9.10649C6.05009 8.91649 5.73009 8.66649 5.41009 8.40649C5.22009 8.25649 5.03009 8.10649 4.82009 7.98649C4.60009 7.86649 4.37009 7.81649 4.12009 7.90649C3.91009 7.97649 3.72009 8.07649 3.56009 8.22649C3.34009 8.41649 3.22009 8.66649 3.20009 8.95649C3.16009 9.73649 3.94009 10.5765 4.93009 10.1965C5.62009 9.93649 6.3001 9.67649 6.9901 9.41649C7.0101 9.41649 7.03009 9.39649 7.05009 9.38649H7.06009ZM8.6701 7.98649C8.6701 7.75649 8.62009 7.54649 8.53009 7.36649C8.37009 7.05649 8.12009 6.83649 7.77009 6.75649C7.52009 6.69649 7.27009 6.72649 7.02009 6.80649C6.68009 6.90649 6.47009 7.11649 6.39009 7.46649C6.33009 7.71649 6.30009 7.97649 6.25009 8.23649C6.25009 8.25649 6.26009 8.27649 6.28009 8.28649C6.83009 8.68649 7.43009 8.91649 8.11009 8.94649C8.14009 8.94649 8.17009 8.94649 8.20009 8.91649C8.52009 8.68649 8.6701 8.36649 8.6701 7.99649V7.98649Z" fill="black"/>
</g>
</g>
</svg>
