<svg width="23" height="21" viewBox="0 0 23 21" fill="none" xmlns="http://www.w3.org/2000/svg">
<g id="E3oht9">
<g id="Group">
<path id="Vector" d="M7.27012 9.89014C8.65012 9.89014 9.96012 10.4701 11.2201 11.5701C11.5701 11.8701 11.9301 12.0401 12.3201 12.0401C12.4401 12.0401 12.5601 12.0301 12.6801 12.0001C12.7501 11.9801 12.8301 11.9801 12.9101 11.9801C13.0101 11.9801 13.1101 11.9901 13.2101 12.0101C13.3701 12.0301 13.4301 12.1801 13.3401 12.3601C13.2001 12.6201 13.0501 12.8701 12.8801 13.0901C12.8701 13.1001 12.8501 13.1101 12.8201 13.1101C12.7601 13.1101 12.6801 13.0801 12.6401 13.0401C11.9101 12.5101 11.1501 12.0801 10.3401 11.8301C9.93012 11.7001 9.51012 11.6201 9.10012 11.6201C8.77012 11.6201 8.44012 11.6701 8.12012 11.8001C7.22012 12.1501 6.53012 12.8701 6.24012 14.1101C6.03012 15.0201 6.22012 15.8501 6.57012 16.6401C6.62012 16.7401 6.67012 16.8401 6.73012 16.9801C6.63012 16.9801 6.57012 17.0001 6.50012 17.0001C5.80012 17.0001 5.10012 17.0101 4.40012 17.0101C3.89012 17.0101 3.39012 17.0101 2.88012 16.9801C2.32012 16.9501 1.87012 16.4901 1.41012 15.9801C1.61012 15.8501 1.76012 15.7601 1.91012 15.6601C2.32012 15.3801 2.35012 14.9401 1.97012 14.5801C1.86012 14.4801 1.75012 14.3901 1.64012 14.2901C1.42012 14.0901 1.38012 13.9401 1.52012 13.6401C1.64012 13.3601 1.78012 13.0901 1.95012 12.8701C2.85012 11.6401 3.95012 10.8601 5.16012 10.3501C5.89012 10.0501 6.60012 9.90014 7.30012 9.90014M7.27012 9.39014C6.50012 9.39014 5.72012 9.56014 4.94012 9.88014C3.53012 10.4701 2.41012 11.3501 1.52012 12.5601C1.35012 12.7901 1.19012 13.0801 1.04012 13.4301C0.830123 13.9201 0.900121 14.3001 1.28012 14.6501C1.34012 14.7001 1.40012 14.7501 1.46012 14.8001C1.51012 14.8401 1.56012 14.8801 1.61012 14.9301C1.70012 15.0201 1.73012 15.0901 1.72012 15.1101C1.72012 15.1301 1.68012 15.1801 1.62012 15.2301C1.53012 15.2901 1.43012 15.3501 1.32012 15.4201L1.13012 15.5401L0.620117 15.8601L1.02012 16.3001C1.48012 16.8001 2.04012 17.4301 2.84012 17.4701C3.29012 17.4901 3.78012 17.5001 4.38012 17.5001C4.74012 17.5001 5.10012 17.5001 5.46012 17.5001C5.80012 17.5001 6.14012 17.5001 6.48012 17.5001C6.54012 17.5001 6.60012 17.5001 6.67012 17.4901H6.75012L7.47012 17.4301L7.16012 16.7801L7.10012 16.6501L7.01012 16.4501C6.64012 15.6401 6.54012 14.9401 6.71012 14.2501C6.95012 13.2501 7.46012 12.6101 8.29012 12.2901C8.54012 12.1901 8.80012 12.1401 9.09012 12.1401C9.41012 12.1401 9.77012 12.2001 10.1901 12.3301C10.8701 12.5401 11.5501 12.9001 12.3401 13.4701C12.4501 13.5501 12.6301 13.6301 12.8101 13.6301C12.9901 13.6301 13.1601 13.5501 13.2701 13.4101C13.4501 13.1701 13.6201 12.9001 13.7701 12.6201C13.9001 12.3801 13.9101 12.1201 13.8001 11.9001C13.7001 11.7001 13.5001 11.5601 13.2701 11.5301C13.1501 11.5101 13.0201 11.5001 12.9001 11.5001C12.7801 11.5001 12.6601 11.5101 12.5501 11.5401C12.4701 11.5601 12.3901 11.5701 12.3101 11.5701C12.0501 11.5701 11.8101 11.4601 11.5401 11.2301C10.1701 10.0301 8.74012 9.43014 7.27012 9.43014V9.39014Z" fill="black"/>
<path id="Vector_2" d="M9.12007 12.0801C9.69007 12.0801 10.2601 12.2601 10.8201 12.5001C11.3101 12.7201 11.7801 13.0001 12.2501 13.3001C12.6401 13.5601 13.0301 13.7901 13.4701 13.8601C13.6401 13.8901 13.8001 14.0501 13.9601 14.1501C13.8501 14.3501 13.7701 14.6201 13.6301 14.7401C13.3001 15.0201 12.9501 15.2901 12.5901 15.4601C12.0901 15.7001 11.7201 16.0901 11.5401 16.7601C11.4901 16.9501 11.4101 16.9801 11.2901 16.9801C10.9801 16.9801 10.6701 16.9801 10.3601 16.9801C10.0201 16.9801 9.68007 16.9801 9.34007 16.9801C9.00007 16.9801 8.65008 16.9801 8.31008 16.9801C8.01008 16.9801 7.72008 16.9801 7.42008 16.9801C7.27008 16.9801 7.17008 16.9101 7.08008 16.7501C6.70008 16.0701 6.41007 15.3301 6.55007 14.4401C6.73007 13.2701 7.34008 12.6101 8.14008 12.2701C8.48008 12.1301 8.82008 12.0701 9.15008 12.0701M9.12007 11.5801C8.70007 11.5801 8.30007 11.6601 7.91007 11.8201C6.86007 12.2601 6.21008 13.1501 6.02008 14.3801C5.85008 15.4701 6.25008 16.3601 6.61008 17.0101C6.79008 17.3301 7.05008 17.5001 7.39008 17.5001C7.70008 17.5001 8.00008 17.5001 8.29008 17.5001H8.81008H9.33008H9.82008H10.3501C10.6601 17.5001 10.9701 17.5001 11.2801 17.5001C11.5501 17.5001 11.8901 17.4001 12.0201 16.9201C12.1501 16.4501 12.3901 16.1401 12.8101 15.9401C13.1701 15.7601 13.5301 15.5101 13.9601 15.1501C14.1401 14.9901 14.2401 14.7701 14.3301 14.5801C14.3601 14.5201 14.3801 14.4601 14.4101 14.4101L14.6401 13.9901L14.2301 13.7401C14.2301 13.7401 14.1501 13.6901 14.1101 13.6601C13.9701 13.5601 13.8001 13.4301 13.5701 13.3901C13.2401 13.3301 12.9301 13.1601 12.5401 12.9001C11.9701 12.5301 11.5001 12.2601 11.0401 12.0601C10.3201 11.7401 9.72008 11.5901 9.14008 11.5901L9.12007 11.5801Z" fill="black"/>
<path id="Vector_3" d="M19.2 1.7998C19.2 1.8698 19.22 1.9298 19.21 1.9798C19.12 3.7598 19.39 5.4698 19.71 7.1798C19.88 8.1298 19.95 9.1298 19.98 10.1098C20.03 11.3798 19.99 12.6498 19.99 13.9198C19.99 13.9998 19.99 14.0798 19.99 14.1798C19.57 13.6098 19.17 13.3198 18.78 13.3198C18.43 13.3198 18.1 13.5498 17.75 13.9998C17.6 13.8098 17.44 13.6198 17.29 13.4198C17.19 13.2898 17.22 12.8998 17.33 12.6998C17.77 11.9598 18.2 11.2198 18.65 10.4898C18.8 10.2498 18.8 10.0798 18.65 9.83981C18.27 9.23981 17.92 8.6098 17.54 7.9998C17.44 7.8298 17.41 7.6698 17.45 7.4598C17.62 6.4898 17.83 5.5298 17.94 4.5498C18.03 3.7698 17.99 2.9698 18 2.1798C18 2.0598 18 1.9398 18 1.7998H19.19M19.2 1.2998H17.51V1.9298C17.51 2.0098 17.51 2.0898 17.51 2.1698C17.51 2.4098 17.51 2.6598 17.51 2.8998C17.51 3.4498 17.51 3.9698 17.45 4.4898C17.37 5.1898 17.24 5.9098 17.1 6.5998C17.05 6.8598 17 7.1098 16.96 7.3698C16.9 7.6998 16.96 7.9898 17.12 8.2598C17.29 8.5398 17.46 8.8198 17.62 9.0998C17.82 9.4398 18.02 9.7798 18.23 10.1098C18.25 10.1398 18.26 10.1598 18.26 10.1698C18.26 10.1698 18.25 10.1898 18.23 10.2198C17.89 10.7698 17.56 11.3298 17.23 11.8898L16.9 12.4398C16.73 12.7298 16.62 13.3598 16.89 13.7098C17 13.8598 17.11 13.9998 17.23 14.1398L17.36 14.3098L17.76 14.8098L18.15 14.2998C18.39 13.9898 18.61 13.8198 18.78 13.8198C18.9 13.8198 19.16 13.9098 19.58 14.4798L20.44 15.2298L20.48 14.1998V14.1098C20.48 14.0398 20.49 13.9798 20.49 13.9198C20.49 13.5398 20.49 13.1698 20.49 12.7898C20.49 11.9098 20.5 10.9898 20.47 10.0898C20.44 9.18981 20.38 8.12981 20.19 7.08981C19.89 5.46981 19.61 3.7498 19.7 2.0098C19.7 1.9398 19.7 1.87981 19.69 1.80981L19.65 1.3498L19.18 1.2998H19.2Z" fill="black"/>
<path id="Vector_4" d="M11.4 17.48C11.44 17.61 11.48 17.72 11.34 17.82C11.29 17.86 11.25 18.06 11.27 18.16C11.36 18.55 11.49 18.93 11.6 19.34H11.38C9.73 19.34 8.08 19.34 6.43 19.34C5.1 19.34 3.78 19.34 2.45 19.34C1.73 19.34 0.789998 18.4 0.599998 17.48H11.39M11.4 16.98H0L0.119995 17.58C0.359995 18.74 1.5 19.84 2.46 19.84H6.43999H8.92H11.39H11.61H12.28L12.09 19.2L11.99 18.87C11.91 18.61 11.84 18.36 11.77 18.1C11.94 17.9 11.98 17.65 11.88 17.35L11.77 17L11.4 16.98Z" fill="black"/>
<path id="Vector_5" d="M21.68 18.2698C21.43 19.2198 20.99 19.8998 20.35 20.3598C20.32 20.3798 20.28 20.3898 20.24 20.3898C20.21 20.3898 20.18 20.3898 20.15 20.3898C19.2 20.3898 18.26 20.3898 17.31 20.3898C15.95 20.3898 14.58 20.3898 13.22 20.3898C13.1 20.3898 12.96 20.3398 12.85 20.2498C12.29 19.7998 11.9 19.1498 11.67 18.2798H21.69M22.32 17.7698H11L11.17 18.3998C11.44 19.3798 11.88 20.1098 12.52 20.6298C12.71 20.7898 12.96 20.8798 13.2 20.8798C14.56 20.8798 15.93 20.8798 17.29 20.8798H19.56H20.13H20.22C20.28 20.8798 20.45 20.8798 20.62 20.7598C21.36 20.2298 21.87 19.4398 22.15 18.3898L22.32 17.7598V17.7698Z" fill="black"/>
<path id="Vector_6" d="M8.88993 7.55004V9.59004C8.31993 9.54004 7.74993 9.43004 7.18993 9.43004C7.12993 9.43004 7.07993 9.43004 7.01993 9.43004C6.40993 9.46004 5.79993 9.63004 5.16993 9.75004V7.55004H8.87993M9.38993 7.05004H4.67993V10.34L5.26993 10.23C5.46993 10.19 5.65993 10.15 5.85993 10.11C6.27993 10.02 6.66993 9.94004 7.04993 9.92004C7.09993 9.92004 7.14993 9.92004 7.19993 9.92004C7.53993 9.92004 7.88993 9.96004 8.25993 10.01C8.45993 10.03 8.64993 10.06 8.84993 10.08L9.39993 10.13V7.04004L9.38993 7.05004Z" fill="black"/>
<path id="Vector_7" d="M14.1299 9.91016V13.6302C13.8399 13.5202 13.5399 13.4102 13.2499 13.3102C13.3799 13.0602 13.5299 12.8302 13.6299 12.5602C13.8299 12.0502 13.6799 11.6302 13.2599 11.5502C13.1499 11.5302 13.0399 11.5202 12.9299 11.5202C12.7599 11.5202 12.5999 11.5402 12.4299 11.5602C12.3799 11.5602 12.3199 11.5702 12.2699 11.5702C11.8799 11.5702 11.5599 11.3502 11.2499 11.0402C11.2199 11.0102 11.1899 10.9402 11.1799 10.8902C11.1799 10.5702 11.1799 10.2502 11.1799 9.91016H14.1199M14.6299 9.41016H10.6899V10.1602C10.6899 10.4102 10.6899 10.6502 10.6899 10.9002C10.6899 11.0802 10.7799 11.2702 10.9099 11.4002C11.1999 11.6902 11.6699 12.0702 12.2799 12.0702C12.3599 12.0702 12.4299 12.0702 12.5099 12.0502C12.6299 12.0302 12.7899 12.0102 12.9299 12.0102C13.0099 12.0102 13.0799 12.0102 13.1599 12.0302C13.2099 12.0502 13.2399 12.1602 13.1599 12.3702C13.0999 12.5302 13.0199 12.6802 12.9299 12.8402C12.8899 12.9202 12.8399 13.0002 12.7999 13.0802L12.5399 13.5802L13.0699 13.7802L13.9499 14.1002L14.6199 14.3502V9.42015L14.6299 9.41016Z" fill="black"/>
<path id="Vector_8" d="M11.45 19.7998C11.82 19.7998 12.09 19.9498 12.31 20.3598H2.45995V19.8098H2.74995C4.12995 19.8098 5.50995 19.8098 6.88995 19.8098C8.40995 19.8098 9.91995 19.8098 11.4399 19.7898H11.45M11.45 19.2998H11.43C9.90995 19.3098 8.39995 19.3198 6.87995 19.3198H4.80995H2.73995H1.94995V20.8698H13.1199L12.74 20.1398C12.45 19.5798 12.0199 19.3098 11.4399 19.3098L11.45 19.2998Z" fill="black"/>
<path id="Vector_9" d="M16.8701 9.91016V13.1402C16.7201 13.1002 16.5801 13.0702 16.4401 13.0702C16.0301 13.0702 15.6601 13.2602 15.3101 13.7002V9.90015H16.8701M17.3701 9.41016H14.8101V15.1702L15.7101 14.0202C16.0201 13.6302 16.2701 13.5802 16.4401 13.5802C16.5301 13.5802 16.6301 13.6002 16.7301 13.6302L17.3701 13.8202V9.42015V9.41016Z" fill="black"/>
<path id="Vector_10" d="M7.16992 3.54004H7.48992V7.06004H7.16992V3.54004Z" fill="black"/>
<path id="Vector_11" d="M5.98999 3.53976C6.10999 3.53976 6.20999 3.51977 6.32999 3.50977C6.49999 4.68977 6.67999 5.85977 6.84999 7.04977H6.50999C6.33999 5.88977 6.15999 4.71976 5.98999 3.53976Z" fill="black"/>
<path id="Vector_12" d="M5.37012 3.58006C5.49012 3.58006 5.59012 3.58006 5.71012 3.56006C5.88012 4.73006 6.06012 5.88006 6.23012 7.06006C6.14012 7.06006 6.06012 7.06006 6.00012 7.06006C5.95012 7.06006 5.88012 7.01006 5.88012 6.98006C5.77012 6.30006 5.67012 5.63006 5.57012 4.95006C5.51012 4.56006 5.45012 4.18005 5.40012 3.79005C5.39012 3.72005 5.38012 3.65005 5.37012 3.57005V3.58006Z" fill="black"/>
<path id="Vector_13" d="M8.12005 7.06004H7.80005V3.54004H8.12005V7.06004Z" fill="black"/>
<path id="Vector_14" d="M14.3299 15.8901C14.5599 15.8901 14.7899 15.9801 14.9899 16.1601C15.3899 16.5301 15.5899 17.1801 15.4699 17.7601H13.1899C13.0599 17.2401 13.2399 16.6001 13.5999 16.2301C13.8099 16.0101 14.0699 15.9001 14.3299 15.9001M14.3299 15.3901C13.9299 15.3901 13.5399 15.5601 13.2399 15.8701C12.7599 16.3701 12.5399 17.1901 12.6999 17.8701L12.7899 18.2501H15.8699L15.9499 17.8501C16.0999 17.1001 15.8399 16.2701 15.3099 15.7901C15.0299 15.5301 14.6699 15.3901 14.3199 15.3901H14.3299Z" fill="black"/>
<path id="Vector_15" d="M18.6201 15.8901C18.8401 15.8901 19.0501 15.9701 19.2401 16.1301C19.6501 16.4801 19.8601 17.1001 19.7701 17.7601H17.4801C17.3601 17.2401 17.5201 16.6201 17.8801 16.2401C18.1001 16.0101 18.3601 15.8901 18.6201 15.8901ZM18.6201 15.3901C18.2101 15.3901 17.8201 15.5701 17.5101 15.9001C17.0401 16.4001 16.8301 17.1901 16.9901 17.8701L17.0801 18.2601H20.2001L20.2601 17.8301C20.3801 17.0101 20.1101 16.2101 19.5601 15.7501C19.2801 15.5201 18.9601 15.4001 18.6201 15.4001V15.3901Z" fill="black"/>
<path id="Vector_16" d="M16.4201 13.5398C16.7401 13.5398 17.0501 13.7098 17.2701 14.0298C17.4301 14.2598 17.5501 14.4998 17.4801 14.8598C17.4401 15.0798 17.4501 15.3498 17.5101 15.5598C17.6001 15.8698 17.5401 16.0698 17.3501 16.2498C17.0401 15.3598 16.5101 14.8898 15.8901 14.8898C15.6901 14.8898 15.4801 14.9398 15.2701 15.0398C15.2201 14.4998 15.5401 13.8798 15.9901 13.6398C16.1301 13.5698 16.2701 13.5298 16.4101 13.5298M16.4201 13.0398C16.1901 13.0398 15.9701 13.0898 15.7701 13.1998C15.1301 13.5298 14.7001 14.3398 14.7801 15.0898L14.8501 15.7898L15.4901 15.4898C15.6301 15.4198 15.7701 15.3898 15.9001 15.3898C16.4501 15.3898 16.7601 16.0298 16.8901 16.4098L17.1401 17.1298L17.7001 16.6098C18.0401 16.2898 18.1401 15.8998 18.0101 15.4198C17.9701 15.2898 17.9701 15.0998 18.0001 14.9398C18.1001 14.3898 17.8901 14.0098 17.7001 13.7298C17.3901 13.2798 16.9301 13.0298 16.4401 13.0298L16.4201 13.0398Z" fill="black"/>
<path id="Vector_17" d="M20.1701 15.3701C20.4301 15.3701 20.6901 15.4901 20.9101 15.7201C21.3301 16.1701 21.4801 16.9901 21.2501 17.6001C21.2201 17.6701 21.1401 17.7601 21.0901 17.7601C20.9401 17.7601 20.7901 17.7601 20.6501 17.7601C20.5001 17.7601 20.3501 17.7601 20.2101 17.7601C20.1401 17.3501 20.1101 16.9501 20.0001 16.6101C19.8801 16.2701 19.6701 16.0001 19.4901 15.6801C19.6801 15.4701 19.9301 15.3601 20.1801 15.3601M20.1701 14.8701C19.7701 14.8701 19.4001 15.0401 19.1101 15.3501L18.8701 15.6201L19.0501 15.9301C19.1101 16.0301 19.1701 16.1301 19.2301 16.2301C19.3501 16.4201 19.4601 16.5901 19.5201 16.7701C19.5901 16.9601 19.6201 17.2001 19.6501 17.4501C19.6701 17.5801 19.6901 17.7101 19.7101 17.8401L19.7801 18.2501H20.4101H20.6501C20.8001 18.2501 20.9601 18.2501 21.1201 18.2401C21.4201 18.2201 21.6401 17.9801 21.7201 17.7501C22.0201 16.9601 21.8301 15.9501 21.2801 15.3601C20.9801 15.0301 20.5801 14.8501 20.1701 14.8501V14.8701Z" fill="black"/>
<path id="Vector_18" d="M15.87 15.3699C16.35 15.3699 16.85 15.7799 17.01 16.4599C17.06 16.6599 17.07 16.8899 17.06 17.0999C17.04 17.6699 16.96 17.7699 16.54 17.7699H15.86C15.9 16.8999 15.68 16.2299 15.17 15.7499C15.36 15.4899 15.61 15.3699 15.87 15.3699ZM15.87 14.8699C15.43 14.8699 15.04 15.0799 14.76 15.4599L14.51 15.8099L14.82 16.1099C15.22 16.4899 15.39 17.0199 15.36 17.7399L15.33 18.2699H16.54C17.45 18.2699 17.55 17.6799 17.56 17.1199C17.56 16.8299 17.55 16.5699 17.49 16.3399C17.28 15.4699 16.61 14.8599 15.86 14.8599L15.87 14.8699Z" fill="black"/>
<path id="Vector_19" d="M18.78 13.7998C18.88 13.7998 18.99 13.8198 19.1 13.8698C19.48 14.0298 19.71 14.3898 19.78 14.8998C19.55 15.0998 19.34 15.2798 19.12 15.4498C19.09 15.4698 19.05 15.4798 19.02 15.4798C19 15.4798 18.99 15.4798 18.97 15.4798C18.85 15.4498 18.74 15.4298 18.62 15.4298C18.38 15.4298 18.13 15.5098 17.89 15.6598C17.73 15.1098 17.8 14.6398 18.07 14.2398C18.27 13.9498 18.51 13.8098 18.77 13.8098M18.78 13.2998C18.48 13.2998 18.04 13.4098 17.67 13.9498C17.31 14.4798 17.22 15.0998 17.42 15.7798L17.6 16.4198L18.17 16.0698C18.34 15.9698 18.49 15.9198 18.64 15.9198C18.71 15.9198 18.78 15.9298 18.85 15.9498L18.92 15.9698H19.04C19.19 15.9698 19.34 15.9298 19.46 15.8298C19.62 15.6998 19.78 15.5598 19.95 15.4198L20.12 15.2698L20.33 15.0898L20.29 14.8198C20.19 14.1198 19.84 13.6198 19.3 13.3998C19.13 13.3298 18.96 13.2998 18.8 13.2998H18.78Z" fill="black"/>
<path id="Vector_20" d="M4.33012 2.18018C4.33012 2.18018 4.38012 2.05018 4.43012 1.97018C4.57012 1.78018 4.52012 1.61017 4.31012 1.46017C4.09012 1.30017 3.96012 1.13018 4.07012 0.910179C4.10012 0.840179 4.14012 0.780177 4.21012 0.720177C4.25012 0.690177 4.34012 0.690176 4.41012 0.680176C4.42012 0.720176 4.47011 0.780181 4.44011 0.810181C4.24011 1.02018 4.32012 1.19018 4.56012 1.37018C4.82012 1.56018 4.87012 1.78018 4.71012 2.02018C4.56012 2.26018 4.63011 2.43018 4.94011 2.59018C4.98011 2.61018 5.04011 2.63018 5.05011 2.65018C5.07011 2.69018 5.09011 2.74018 5.05011 2.77018C5.02011 2.79018 4.92011 2.81018 4.87011 2.79018C4.59011 2.72018 4.31012 2.42017 4.31012 2.17017L4.33012 2.18018Z" fill="black"/>
<g id="Group_2">
<path id="Vector_21" d="M17.04 8.2897L17.41 8.19971L17.59 8.33971L18.68 10.1697L17.04 12.9097V8.2897Z" fill="black"/>
<path id="Vector_22" d="M17.3701 8.46988C17.7101 9.02988 18.0401 9.59988 18.3901 10.1799C18.0201 10.7999 17.6501 11.4099 17.3001 12.0199V8.49988C17.3001 8.49988 17.3501 8.48988 17.3801 8.47988M17.6101 7.88988L17.2501 7.98988L17.3801 8.46988L17.2401 7.98988L17.1801 8.00988L16.8101 8.10988V13.4899L17.7401 12.2699L18.8301 10.4299L18.9801 10.1699L18.8301 9.90988L18.3201 9.04988L17.8101 8.19988L17.6201 7.87988L17.6101 7.88988Z" fill="black"/>
</g>
<path id="Vector_23" d="M5.18993 2.01994C5.22993 1.96994 5.27993 1.85993 5.37993 1.78993C5.61993 1.62993 5.64993 1.45994 5.52993 1.25994C5.35993 0.969936 5.52993 0.749935 5.96993 0.649935C6.02993 0.639935 6.11993 0.669936 6.18993 0.689936C6.15993 0.729936 6.13993 0.779934 6.08993 0.819934C6.04993 0.849934 5.97993 0.859939 5.92993 0.879939C5.76993 0.949939 5.70993 1.03993 5.77993 1.16993C5.80993 1.22993 5.83993 1.28993 5.86993 1.34993C5.94993 1.53993 5.88993 1.70993 5.68993 1.84993C5.41993 2.04993 5.42993 2.15993 5.68993 2.35993C5.73993 2.39993 5.80993 2.42994 5.83993 2.46994C5.85993 2.49994 5.86993 2.56994 5.83993 2.58994C5.80993 2.60994 5.69993 2.61993 5.65993 2.59993C5.40993 2.45993 5.20993 2.29993 5.17993 2.02993L5.18993 2.01994Z" fill="black"/>
<path id="Vector_24" d="M8.95995 1.63016C8.92995 1.55016 8.90995 1.48015 8.87995 1.40015C8.78995 1.15015 8.91995 0.930156 9.23995 0.800156C9.29995 0.780156 9.43995 0.780156 9.47995 0.800156C9.55995 0.860156 9.48995 0.910158 9.39995 0.950158C9.15995 1.05016 9.07995 1.20016 9.16995 1.38016C9.19995 1.43016 9.20995 1.49016 9.22995 1.55016C9.27995 1.74016 9.18995 1.89016 8.96995 2.01016C8.87995 2.06016 8.78994 2.10016 8.68994 2.13016C8.35994 2.26016 8.34995 2.31015 8.51995 2.53015C8.54995 2.57015 8.51995 2.62015 8.51995 2.67015C8.43995 2.66015 8.33995 2.67016 8.29995 2.63016C8.00995 2.41016 8.07995 2.15015 8.44995 2.00015C8.54995 1.96015 8.65995 1.92016 8.74995 1.88016C8.88995 1.82016 8.95995 1.73016 8.95995 1.62016V1.63016Z" fill="black"/>
<path id="Vector_25" d="M7.07008 1.62004C7.07008 1.80004 6.97007 1.92003 6.80007 2.01003C6.74007 2.04003 6.67008 2.08003 6.61008 2.11003C6.42008 2.21003 6.40008 2.28004 6.56008 2.41004C6.63008 2.47004 6.70008 2.52003 6.59008 2.58003C6.48008 2.64003 6.40008 2.58004 6.33008 2.52004C6.09008 2.33004 6.12008 2.13003 6.41008 1.97003C6.45008 1.95003 6.49008 1.93004 6.53008 1.91004C6.81008 1.76004 6.83008 1.69003 6.71008 1.47003C6.55008 1.19003 6.60008 1.01003 6.88008 0.860033C6.94008 0.830033 7.07007 0.810036 7.12007 0.840036C7.21007 0.880036 7.16008 0.95003 7.08008 0.99003C6.89008 1.10003 6.86008 1.23004 6.96008 1.38004C7.02008 1.47004 7.05008 1.56004 7.08008 1.62004H7.07008Z" fill="black"/>
<path id="Vector_26" d="M12.9401 15.8999C13.0501 15.8999 13.1601 15.9199 13.2801 15.9599C12.9101 16.4799 12.7501 17.0599 12.8001 17.7499H11.7901C11.7301 17.1899 11.8501 16.7199 12.1501 16.3399C12.3801 16.0499 12.6301 15.9099 12.9401 15.9099M12.9401 15.3999C12.4801 15.3999 12.0801 15.6099 11.7601 16.0199C11.3801 16.4999 11.2301 17.0999 11.3001 17.7899L11.3501 18.2399H13.3501L13.3101 17.6999C13.2701 17.1399 13.3901 16.6799 13.7001 16.2399L14.0901 15.6799L13.4301 15.4799C13.2601 15.4299 13.1001 15.3999 12.9401 15.3999Z" fill="black"/>
<path id="Vector_27" d="M7.34007 2.23015C7.35007 2.05015 7.45007 1.93016 7.66007 1.84016C7.92007 1.73016 7.95007 1.69015 7.87007 1.49015C7.77007 1.21015 7.86007 0.970153 8.19007 0.790153C8.24007 0.760153 8.34007 0.770156 8.42007 0.770156C8.42007 0.820156 8.44008 0.89015 8.39008 0.92015C8.14008 1.08015 8.07007 1.27015 8.16007 1.48015C8.26007 1.70015 8.14007 1.87015 7.84007 1.99015C7.64007 2.07015 7.59008 2.15015 7.64008 2.30015C7.67008 2.37015 7.69008 2.45015 7.54008 2.47015C7.41008 2.49015 7.38008 2.41016 7.36008 2.34016C7.35008 2.30016 7.34008 2.25015 7.33008 2.22015L7.34007 2.23015Z" fill="black"/>
<g id="Group_3">
<path id="Vector_28" d="M19.45 0.25H17.78V1.54H19.45V0.25Z" fill="black"/>
<path id="Vector_29" d="M19.2 0.5V1.29H18.03V0.5H19.2ZM19.7 0H17.53V1.79H19.7V0Z" fill="black"/>
</g>
<path id="Vector_30" d="M7.50002 3.34002H7.16001C7.16001 3.26002 7.14001 3.18002 7.16001 3.11002C7.17001 3.07002 7.27002 3.02002 7.33002 3.02002C7.39002 3.02002 7.47001 3.07002 7.49001 3.11002C7.52001 3.18002 7.49001 3.25002 7.49001 3.33002L7.50002 3.34002Z" fill="black"/>
<path id="Vector_31" d="M5.67997 3.36983C5.55997 3.37983 5.45997 3.38983 5.33997 3.39983C5.32997 3.31983 5.28997 3.23982 5.30997 3.16982C5.31997 3.12982 5.40997 3.06982 5.46997 3.06982C5.51997 3.06982 5.60997 3.11983 5.62997 3.15983C5.66997 3.21983 5.65997 3.29983 5.66997 3.37983L5.67997 3.36983Z" fill="black"/>
<path id="Vector_32" d="M6.29993 3.33002C6.17993 3.33002 6.07993 3.34001 5.95993 3.35001C5.95993 3.27001 5.91993 3.20002 5.93993 3.13002C5.94993 3.09002 6.03993 3.02002 6.08993 3.02002C6.14993 3.02002 6.23993 3.07002 6.26993 3.11002C6.30993 3.17002 6.28993 3.24001 6.29993 3.32001V3.33002Z" fill="black"/>
<path id="Vector_33" d="M8.11988 3.34002H7.77988C7.77988 3.26002 7.75988 3.18002 7.77988 3.11002C7.78988 3.07002 7.88988 3.02002 7.93988 3.02002C7.98988 3.02002 8.07988 3.07002 8.09988 3.11002C8.12988 3.18002 8.09988 3.25002 8.09988 3.33002L8.11988 3.34002Z" fill="black"/>
<g id="Group_4">
<path id="Vector_34" d="M13.6501 15.8502C13.5201 15.8502 13.3901 15.8002 13.2901 15.6902L13.1201 15.5202L14.3901 14.2002V15.7402L14.1001 15.6902C14.1001 15.6902 14.0401 15.7202 14.0001 15.7402C13.9101 15.7902 13.7901 15.8502 13.6501 15.8502Z" fill="black"/>
<path id="Vector_35" d="M14.14 14.8201V15.4501C14.14 15.4501 14.12 15.4501 14.11 15.4501C13.96 15.4501 13.82 15.6101 13.66 15.6101C13.6 15.6101 13.54 15.5901 13.47 15.5201C13.7 15.2901 13.91 15.0601 14.14 14.8201ZM14.64 13.5801L13.78 14.4701L13.75 14.5001L13.11 15.1601L12.77 15.5101L13.12 15.8601C13.31 16.0501 13.52 16.0901 13.66 16.0901C13.86 16.0901 14.02 16.0101 14.13 15.9501C14.13 15.9501 14.15 15.9501 14.15 15.9401L14.7 16.0301L14.65 15.4301V13.5601L14.64 13.5801Z" fill="black"/>
</g>
</g>
</g>
</svg>
