<svg width="15" height="19" viewBox="0 0 15 19" fill="none" xmlns="http://www.w3.org/2000/svg">
<g id="Group">
<g id="VmSp39">
<g id="Group_2">
<path id="Vector" d="M7.9319 5.97C7.7119 5.9 7.5019 5.81 7.3019 5.71C7.2419 5.68 7.1819 5.64 7.1319 5.6C7.2219 5.75 7.2719 5.92 7.3019 6.09C7.3319 6.22 7.3519 6.35 7.3719 6.48C7.3819 6.48 7.3819 6.46 7.3919 6.45C7.4219 6.42 7.4719 6.39 7.5019 6.4C7.6719 6.43 7.8519 6.45 8.0219 6.45C7.9919 6.29 7.9619 6.13 7.9319 5.97ZM7.9319 5.97C7.7119 5.9 7.5019 5.81 7.3019 5.71C7.2419 5.68 7.1819 5.64 7.1319 5.6C7.2219 5.75 7.2719 5.92 7.3019 6.09C7.3319 6.22 7.3519 6.35 7.3719 6.48C7.3819 6.48 7.3819 6.46 7.3919 6.45C7.4219 6.42 7.4719 6.39 7.5019 6.4C7.6719 6.43 7.8519 6.45 8.0219 6.45C7.9919 6.29 7.9619 6.13 7.9319 5.97ZM7.9319 5.97C7.7119 5.9 7.5019 5.81 7.3019 5.71C7.2419 5.68 7.1819 5.64 7.1319 5.6C7.2219 5.75 7.2719 5.92 7.3019 6.09C7.3319 6.22 7.3519 6.35 7.3719 6.48C7.3819 6.48 7.3819 6.46 7.3919 6.45C7.4219 6.42 7.4719 6.39 7.5019 6.4C7.6719 6.43 7.8519 6.45 8.0219 6.45C7.9919 6.29 7.9619 6.13 7.9319 5.97ZM8.6319 1.53C8.4319 1.21 8.2119 0.92 7.8819 0.73C7.5819 0.56 7.2719 0.44 6.9419 0.34C6.3819 0.17 5.8119 0.0699988 5.2319 0.0299988L4.8419 0H4.2119C4.2119 0 4.1719 0.00999832 4.1519 0.00999832C3.9119 0.0299983 3.6719 0.0299976 3.4419 0.0599976C2.8919 0.139998 2.3519 0.28 1.8519 0.52C1.4319 0.72 1.0419 0.969999 0.7119 1.3C0.4919 1.51 0.361901 1.77 0.341901 2.08C0.321901 2.4 0.411898 2.68 0.561898 2.96C0.691898 3.2 0.861902 3.42 1.0419 3.62C1.1819 3.76 1.1919 3.87 1.1119 4.04C1.0919 4.07 1.0819 4.09 1.0619 4.12C0.961898 4.31 0.851901 4.49 0.751901 4.68C0.641901 4.89 0.7319 5.06 0.8719 5.17C1.0019 5.26 1.1519 5.33 1.3019 5.4C1.3819 5.44 1.4719 5.46 1.5519 5.49C1.5219 5.63 1.5019 5.77 1.4719 5.91C1.3419 6.58 1.2019 7.25 1.0719 7.91C0.9619 8.48 0.861901 9.05 0.751901 9.62C0.651901 10.18 0.5419 10.73 0.441899 11.29C0.351899 11.77 0.261901 12.25 0.181901 12.74C0.121901 13.11 0.0618992 13.48 0.0118992 13.85C-0.0481008 14.28 0.121902 14.61 0.451902 14.88C0.711902 15.08 1.0119 15.2 1.3219 15.29C1.9619 15.48 2.6219 15.53 3.2919 15.56C3.3819 15.57 3.4819 15.58 3.5719 15.58H4.6819C4.6819 15.58 4.7119 15.57 4.7219 15.57C5.0819 15.56 5.4419 15.55 5.7919 15.53C6.0319 15.52 6.2619 15.51 6.4919 15.49H6.5219C6.5419 15.29 6.5719 15.09 6.6019 14.89C6.3619 14.92 6.1319 14.95 5.8919 14.97H5.8319C5.5319 15 5.2219 15 4.8819 15.02C4.5219 15 4.1119 14.99 3.7119 14.96C2.9419 14.88 2.1819 14.76 1.4519 14.47C1.3319 14.42 1.2319 14.36 1.1119 14.31C0.941901 14.22 0.851901 14.07 0.821901 13.89C0.781901 13.67 0.781898 13.46 0.811898 13.25C0.881898 12.77 0.9419 12.28 1.0319 11.81C1.1219 11.31 1.2319 10.81 1.3319 10.31C1.4119 9.91 1.4919 9.51 1.5719 9.11C1.6519 8.66 1.7319 8.2 1.8119 7.74C1.9019 7.29 1.9819 6.83 2.0619 6.38C2.1019 6.14 2.1519 5.9 2.2019 5.66C2.2019 5.64 2.2019 5.62 2.2219 5.6C2.2719 5.49 2.3019 5.49 2.4119 5.54C2.5019 5.58 2.6019 5.6 2.7019 5.61C2.9919 5.65 3.2819 5.68 3.5819 5.71C3.8219 5.74 4.0619 5.77 4.3119 5.78C4.4819 5.8 4.6619 5.81 4.8319 5.8C5.1319 5.78 5.4219 5.75 5.7119 5.69C5.9219 5.65 6.1319 5.61 6.3419 5.56C6.5219 5.52 6.6919 5.48 6.8719 5.44C6.9119 5.44 6.9519 5.44 6.9819 5.45C6.9119 5.35 6.8519 5.24 6.8319 5.1C6.8319 5.03 6.8319 4.96 6.8319 4.89C6.6019 4.93 6.3619 4.97 6.1319 5C6.1119 5 6.0919 5.01 6.0719 5.01C5.5019 5.09 4.9219 5.11 4.3419 5.09C3.8519 5.07 3.3619 5.02 2.8719 4.96C2.4519 4.9 2.0419 4.81 1.6219 4.74C1.5919 4.73 1.5519 4.72 1.5219 4.7C1.4519 4.67 1.4119 4.61 1.4319 4.54C1.4719 4.44 1.5219 4.34 1.5719 4.24C1.6119 4.16 1.6619 4.09 1.7219 4.01C1.7419 3.98 1.7919 3.95 1.8219 3.96C2.0919 4.01 2.3619 4.02 2.6319 4.01C2.9419 3.99 3.2519 3.95 3.5619 3.92C3.5919 3.92 3.6119 3.92 3.6419 3.9V3.88C3.5419 3.86 3.4419 3.83 3.3419 3.81C2.7519 3.7 2.1719 3.54 1.6319 3.27C1.3819 3.14 1.2019 2.94 1.1619 2.66C1.1219 2.43 1.1719 2.2 1.2619 1.99C1.4219 1.64 1.6419 1.33 1.9919 1.15C2.1719 1.06 2.3819 1.01 2.5819 0.959999C3.2819 0.769999 3.9919 0.680001 4.7119 0.720001C5.4119 0.750001 6.1019 0.839998 6.7619 1.08C7.0419 1.18 7.3119 1.32 7.5519 1.51C7.9219 1.81 8.0619 2.37 7.8819 2.81C7.8519 2.87 7.8219 2.93 7.7819 2.99C7.7019 3.11 7.5919 3.2 7.4419 3.24C7.2519 3.28 7.0419 3.32 6.8419 3.36C6.8019 3.37 6.7719 3.37 6.7319 3.38C6.5419 3.42 6.3519 3.44 6.1519 3.47C6.1219 3.47 6.0919 3.47 6.0719 3.5C6.0519 3.51 6.0319 3.52 6.0219 3.54C6.0319 3.56 6.0519 3.58 6.0719 3.59C6.2019 3.62 6.3219 3.65 6.4519 3.67C6.7419 3.7 7.0219 3.71 7.3119 3.73C7.3419 3.73 7.3719 3.74 7.4019 3.76C7.4819 3.69 7.5619 3.64 7.6519 3.59C7.8419 3.5 8.0519 3.45 8.2519 3.4C8.3219 3.38 8.3919 3.36 8.4619 3.35C8.4819 3.34 8.5019 3.32 8.5219 3.31C8.7819 3.1 8.9119 2.84 8.9219 2.53C8.9319 2.45 8.9319 2.36 8.9219 2.28C8.8819 2.01 8.7719 1.76 8.6219 1.53H8.6319ZM8.4619 8.85C8.4619 8.85 8.4419 8.9 8.4319 8.93C8.3919 9.09 8.3619 9.24 8.3419 9.4C8.3119 9.61 8.2919 9.83 8.2619 10.04C8.2419 10.3 8.2219 10.55 8.2019 10.8C8.1919 10.9 8.1819 11.01 8.1719 11.11C8.2519 11.55 8.3319 11.97 8.4019 12.4C8.4619 12.77 8.5219 13.15 8.4819 13.52C8.4619 13.83 8.3819 14.12 8.2019 14.38C8.0919 14.52 7.9619 14.62 7.8119 14.68C7.8019 14.68 7.8019 14.71 7.8019 14.72C7.7619 14.94 7.7219 15.17 7.7919 15.39C7.8819 15.38 7.9819 15.37 8.0719 15.35C8.2219 15.33 8.3519 15.28 8.4819 15.21C8.5219 15.01 8.5519 14.81 8.5819 14.6C8.6119 14.3 8.6219 14 8.6419 13.7C8.6619 13.4 8.6819 13.1 8.7019 12.8C8.7219 12.56 8.7319 12.32 8.7519 12.08C8.7719 11.88 8.7819 11.69 8.8019 11.49C8.8219 11.34 8.8319 11.2 8.8519 11.05V11.03C8.7819 10.63 8.7119 10.24 8.6319 9.83C8.5719 9.5 8.5119 9.18 8.4619 8.85ZM7.9319 5.97C7.7119 5.9 7.5019 5.81 7.3019 5.71C7.2419 5.68 7.1819 5.64 7.1319 5.6C7.2219 5.75 7.2719 5.92 7.3019 6.09C7.3319 6.22 7.3519 6.35 7.3719 6.48C7.3819 6.48 7.3819 6.46 7.3919 6.45C7.4219 6.42 7.4719 6.39 7.5019 6.4C7.6719 6.43 7.8519 6.45 8.0219 6.45C7.9919 6.29 7.9619 6.13 7.9319 5.97ZM9.1919 13.93C9.1919 13.93 9.1819 13.98 9.1819 14.01V14.07C9.1819 14.07 9.1819 14.05 9.1919 14.04C9.1919 14.01 9.2019 13.98 9.2019 13.95V13.83C9.2019 13.83 9.1919 13.89 9.1919 13.93ZM8.1819 7.33C7.9519 7.3 7.7219 7.25 7.5019 7.21C7.5019 7.23 7.5119 7.25 7.5119 7.27C7.6019 7.76 7.6619 8.25 7.7419 8.74C7.7919 8.52 7.8319 8.32 7.8819 8.1C7.8819 8.08 7.8919 8.06 7.8919 8.04C7.9419 7.92 7.9719 7.92 8.0819 7.98C8.1519 8.01 8.2319 8.02 8.3119 8.04C8.2619 7.8 8.2219 7.56 8.1819 7.33ZM7.9319 5.97C7.7119 5.9 7.5019 5.81 7.3019 5.71C7.2419 5.68 7.1819 5.64 7.1319 5.6C7.2219 5.75 7.2719 5.92 7.3019 6.09C7.3319 6.22 7.3519 6.35 7.3719 6.48C7.3819 6.48 7.3819 6.46 7.3919 6.45C7.4219 6.42 7.4719 6.39 7.5019 6.4C7.6719 6.43 7.8519 6.45 8.0219 6.45C7.9919 6.29 7.9619 6.13 7.9319 5.97ZM8.5219 4.04C8.4319 4.1 8.4119 4.19 8.4719 4.29C8.5519 4.43 8.6619 4.5 8.8019 4.52C8.7419 4.34 8.6519 4.18 8.5219 4.04Z" fill="#BF2231"/>
<path id="Vector_2" d="M3.37191 6.76013C3.34191 6.99013 3.32191 7.23013 3.29191 7.46013C3.26191 7.74013 3.23191 8.02013 3.20191 8.30013C3.17191 8.55013 3.15191 8.80013 3.12191 9.05013C3.10191 9.25013 3.08191 9.44013 3.07191 9.64013C3.05191 9.88013 3.03191 10.1201 3.02191 10.3601C3.00191 10.6601 2.98191 10.9601 2.96191 11.2501C2.94191 11.5501 2.93191 11.8501 2.90191 12.1501C2.88191 12.3901 2.84191 12.6201 2.79191 12.8601C2.76191 13.0001 2.69191 13.1301 2.53191 13.1801C2.35191 13.2301 2.19192 13.1401 2.13192 12.9601C2.06192 12.7301 2.10192 12.5001 2.13192 12.2701C2.17192 12.0001 2.21191 11.7401 2.24191 11.4701C2.27191 11.2201 2.29191 10.9701 2.31191 10.7201C2.33191 10.4601 2.36192 10.1901 2.38192 9.93013C2.40192 9.66013 2.43191 9.40013 2.45191 9.13013C2.47191 8.87013 2.50191 8.61013 2.52191 8.35013C2.54191 8.10013 2.56191 7.84013 2.59191 7.59013C2.61191 7.37013 2.63191 7.16013 2.66191 6.94013C2.68191 6.78013 2.71191 6.63013 2.75191 6.48013C2.81191 6.26013 2.89191 6.23013 3.11191 6.28013C3.25191 6.32013 3.32191 6.41013 3.34191 6.54013C3.35191 6.60013 3.36191 6.67013 3.36191 6.74013L3.37191 6.76013Z" fill="#BF2231"/>
<path id="Vector_3" d="M4.35199 10.9502C4.35199 11.3302 4.35199 11.7102 4.32199 12.0902C4.31199 12.2702 4.27199 12.4602 4.21199 12.6302C4.12199 12.8802 3.81199 12.9002 3.66199 12.6802C3.54199 12.5102 3.53199 12.3102 3.52199 12.1102C3.50199 11.6702 3.54199 11.2302 3.61199 10.7902C3.67199 10.4002 3.74199 10.0002 3.82199 9.61023C3.85199 9.47023 3.91199 9.34023 3.97199 9.21023C4.01199 9.13023 4.07199 9.13023 4.14199 9.19023C4.25199 9.29023 4.28199 9.44023 4.30199 9.58023C4.32199 9.81023 4.34199 10.0402 4.35199 10.2702C4.35199 10.5002 4.35199 10.7302 4.35199 10.9502Z" fill="#BF2231"/>
<path id="Vector_4" d="M5.67188 1.92981C5.70187 1.67981 5.81188 1.5698 6.04188 1.5498C6.11188 1.5498 6.19188 1.54981 6.26188 1.56981C6.49188 1.60981 6.54188 1.87981 6.45188 2.01981C6.34188 2.18981 6.07188 2.28981 5.89188 2.21981C5.76188 2.16981 5.67188 2.04981 5.67188 1.92981Z" fill="#BF2231"/>
<path id="Vector_5" d="M4.6018 2.16985C4.4518 2.16985 4.3618 2.09986 4.3018 1.94986C4.2518 1.80986 4.2918 1.68986 4.4018 1.59986C4.5418 1.48986 4.7018 1.46986 4.8618 1.53986C4.9918 1.59986 5.0518 1.70986 5.0618 1.83986C5.0618 1.94986 5.0018 2.01986 4.9118 2.06986C4.8118 2.12986 4.7118 2.16986 4.6018 2.15986V2.16985Z" fill="#BF2231"/>
<path id="Vector_6" d="M3.14183 1.48021C3.33183 1.49021 3.46183 1.52021 3.57183 1.63021C3.63183 1.69021 3.65183 1.76021 3.60183 1.83021C3.51183 1.97021 3.41183 2.09021 3.24183 2.09021C3.05183 2.09021 2.90182 2.01021 2.81182 1.85021C2.74182 1.74021 2.77183 1.63021 2.88183 1.57021C2.98183 1.52021 3.09182 1.50021 3.15182 1.47021L3.14183 1.48021Z" fill="#BF2231"/>
</g>
</g>
<g id="VmSp39_2">
<g id="Group_3">
<path id="Vector_7" d="M9.02182 6.25018C8.65182 6.18018 8.28182 6.09018 7.93182 5.97018C7.96182 6.13018 7.99182 6.29018 8.02182 6.45018C8.12182 6.45018 8.21182 6.45017 8.30182 6.44017C8.61182 6.44017 8.92182 6.39018 9.23182 6.36018C9.26182 6.36018 9.29181 6.35018 9.31181 6.34018V6.32018C9.21181 6.29018 9.12182 6.27018 9.02182 6.25018ZM7.32182 3.73018C7.03182 3.71018 6.75182 3.70017 6.46182 3.67017C6.46182 3.67017 6.41182 3.71018 6.39182 3.73018C6.18182 3.95018 6.04182 4.21018 6.02182 4.52018C6.01182 4.69018 6.02181 4.85017 6.08181 5.01017C6.10181 5.01017 6.12182 5.00018 6.14182 5.00018C6.37182 4.97018 6.61182 4.93017 6.84182 4.89017C6.84182 4.72017 6.88182 4.57018 6.95182 4.43018C7.07182 4.17018 7.21181 3.94017 7.42181 3.76017C7.39181 3.74017 7.36181 3.73018 7.33181 3.73018H7.32182ZM9.02182 6.25018C8.65182 6.18018 8.28182 6.09018 7.93182 5.97018C7.96182 6.13018 7.99182 6.29018 8.02182 6.45018C8.12182 6.45018 8.21182 6.45017 8.30182 6.44017C8.61182 6.44017 8.92182 6.39018 9.23182 6.36018C9.26182 6.36018 9.29181 6.35018 9.31181 6.34018V6.32018C9.21181 6.29018 9.12182 6.27018 9.02182 6.25018ZM6.46182 3.67017C6.46182 3.67017 6.41182 3.71018 6.39182 3.73018C6.18182 3.95018 6.04182 4.21018 6.02182 4.52018C6.01182 4.69018 6.02181 4.85017 6.08181 5.01017C6.10181 5.01017 6.12182 5.00018 6.14182 5.00018C6.37182 4.97018 6.61182 4.93017 6.84182 4.89017C6.84182 4.72017 6.88182 4.57018 6.95182 4.43018C7.07182 4.17018 7.21181 3.94017 7.42181 3.76017C7.39181 3.74017 7.36181 3.73018 7.33181 3.73018C7.04181 3.71018 6.76182 3.70017 6.47182 3.67017H6.46182ZM14.8218 15.2402C14.7318 14.6802 14.6318 14.1302 14.5418 13.5702C14.4618 13.1402 14.3818 12.7002 14.3018 12.2702C14.2218 11.8202 14.1418 11.3702 14.0618 10.9202C13.9718 10.4302 13.8818 9.94018 13.7918 9.45018C13.7018 8.94018 13.6118 8.42017 13.5218 7.90017C13.5218 7.84017 13.5218 7.81018 13.5718 7.79018C13.7818 7.68018 14.0018 7.62018 14.2318 7.59018C14.3918 7.56018 14.5018 7.49017 14.5218 7.35017C14.5318 7.27017 14.5318 7.18017 14.5218 7.10017C14.4618 6.80017 14.3018 6.56018 14.0818 6.34018C14.0218 6.27018 13.9618 6.20018 13.9118 6.11018C13.8718 6.03018 13.8918 5.96017 13.9618 5.92017C14.0518 5.86017 14.1418 5.81018 14.2118 5.75018C14.5318 5.48018 14.6718 5.13018 14.6118 4.72018C14.5718 4.44018 14.4618 4.20018 14.3218 3.97018C14.1218 3.65018 13.8918 3.36017 13.5618 3.17017C13.2718 3.00017 12.9518 2.88017 12.6318 2.78017C12.0718 2.61017 11.5018 2.51018 10.9118 2.47018C10.7818 2.46018 10.6618 2.44018 10.5318 2.43018H9.89182C9.89182 2.43018 9.85181 2.43018 9.83181 2.43018C9.60181 2.45018 9.36182 2.46017 9.13182 2.49017C9.07182 2.50017 9.00182 2.51018 8.94182 2.52018C8.58182 2.58018 8.23182 2.67017 7.89182 2.80017C7.77182 2.84017 7.65182 2.89018 7.53182 2.95018C7.29182 3.06018 7.06182 3.19017 6.85182 3.35017C6.71182 3.44017 6.59182 3.53018 6.47182 3.66018C6.47182 3.66018 6.42181 3.70018 6.40181 3.72018C6.19181 3.94018 6.05182 4.20017 6.03182 4.51017C6.02182 4.68017 6.03182 4.84018 6.09182 5.00018C6.13182 5.13018 6.19182 5.25018 6.25182 5.38018C6.28182 5.44018 6.32182 5.50017 6.36182 5.55017C6.47182 5.73017 6.59181 5.89017 6.74181 6.05017C6.87181 6.19017 6.88182 6.29017 6.80182 6.46017C6.79182 6.49017 6.77181 6.52017 6.76181 6.55017C6.65181 6.73017 6.54182 6.92018 6.44182 7.11018C6.33182 7.31018 6.42182 7.49018 6.57182 7.59018C6.70182 7.69018 6.85181 7.76017 6.99181 7.83017C7.07181 7.87017 7.16181 7.89017 7.24181 7.92017C7.22181 8.06017 7.19182 8.20018 7.16182 8.34018C7.03182 9.01018 6.90182 9.67018 6.77182 10.3402C6.66182 10.9102 6.55182 11.4802 6.45182 12.0502C6.34182 12.6002 6.23182 13.1602 6.13182 13.7202C6.05182 14.1302 5.98182 14.5502 5.91182 14.9602C5.89182 15.0302 5.88182 15.0902 5.87182 15.1602C5.85182 15.2802 5.83181 15.4002 5.81181 15.5202C5.77181 15.7702 5.73182 16.0202 5.70182 16.2702C5.64182 16.7002 5.81181 17.0402 6.15181 17.3102C6.40181 17.5102 6.71182 17.6302 7.02182 17.7202C7.66182 17.9102 8.32182 17.9602 8.98182 17.9902C9.08182 18.0002 9.17181 18.0002 9.26181 18.0102H10.3818C10.3818 18.0102 10.4018 18.0002 10.4218 18.0002C10.7718 17.9802 11.1318 17.9702 11.4918 17.9602C11.7218 17.9502 11.9518 17.9302 12.1918 17.9202C12.4518 17.9002 12.7218 17.8902 12.9918 17.8602C13.2518 17.8402 13.5118 17.8302 13.7618 17.7802C14.0918 17.7202 14.3718 17.5702 14.5818 17.3002C14.7918 17.0302 14.8618 16.7102 14.8918 16.3802C14.9318 16.0002 14.9018 15.6102 14.8418 15.2302L14.8218 15.2402ZM7.19182 7.14017C7.12182 7.11017 7.08182 7.04018 7.11182 6.97018C7.14182 6.87018 7.19181 6.78018 7.24181 6.68018C7.28181 6.61018 7.33182 6.54017 7.37182 6.48018C7.38182 6.48018 7.38182 6.46018 7.39182 6.45018C7.42182 6.42018 7.47182 6.39017 7.50182 6.40017C7.67182 6.43017 7.85182 6.45018 8.02182 6.45018C8.12182 6.45018 8.21182 6.45017 8.30182 6.44017C8.61182 6.44017 8.92182 6.39018 9.23182 6.36018C9.26182 6.36018 9.29181 6.35018 9.31181 6.34018V6.32018C9.21181 6.29018 9.12182 6.27018 9.02182 6.25018C8.65182 6.18018 8.28182 6.09018 7.93182 5.97018C7.71182 5.90018 7.50182 5.81017 7.30182 5.71017C7.24182 5.68017 7.18182 5.64017 7.13182 5.60017C7.08182 5.56017 7.03181 5.51017 6.99181 5.46017C6.99181 5.46017 6.99182 5.46017 6.98182 5.46017C6.91182 5.36017 6.85181 5.25018 6.83181 5.11018C6.83181 5.04018 6.83181 4.97017 6.83181 4.90017C6.83181 4.73017 6.87182 4.58017 6.94182 4.44017C7.06182 4.18017 7.20182 3.95018 7.41182 3.77018C7.49182 3.70018 7.57182 3.65017 7.66182 3.60017C7.85182 3.51017 8.06181 3.46018 8.26181 3.41018C8.33181 3.39018 8.40182 3.37018 8.47182 3.36018C9.09182 3.20018 9.73182 3.13018 10.3818 3.16018C11.0818 3.20018 11.7718 3.29017 12.4318 3.53017C12.7218 3.63017 12.9818 3.76018 13.2218 3.95018C13.6518 4.29018 13.7618 4.99018 13.4618 5.43018C13.3718 5.56018 13.2618 5.65018 13.1218 5.68018C12.8818 5.74018 12.6518 5.79017 12.4118 5.83017C12.2218 5.86017 12.0218 5.88018 11.8318 5.91018C11.8018 5.92018 11.7718 5.93017 11.7418 5.94017C11.7218 5.94017 11.7118 5.97017 11.6918 5.99017C11.7118 6.00017 11.7218 6.03018 11.7418 6.04018C11.8718 6.07018 12.0018 6.10017 12.1418 6.12017C12.4218 6.14017 12.7118 6.16018 12.9918 6.18018C13.0718 6.18018 13.1318 6.22017 13.1818 6.28017C13.2518 6.39017 13.3218 6.50017 13.3918 6.60017C13.4418 6.68017 13.5018 6.76017 13.5518 6.83017C13.6318 6.94017 13.6218 7.03018 13.5018 7.09018C13.3818 7.15018 13.2518 7.20017 13.1118 7.23018C12.6818 7.31017 12.2418 7.39018 11.8118 7.45018C11.2118 7.53018 10.6118 7.56018 10.0218 7.54018C9.52182 7.52018 9.03182 7.47017 8.54182 7.40017C8.42182 7.39017 8.30182 7.37018 8.18182 7.34018C7.95182 7.31018 7.72182 7.26018 7.50182 7.22018C7.43182 7.22018 7.37182 7.19018 7.30182 7.18018C7.26182 7.18018 7.22182 7.18017 7.19182 7.15017V7.14017ZM13.8718 16.8102C13.7018 17.0602 13.4518 17.1802 13.1518 17.2102C12.9118 17.2302 12.6818 17.2802 12.4518 17.3102C12.1418 17.3502 11.8218 17.3902 11.5118 17.4102C11.2018 17.4402 10.9018 17.4402 10.5618 17.4602C10.1918 17.4402 9.79182 17.4302 9.39182 17.3902C8.61182 17.3202 7.85182 17.1902 7.12182 16.9002C7.01182 16.8602 6.90182 16.8002 6.79182 16.7502C6.61182 16.6602 6.53181 16.5102 6.49181 16.3202C6.45181 16.1102 6.46181 15.9002 6.49181 15.6802C6.50181 15.6202 6.51182 15.5502 6.52182 15.4902C6.54182 15.2902 6.57182 15.0902 6.60182 14.8902C6.63182 14.6702 6.66182 14.4602 6.70182 14.2402C6.79182 13.7402 6.90182 13.2502 7.00182 12.7502C7.08182 12.3502 7.16181 11.9502 7.24181 11.5502C7.33181 11.0902 7.41181 10.6402 7.49181 10.1802C7.57181 9.73018 7.65182 9.27017 7.73182 8.81017C7.73182 8.79017 7.74181 8.76017 7.74181 8.74017C7.79181 8.52017 7.83182 8.32017 7.88182 8.10017C7.88182 8.08017 7.89182 8.06018 7.89182 8.04018C7.94182 7.92018 7.97181 7.92018 8.08181 7.98018C8.15181 8.01018 8.23181 8.02018 8.31181 8.04018C8.33181 8.04018 8.36182 8.05017 8.38182 8.05017C8.67182 8.08017 8.96182 8.12017 9.25182 8.15017C9.49182 8.18017 9.74182 8.20018 9.98182 8.22018C10.1618 8.22018 10.3318 8.25017 10.5118 8.24017C10.8018 8.21017 11.1018 8.18018 11.3918 8.13018C11.7718 8.06018 12.1618 7.96017 12.5418 7.87017C12.6418 7.85017 12.7118 7.88018 12.7718 7.98018C12.8818 8.15018 12.9418 8.34017 12.9818 8.53017C13.0618 8.92017 13.1218 9.31018 13.1918 9.70018C13.2818 10.2702 13.3618 10.8502 13.4618 11.4202C13.5718 12.0902 13.7018 12.7602 13.8318 13.4302C13.9118 13.9002 14.0018 14.3702 14.0718 14.8402C14.1318 15.2102 14.1918 15.5802 14.1618 15.9602C14.1318 16.2702 14.0618 16.5602 13.8718 16.8102ZM7.32182 3.73018C7.03182 3.71018 6.75182 3.70017 6.46182 3.67017C6.46182 3.67017 6.41182 3.71018 6.39182 3.73018C6.18182 3.95018 6.04182 4.21018 6.02182 4.52018C6.01182 4.69018 6.02181 4.85017 6.08181 5.01017C6.10181 5.01017 6.12182 5.00018 6.14182 5.00018C6.37182 4.97018 6.61182 4.93017 6.84182 4.89017C6.84182 4.72017 6.88182 4.57018 6.95182 4.43018C7.07182 4.17018 7.21181 3.94017 7.42181 3.76017C7.39181 3.74017 7.36181 3.73018 7.33181 3.73018H7.32182ZM9.02182 6.25018C8.65182 6.18018 8.28182 6.09018 7.93182 5.97018C7.96182 6.13018 7.99182 6.29018 8.02182 6.45018C8.12182 6.45018 8.21182 6.45017 8.30182 6.44017C8.61182 6.44017 8.92182 6.39018 9.23182 6.36018C9.26182 6.36018 9.29181 6.35018 9.31181 6.34018V6.32018C9.21181 6.29018 9.12182 6.27018 9.02182 6.25018ZM7.32182 3.73018C7.03182 3.71018 6.75182 3.70017 6.46182 3.67017C6.46182 3.67017 6.41182 3.71018 6.39182 3.73018C6.18182 3.95018 6.04182 4.21018 6.02182 4.52018C6.01182 4.69018 6.02181 4.85017 6.08181 5.01017C6.10181 5.01017 6.12182 5.00018 6.14182 5.00018C6.37182 4.97018 6.61182 4.93017 6.84182 4.89017C6.84182 4.72017 6.88182 4.57018 6.95182 4.43018C7.07182 4.17018 7.21181 3.94017 7.42181 3.76017C7.39181 3.74017 7.36181 3.73018 7.33181 3.73018H7.32182ZM9.02182 6.25018C8.65182 6.18018 8.28182 6.09018 7.93182 5.97018C7.96182 6.13018 7.99182 6.29018 8.02182 6.45018C8.12182 6.45018 8.21182 6.45017 8.30182 6.44017C8.61182 6.44017 8.92182 6.39018 9.23182 6.36018C9.26182 6.36018 9.29181 6.35018 9.31181 6.34018V6.32018C9.21181 6.29018 9.12182 6.27018 9.02182 6.25018Z" fill="#BF2231"/>
<path id="Vector_8" d="M9.0419 9.19994C9.0219 9.42994 8.9919 9.65993 8.9719 9.89993C8.9419 10.1799 8.9119 10.4599 8.8819 10.7399C8.8719 10.8399 8.8619 10.9299 8.8519 11.0299V11.0499C8.8319 11.1999 8.8219 11.3399 8.8019 11.4899C8.7819 11.6899 8.7719 11.8799 8.7519 12.0799C8.7319 12.3199 8.7219 12.5599 8.7019 12.7999C8.6819 13.0999 8.6619 13.3999 8.6419 13.6999C8.6219 13.9999 8.6119 14.2999 8.5819 14.5999C8.5519 14.8099 8.5219 15.0099 8.4819 15.2099C8.4719 15.2399 8.4719 15.2799 8.4619 15.3099C8.4319 15.4499 8.3619 15.5799 8.2019 15.6199C8.0219 15.6699 7.8519 15.5899 7.8019 15.4099C7.8019 15.4099 7.79857 15.4033 7.7919 15.3899C7.7219 15.1699 7.7619 14.9399 7.8019 14.7199C7.8019 14.7099 7.8019 14.6899 7.8119 14.6799C7.8419 14.4199 7.8819 14.1799 7.9119 13.9199C7.9419 13.6699 7.9619 13.4199 7.9819 13.1699C8.0119 12.9099 8.0319 12.6399 8.0519 12.3799C8.0819 12.1199 8.1019 11.8499 8.1319 11.5799C8.1419 11.4299 8.1519 11.2699 8.1719 11.1199C8.1819 11.0099 8.1919 10.8999 8.2019 10.7999C8.2219 10.5499 8.2419 10.2999 8.2619 10.0399C8.2919 9.82994 8.3119 9.60993 8.3419 9.39993C8.3619 9.23993 8.3919 9.08993 8.4319 8.92993C8.4419 8.89993 8.4519 8.86993 8.4619 8.84993V8.82993C8.4619 8.82993 8.4819 8.79994 8.4919 8.78994C8.5019 8.76994 8.5219 8.75993 8.5319 8.74993C8.5719 8.70993 8.6319 8.70993 8.7119 8.72993C8.7319 8.72993 8.7619 8.72993 8.7919 8.73993C8.9219 8.76993 8.9919 8.86993 9.0219 8.99993C9.0319 9.05993 9.0419 9.12994 9.0419 9.19994Z" fill="#BF2231"/>
<path id="Vector_9" d="M10.0218 13.3902C10.0218 13.7702 10.0218 14.1502 9.99181 14.5302C9.98181 14.7102 9.94182 14.9002 9.87182 15.0702C9.78182 15.3202 9.48182 15.3402 9.32182 15.1202C9.21182 14.9502 9.19182 14.7502 9.18182 14.5502C9.17182 14.4002 9.17182 14.2502 9.18182 14.1002V14.0702C9.18182 14.0702 9.18181 14.0502 9.19181 14.0402C9.19181 14.0302 9.19182 14.0202 9.18182 14.0102C9.18182 13.9802 9.18181 13.9602 9.19181 13.9302C9.19181 13.8902 9.19182 13.8602 9.20182 13.8302C9.20182 13.7902 9.20182 13.7502 9.20182 13.7102C9.21182 13.5502 9.24182 13.3902 9.27182 13.2302C9.33182 12.8402 9.40182 12.4402 9.48182 12.0502C9.50182 11.9102 9.57182 11.7802 9.63182 11.6502C9.66182 11.5702 9.73182 11.5702 9.79182 11.6302C9.90182 11.7402 9.93182 11.8802 9.95182 12.0202C9.97182 12.2502 9.99182 12.4802 10.0018 12.7102C10.0018 12.9302 10.0018 13.1602 10.0018 13.3902H10.0218Z" fill="#BF2231"/>
<path id="Vector_10" d="M12.1318 4.46024C12.0218 4.63024 11.7518 4.73024 11.5718 4.66024C11.4418 4.61024 11.3418 4.49024 11.3418 4.37024C11.3718 4.13024 11.4818 4.01023 11.7218 3.99023C11.7918 3.99023 11.8618 4.00023 11.9418 4.01023C12.1718 4.05023 12.2118 4.32024 12.1318 4.46024Z" fill="#BF2231"/>
<path id="Vector_11" d="M10.7419 4.29019C10.7419 4.39019 10.6719 4.47019 10.5919 4.52019C10.4919 4.58019 10.3919 4.62019 10.2719 4.61019C10.1219 4.61019 10.0319 4.55019 9.98188 4.39019C9.93188 4.25019 9.96188 4.13019 10.0819 4.04019C10.2219 3.93019 10.3819 3.92019 10.5419 3.99019C10.6719 4.04019 10.7319 4.15019 10.7419 4.29019Z" fill="#BF2231"/>
<path id="Vector_12" d="M9.2718 4.27041C9.1818 4.41041 9.0818 4.53041 8.9118 4.54041C8.8718 4.54041 8.8318 4.54041 8.8018 4.52041C8.6618 4.50041 8.5518 4.43041 8.4718 4.29041C8.4118 4.19041 8.4318 4.10041 8.5218 4.04041C8.5218 4.03041 8.5318 4.02041 8.5418 4.02041C8.6418 3.97041 8.75179 3.94041 8.81179 3.92041C9.00179 3.94041 9.14179 3.97041 9.24179 4.07041C9.29179 4.13041 9.3118 4.20041 9.2718 4.27041Z" fill="#BF2231"/>
</g>
</g>
</g>
</svg>
