<svg width="14" height="15" viewBox="0 0 14 15" fill="none" xmlns="http://www.w3.org/2000/svg">
<g id="Group">
<path id="Vector" d="M11.12 14.9372H2.12003C1.38003 14.9372 0.780029 14.3372 0.780029 13.5972V8.99723C0.780029 8.25723 1.38003 7.65723 2.12003 7.65723H11.12C11.86 7.65723 12.46 8.25723 12.46 8.99723V13.5972C12.46 14.3372 11.86 14.9372 11.12 14.9372ZM2.12003 8.25723C1.71003 8.25723 1.38003 8.58723 1.38003 8.99723V13.5972C1.38003 14.0072 1.71003 14.3372 2.12003 14.3372H11.12C11.53 14.3372 11.86 14.0072 11.86 13.5972V8.99723C11.86 8.58723 11.53 8.25723 11.12 8.25723H2.12003Z" fill="black"/>
<path id="Vector_2" d="M12.11 8.25725H1.13C0.51 8.25725 0 7.74725 0 7.12725V5.05725C0 4.43725 0.51 3.92725 1.13 3.92725H12.11C12.73 3.92725 13.24 4.43725 13.24 5.05725V7.12725C13.24 7.74725 12.73 8.25725 12.11 8.25725ZM1.13 4.52724C0.84 4.52724 0.6 4.76725 0.6 5.05725V7.12725C0.6 7.41725 0.84 7.65725 1.13 7.65725H12.11C12.4 7.65725 12.64 7.41725 12.64 7.12725V5.05725C12.64 4.76725 12.4 4.52724 12.11 4.52724H1.13Z" fill="black"/>
<path id="Vector_3" d="M7.05001 4.2271H6.64001C3.64001 4.2271 2.54001 3.3571 2.15001 2.6271C1.83001 2.0371 1.87001 1.3071 2.26001 0.717097C2.60001 0.197097 3.22001 -0.0729038 3.87001 0.0170962C4.60001 0.117096 5.96001 0.757096 6.93001 3.8371L7.05001 4.2271ZM3.62001 0.597094C3.27001 0.597094 2.95001 0.757095 2.76001 1.04709C2.66001 1.19709 2.36001 1.7471 2.68001 2.3371C2.93001 2.7971 3.71001 3.54709 6.23001 3.61709C5.35001 1.09709 4.24001 0.667096 3.79001 0.607096C3.73001 0.607096 3.68001 0.597094 3.62001 0.597094Z" fill="black"/>
<path id="Vector_4" d="M6.63998 4.2271H6.22998L6.34998 3.8371C7.31998 0.747096 8.67998 0.117096 9.40998 0.0170962C10.06 -0.0729038 10.68 0.197097 11.02 0.717097C11.41 1.3071 11.45 2.0371 11.13 2.6271C10.73 3.3571 9.63998 4.2271 6.63998 4.2271ZM9.65998 0.597094C9.60998 0.597094 9.54998 0.597096 9.48998 0.607096C9.03998 0.667096 7.92998 1.09709 7.04998 3.61709C9.55998 3.53709 10.35 2.7871 10.6 2.3371C10.92 1.7371 10.62 1.19709 10.52 1.04709C10.33 0.767095 10.01 0.597094 9.65998 0.597094Z" fill="black"/>
<path id="Vector_5" d="M6.92007 3.59717H6.32007V14.6372H6.92007V3.59717Z" fill="black"/>
</g>
</svg>
