<svg width="20" height="12" viewBox="0 0 20 12" fill="none" xmlns="http://www.w3.org/2000/svg">
<g id="Group">
<path id="Vector" d="M17.0352 7.95519C17.7552 7.95519 18.4152 7.97519 19.0852 7.95519C19.6152 7.93519 19.7852 8.15519 19.8152 8.67519C19.9052 10.4552 19.9152 10.4552 18.2652 10.7152C18.1185 11.5419 17.5918 11.9552 16.6852 11.9552C12.1252 11.9552 7.56515 11.9552 3.00515 11.9552C2.15182 11.9552 1.67515 11.5552 1.57515 10.7552C1.57515 10.7552 1.48515 10.6752 1.43515 10.6652C0.975153 10.5652 0.175154 10.5752 0.115154 10.3752C-0.0648464 9.72519 0.00515438 8.99519 0.0651544 8.30519C0.0651544 8.17519 0.455153 8.00519 0.665153 7.98519C1.35515 7.94519 2.04515 7.96519 2.71515 7.96519C3.76515 3.41519 6.34515 1.15519 10.2652 1.29519C13.7552 1.41519 16.3652 3.95519 17.0352 7.96519V7.95519ZM3.67515 7.95519C5.00516 7.95519 6.33515 7.98519 7.66515 7.93519C7.96515 7.92519 8.33515 7.70519 8.53515 7.46519C9.31515 6.50519 10.5152 6.49519 11.2652 7.48519C11.4052 7.67519 11.6152 7.93519 11.8052 7.93519C13.2452 7.97519 14.6952 7.95519 16.1352 7.95519C15.9852 4.62519 13.1252 1.99519 9.80515 2.04519C6.55515 2.08519 3.74515 4.76519 3.67515 7.96519V7.95519ZM0.795154 9.84519C1.20515 9.84519 1.52515 9.84519 1.83515 9.84519C6.13516 9.84519 10.4252 9.84519 14.7252 9.85519C15.1252 9.85519 15.7252 9.54519 15.8352 10.2552C15.8352 10.3152 15.1352 10.5852 14.7652 10.5952C10.9352 10.6252 7.10515 10.6052 3.26516 10.6152C2.98516 10.6152 2.71515 10.7152 2.43515 10.7752C2.45515 10.8652 2.47515 10.9652 2.49515 11.0552H17.3852C16.9752 9.42519 18.2752 9.96519 18.9652 9.79519V8.81519H0.795154V9.84519Z" fill="black"/>
<path id="Vector_2" d="M4.21522 2.78533C3.99522 2.54533 3.76522 2.30533 3.77522 2.29533C4.13522 1.91533 4.51522 1.54533 4.92522 1.20533C4.94522 1.18533 5.18522 1.41533 5.32522 1.53533C4.97522 1.92533 4.63522 2.32533 4.22522 2.79533L4.21522 2.78533Z" fill="black"/>
<path id="Vector_3" d="M17.9151 4.4152C17.6851 4.6552 17.5551 4.7852 17.4351 4.9152C17.1351 4.5352 16.8151 4.1652 16.5451 3.7552C16.5051 3.7052 16.7352 3.4752 16.8352 3.3252C17.1752 3.6652 17.5151 4.0152 17.9151 4.4052V4.4152Z" fill="black"/>
<path id="Vector_4" d="M15.2551 1.33545C15.5551 1.66545 15.7851 1.89545 15.9751 2.16545C15.9951 2.19545 15.6151 2.56545 15.5951 2.54545C15.3351 2.34545 15.0951 2.12545 14.8951 1.86545C14.8651 1.82545 15.0851 1.58545 15.2651 1.33545H15.2551Z" fill="black"/>
<path id="Vector_5" d="M8.00512 0.365364C7.48512 0.625364 7.21512 0.815364 6.90512 0.885364C6.80512 0.905364 6.63512 0.625364 6.49512 0.475364C6.74512 0.315364 6.97512 0.0953644 7.24512 0.00536441C7.37512 -0.0346356 7.59512 0.155364 8.00512 0.365364Z" fill="black"/>
<path id="Vector_6" d="M3.28515 3.93531C2.99515 4.25531 2.76515 4.49531 2.54515 4.74531C2.40515 4.59531 2.13515 4.36531 2.16515 4.31531C2.32515 4.04531 2.54515 3.79531 2.78515 3.58531C2.81515 3.56531 3.05515 3.77531 3.28515 3.94531V3.93531Z" fill="black"/>
<path id="Vector_7" d="M18.0751 7.29537C17.9451 7.04537 17.7451 6.80537 17.7251 6.54537C17.7051 6.37537 17.9451 6.18537 18.0751 6.00537C18.2251 6.21537 18.4451 6.41537 18.5051 6.64537C18.5551 6.83537 18.3951 7.06537 18.3351 7.27537C18.2451 7.27537 18.1651 7.28537 18.0751 7.29537Z" fill="black"/>
<path id="Vector_8" d="M14.9151 6.24524C14.9151 6.24524 14.7251 6.38524 14.5851 6.35524C14.3951 6.30524 14.1651 6.17524 14.0651 6.00524C13.2851 4.71524 12.1651 3.92524 10.6951 3.64524C10.4451 3.59524 10.1651 3.63524 9.92515 3.55524C9.76515 3.50524 9.65515 3.31524 9.52515 3.18524C9.66515 3.05524 9.77515 2.85524 9.93515 2.81524C11.4251 2.47524 14.4951 4.35524 14.8451 5.80524C14.8551 5.86524 14.8651 5.91524 14.9251 6.23524L14.9151 6.24524Z" fill="black"/>
</g>
</svg>
