<svg width="24" height="24" viewBox="0 0 24 24" fill="none" xmlns="http://www.w3.org/2000/svg">
<g id="Hover=False" clip-path="url(#clip0_341_2779)">
<g id="Vector">
<path d="M16.2704 21.7745C16.0543 21.7618 15.8382 21.7491 15.6222 21.7236C14.9613 21.6346 14.364 21.7872 13.8174 22.1814C13.5505 22.3849 13.2582 22.5629 12.9659 22.7282C12.3304 23.0969 11.6696 23.0842 11.0341 22.7282C10.7545 22.5756 10.4876 22.3976 10.2334 22.2068C9.67418 21.7745 9.05142 21.6474 8.3524 21.7236C7.99653 21.7618 7.64067 21.7745 7.28481 21.7491C6.71288 21.7236 6.25534 21.4566 5.93761 20.9861C5.74697 20.6937 5.55633 20.3758 5.42923 20.0452C5.14962 19.3585 4.67938 18.8754 3.98036 18.5956C3.64991 18.4557 3.34489 18.2777 3.03986 18.087C2.51878 17.7437 2.25188 17.235 2.25188 16.612C2.25188 16.2814 2.25188 15.9508 2.29001 15.6329C2.36626 14.9589 2.22646 14.3486 1.81976 13.8018C1.59099 13.4966 1.38764 13.166 1.20971 12.8227C0.930098 12.2887 0.930098 11.7292 1.20971 11.1951C1.38764 10.8518 1.59099 10.5212 1.81976 10.216C2.23917 9.65653 2.37897 9.04618 2.29001 8.35954C2.25188 8.02894 2.23917 7.69833 2.25188 7.38044C2.26459 6.78281 2.51878 6.2869 3.01444 5.94357C3.30676 5.74013 3.62449 5.56211 3.94223 5.42224C4.65396 5.12978 5.13692 4.64658 5.42923 3.93451C5.55633 3.62933 5.73426 3.32416 5.91219 3.04442C6.25534 2.52308 6.75101 2.25605 7.38648 2.24333C7.71693 2.24333 8.04737 2.24333 8.36511 2.28148C9.03871 2.35777 9.64876 2.23062 10.1953 1.82372C10.5003 1.59484 10.818 1.4041 11.1485 1.22608C11.7331 0.908193 12.3304 0.933624 12.9024 1.25151C13.2201 1.41682 13.5124 1.62027 13.8047 1.82372C14.3512 2.23062 14.9613 2.37049 15.6349 2.29419C15.9653 2.25605 16.3085 2.24333 16.6516 2.25605C17.249 2.26876 17.7447 2.52308 18.0751 3.0317C18.2912 3.36231 18.4818 3.73106 18.647 4.09981C18.9139 4.69744 19.3333 5.11706 19.9307 5.37137C20.2865 5.52396 20.6297 5.70198 20.9474 5.91814C21.4812 6.26147 21.7481 6.77009 21.7608 7.40587C21.7608 7.71105 21.7608 8.02894 21.7227 8.33411C21.621 9.04618 21.7735 9.68196 22.2184 10.2669C22.4344 10.5593 22.6251 10.8772 22.7903 11.1951C23.0699 11.7292 23.0699 12.2887 22.7903 12.8227C22.6124 13.166 22.409 13.4966 22.1802 13.8018C21.7608 14.3613 21.621 14.9717 21.71 15.6583C21.7481 15.9889 21.7481 16.3195 21.7481 16.6374C21.7354 17.2478 21.4685 17.7564 20.9601 18.087C20.6424 18.3031 20.2992 18.4812 19.9434 18.6338C19.3079 18.9008 18.8758 19.3458 18.6089 19.9689C18.5326 20.1596 18.431 20.3376 18.342 20.5284C17.9099 21.4058 17.2363 21.8635 16.2322 21.7745H16.2704ZM16.2704 20.9734C16.9567 21.0624 17.4015 20.7445 17.6811 20.1342C17.7701 19.9435 17.8718 19.74 17.9607 19.5493C18.2912 18.7991 18.825 18.265 19.5748 17.9344C19.8925 17.7945 20.1976 17.6292 20.5026 17.4512C20.833 17.2478 20.9983 16.9426 20.9983 16.5611C20.9983 16.2559 20.9983 15.9635 20.9601 15.6583C20.8712 14.8318 21.0364 14.0689 21.5321 13.3949C21.7354 13.1279 21.9133 12.8354 22.0786 12.543C22.2946 12.1869 22.2946 11.8055 22.0786 11.4494C21.9133 11.157 21.7227 10.8772 21.5321 10.5975C21.1254 10.0253 20.8966 9.40222 20.9347 8.70286C20.9601 8.29596 20.9856 7.87635 20.9983 7.46945C21.011 7.04983 20.833 6.71923 20.4645 6.51578C20.1849 6.35047 19.9053 6.2106 19.6129 6.08345C18.8504 5.75284 18.2912 5.20607 17.9607 4.43042C17.8336 4.12524 17.6684 3.83278 17.5159 3.55304C17.3125 3.197 16.9948 3.01898 16.5754 3.0317C16.2831 3.0317 15.9908 3.0317 15.6984 3.06985C14.8596 3.17157 14.0971 2.99355 13.4107 2.48493C13.1693 2.30691 12.9151 2.14161 12.6609 1.98902C12.2542 1.73471 11.8221 1.72199 11.4154 1.98902C11.1485 2.15432 10.8943 2.31963 10.6401 2.49764C9.95378 3.00627 9.19122 3.17157 8.3524 3.06985C8.07279 3.0317 7.79318 3.0317 7.51358 3.0317C7.08146 3.01898 6.75101 3.20972 6.53495 3.57847C6.38244 3.8455 6.24263 4.12524 6.11554 4.40499C5.77239 5.18064 5.22588 5.74013 4.45061 6.08345C4.171 6.2106 3.89139 6.35047 3.62449 6.50306C3.25592 6.71923 3.05257 7.04983 3.07799 7.48216C3.07799 7.77462 3.07799 8.06708 3.11612 8.35954C3.20508 9.18606 3.03986 9.94899 2.53148 10.6229C2.36626 10.8518 2.21375 11.0934 2.06124 11.3223C1.76892 11.78 1.75621 12.2378 2.06124 12.6956C2.21375 12.9372 2.37897 13.1788 2.54419 13.4204C2.93819 13.9798 3.16696 14.5902 3.12883 15.2895C3.10341 15.7092 3.07799 16.1288 3.06528 16.5611C3.06528 16.968 3.2305 17.2859 3.58637 17.5021C3.87868 17.6674 4.18371 17.8327 4.48874 17.9598C5.23859 18.3031 5.77239 18.8499 6.11554 19.6001C6.24263 19.8926 6.39515 20.1723 6.54766 20.4521C6.75101 20.8208 7.08146 20.9989 7.50087 20.9861C7.78047 20.9861 8.07279 20.9861 8.33969 20.948C9.22935 20.8208 10.0173 21.037 10.7291 21.5838C10.9578 21.7618 11.212 21.9144 11.4662 22.0543C11.8602 22.2831 12.2542 22.2704 12.6482 22.0415C12.9278 21.8762 13.182 21.6982 13.4489 21.5202C14.0081 21.126 14.6181 20.8971 15.3172 20.9353C15.6476 20.948 15.978 20.9734 16.2958 20.9989L16.2704 20.9734Z" fill="#040000"/>
<path d="M14.7959 9.90546C15.1239 9.99918 15.4363 10.0617 15.7175 10.2022C16.2954 10.5146 16.6078 11.0301 16.639 11.6861C16.6546 12.3734 16.639 13.0763 16.639 13.7636C16.6234 15.4974 15.327 16.7938 13.5932 16.8251C12.7965 16.8251 11.9999 16.8251 11.2033 16.8251C11.0627 16.8251 10.9065 16.9344 10.766 16.9969C10.6098 17.0594 10.4536 17.1687 10.2974 17.1687C9.29769 17.1687 8.31364 17.1687 7.31396 17.1687C6.90785 17.1687 6.72041 16.9813 6.72041 16.5751C6.72041 14.3415 6.72041 12.0922 6.72041 9.8586C6.72041 9.43686 6.89223 9.26504 7.29835 9.26504C8.29802 9.26504 9.28207 9.26504 10.2817 9.26504C10.5004 9.26504 10.7035 9.40562 11.0159 9.53058C11.6875 9.10884 12.3592 8.53091 12.7497 7.6562C13.0308 7.01578 13.5151 6.70339 14.093 6.7971C14.7022 6.90644 15.1239 7.39066 15.1864 8.04669C15.2645 8.70273 15.1083 9.32752 14.8115 9.88984L14.7959 9.90546ZM10.8909 15.8098C11.9531 15.8098 12.9684 15.8722 13.9836 15.7941C14.9208 15.716 15.6394 14.857 15.6706 13.9354C15.6862 13.2012 15.6706 12.4827 15.6706 11.7486C15.6706 11.2644 15.3426 10.952 14.8584 10.9364C14.4991 10.9364 14.1398 10.9364 13.7806 10.9364C13.5151 10.9364 13.312 10.8426 13.2183 10.5771C13.1246 10.3272 13.2808 10.1866 13.4526 10.0304C13.9836 9.53058 14.3117 8.92141 14.2023 8.15603C14.1867 8.03107 14.0305 7.90612 13.9524 7.78116C13.8587 7.87488 13.7025 7.93735 13.6556 8.06231C13.2339 9.01513 12.5622 9.7805 11.6719 10.2647C11.0003 10.6396 10.8441 11.0769 10.8753 11.7955C10.9378 13.1388 10.8909 14.4665 10.8909 15.8254V15.8098ZM9.89124 16.2159V10.2803H7.72008V16.2159H9.89124Z" fill="#040000"/>
<path d="M16.2704 21.7745C16.0543 21.7618 15.8382 21.7491 15.6222 21.7236C14.9613 21.6346 14.364 21.7872 13.8174 22.1814C13.5505 22.3849 13.2582 22.5629 12.9659 22.7282C12.3304 23.0969 11.6696 23.0842 11.0341 22.7282C10.7545 22.5756 10.4876 22.3976 10.2334 22.2068C9.67418 21.7745 9.05142 21.6474 8.3524 21.7236C7.99653 21.7618 7.64067 21.7745 7.28481 21.7491C6.71288 21.7236 6.25534 21.4566 5.93761 20.9861C5.74697 20.6937 5.55633 20.3758 5.42923 20.0452C5.14962 19.3585 4.67938 18.8754 3.98036 18.5956C3.64991 18.4557 3.34489 18.2777 3.03986 18.087C2.51878 17.7437 2.25188 17.235 2.25188 16.612C2.25188 16.2814 2.25188 15.9508 2.29001 15.6329C2.36626 14.9589 2.22646 14.3486 1.81976 13.8018C1.59099 13.4966 1.38764 13.166 1.20971 12.8227C0.930098 12.2887 0.930098 11.7292 1.20971 11.1951C1.38764 10.8518 1.59099 10.5212 1.81976 10.216C2.23917 9.65653 2.37897 9.04618 2.29001 8.35954C2.25188 8.02894 2.23917 7.69833 2.25188 7.38044C2.26459 6.78281 2.51878 6.2869 3.01444 5.94357C3.30676 5.74013 3.62449 5.56211 3.94223 5.42224C4.65396 5.12978 5.13692 4.64658 5.42923 3.93451C5.55633 3.62933 5.73426 3.32416 5.91219 3.04442C6.25534 2.52308 6.75101 2.25605 7.38648 2.24333C7.71693 2.24333 8.04737 2.24333 8.36511 2.28148C9.03871 2.35777 9.64876 2.23062 10.1953 1.82372C10.5003 1.59484 10.818 1.4041 11.1485 1.22608C11.7331 0.908193 12.3304 0.933624 12.9024 1.25151C13.2201 1.41682 13.5124 1.62027 13.8047 1.82372C14.3512 2.23062 14.9613 2.37049 15.6349 2.29419C15.9653 2.25605 16.3085 2.24333 16.6516 2.25605C17.249 2.26876 17.7447 2.52308 18.0751 3.0317C18.2912 3.36231 18.4818 3.73106 18.647 4.09981C18.9139 4.69744 19.3333 5.11706 19.9307 5.37137C20.2865 5.52396 20.6297 5.70198 20.9474 5.91814C21.4812 6.26147 21.7481 6.77009 21.7608 7.40587C21.7608 7.71105 21.7608 8.02894 21.7227 8.33411C21.621 9.04618 21.7735 9.68196 22.2184 10.2669C22.4344 10.5593 22.6251 10.8772 22.7903 11.1951C23.0699 11.7292 23.0699 12.2887 22.7903 12.8227C22.6124 13.166 22.409 13.4966 22.1802 13.8018C21.7608 14.3613 21.621 14.9717 21.71 15.6583C21.7481 15.9889 21.7481 16.3195 21.7481 16.6374C21.7354 17.2478 21.4685 17.7564 20.9601 18.087C20.6424 18.3031 20.2992 18.4812 19.9434 18.6338C19.3079 18.9008 18.8758 19.3458 18.6089 19.9689C18.5326 20.1596 18.431 20.3376 18.342 20.5284C17.9099 21.4058 17.2363 21.8635 16.2322 21.7745H16.2704ZM16.2704 20.9734C16.9567 21.0624 17.4015 20.7445 17.6811 20.1342C17.7701 19.9435 17.8718 19.74 17.9607 19.5493C18.2912 18.7991 18.825 18.265 19.5748 17.9344C19.8925 17.7945 20.1976 17.6292 20.5026 17.4512C20.833 17.2478 20.9983 16.9426 20.9983 16.5611C20.9983 16.2559 20.9983 15.9635 20.9601 15.6583C20.8712 14.8318 21.0364 14.0689 21.5321 13.3949C21.7354 13.1279 21.9133 12.8354 22.0786 12.543C22.2946 12.1869 22.2946 11.8055 22.0786 11.4494C21.9133 11.157 21.7227 10.8772 21.5321 10.5975C21.1254 10.0253 20.8966 9.40222 20.9347 8.70286C20.9601 8.29596 20.9856 7.87635 20.9983 7.46945C21.011 7.04983 20.833 6.71923 20.4645 6.51578C20.1849 6.35047 19.9053 6.2106 19.6129 6.08345C18.8504 5.75284 18.2912 5.20607 17.9607 4.43042C17.8336 4.12524 17.6684 3.83278 17.5159 3.55304C17.3125 3.197 16.9948 3.01898 16.5754 3.0317C16.2831 3.0317 15.9908 3.0317 15.6984 3.06985C14.8596 3.17157 14.0971 2.99355 13.4107 2.48493C13.1693 2.30691 12.9151 2.14161 12.6609 1.98902C12.2542 1.73471 11.8221 1.72199 11.4154 1.98902C11.1485 2.15432 10.8943 2.31963 10.6401 2.49764C9.95378 3.00627 9.19122 3.17157 8.3524 3.06985C8.07279 3.0317 7.79318 3.0317 7.51358 3.0317C7.08146 3.01898 6.75101 3.20972 6.53495 3.57847C6.38244 3.8455 6.24263 4.12524 6.11554 4.40499C5.77239 5.18064 5.22588 5.74013 4.45061 6.08345C4.171 6.2106 3.89139 6.35047 3.62449 6.50306C3.25592 6.71923 3.05257 7.04983 3.07799 7.48216C3.07799 7.77462 3.07799 8.06708 3.11612 8.35954C3.20508 9.18606 3.03986 9.94899 2.53148 10.6229C2.36626 10.8518 2.21375 11.0934 2.06124 11.3223C1.76892 11.78 1.75621 12.2378 2.06124 12.6956C2.21375 12.9372 2.37897 13.1788 2.54419 13.4204C2.93819 13.9798 3.16696 14.5902 3.12883 15.2895C3.10341 15.7092 3.07799 16.1288 3.06528 16.5611C3.06528 16.968 3.2305 17.2859 3.58637 17.5021C3.87868 17.6674 4.18371 17.8327 4.48874 17.9598C5.23859 18.3031 5.77239 18.8499 6.11554 19.6001C6.24263 19.8926 6.39515 20.1723 6.54766 20.4521C6.75101 20.8208 7.08146 20.9989 7.50087 20.9861C7.78047 20.9861 8.07279 20.9861 8.33969 20.948C9.22935 20.8208 10.0173 21.037 10.7291 21.5838C10.9578 21.7618 11.212 21.9144 11.4662 22.0543C11.8602 22.2831 12.2542 22.2704 12.6482 22.0415C12.9278 21.8762 13.182 21.6982 13.4489 21.5202C14.0081 21.126 14.6181 20.8971 15.3172 20.9353C15.6476 20.948 15.978 20.9734 16.2958 20.9989L16.2704 20.9734Z" stroke="#040000" stroke-width="0.2"/>
<path d="M14.7959 9.90546C15.1239 9.99918 15.4363 10.0617 15.7175 10.2022C16.2954 10.5146 16.6078 11.0301 16.639 11.6861C16.6546 12.3734 16.639 13.0763 16.639 13.7636C16.6234 15.4974 15.327 16.7938 13.5932 16.8251C12.7965 16.8251 11.9999 16.8251 11.2033 16.8251C11.0627 16.8251 10.9065 16.9344 10.766 16.9969C10.6098 17.0594 10.4536 17.1687 10.2974 17.1687C9.29769 17.1687 8.31364 17.1687 7.31396 17.1687C6.90785 17.1687 6.72041 16.9813 6.72041 16.5751C6.72041 14.3415 6.72041 12.0922 6.72041 9.8586C6.72041 9.43686 6.89223 9.26504 7.29835 9.26504C8.29802 9.26504 9.28207 9.26504 10.2817 9.26504C10.5004 9.26504 10.7035 9.40562 11.0159 9.53058C11.6875 9.10884 12.3592 8.53091 12.7497 7.6562C13.0308 7.01578 13.5151 6.70339 14.093 6.7971C14.7022 6.90644 15.1239 7.39066 15.1864 8.04669C15.2645 8.70273 15.1083 9.32752 14.8115 9.88984L14.7959 9.90546ZM10.8909 15.8098C11.9531 15.8098 12.9684 15.8722 13.9836 15.7941C14.9208 15.716 15.6394 14.857 15.6706 13.9354C15.6862 13.2012 15.6706 12.4827 15.6706 11.7486C15.6706 11.2644 15.3426 10.952 14.8584 10.9364C14.4991 10.9364 14.1398 10.9364 13.7806 10.9364C13.5151 10.9364 13.312 10.8426 13.2183 10.5771C13.1246 10.3272 13.2808 10.1866 13.4526 10.0304C13.9836 9.53058 14.3117 8.92141 14.2023 8.15603C14.1867 8.03107 14.0305 7.90612 13.9524 7.78116C13.8587 7.87488 13.7025 7.93735 13.6556 8.06231C13.2339 9.01513 12.5622 9.7805 11.6719 10.2647C11.0003 10.6396 10.8441 11.0769 10.8753 11.7955C10.9378 13.1388 10.8909 14.4665 10.8909 15.8254V15.8098ZM9.89124 16.2159V10.2803H7.72008V16.2159H9.89124Z" stroke="#040000" stroke-width="0.2"/>
</g>
</g>
<defs>
<clipPath id="clip0_341_2779">
<rect width="24" height="24" fill="white"/>
</clipPath>
</defs>
</svg>
