<svg width="24" height="24" viewBox="0 0 24 24" fill="none" xmlns="http://www.w3.org/2000/svg">
<g id="Hover=False">
<path id="Vector" d="M8.39896 10.22C8.15896 8.83 9.24896 7.69 10.419 8.06C9.82896 6.9 10.689 5.64 12.149 5.59C11.659 4.57 12.419 3.99 13.009 3.47C13.739 2.83 14.219 3.7 14.839 4C15.059 3.72 15.269 3.41 15.529 3.17C15.649 3.05 15.879 3.05 16.069 3C16.069 3.21 16.149 3.45 16.069 3.61C15.919 3.91 15.669 4.16 15.439 4.46C15.929 5.05 16.989 5.43 16.159 6.5C15.359 7.52 15.179 7.64 14.199 7.26C14.779 7.89 14.679 8.41 14.229 8.93999C13.799 9.45 13.449 10.06 12.619 9.7C12.529 9.91 12.489 10.23 12.339 10.3C12.209 10.37 11.929 10.18 11.739 10.07C11.539 9.95 11.369 9.78 11.179 9.63C10.989 9.49 10.809 9.35 10.509 9.13C10.539 9.97 10.309 10.74 11.039 11.34C11.149 11.43 11.129 11.69 11.169 11.87H10.409C10.409 11.97 10.379 12.19 10.359 12.41C10.149 12.36 9.89896 12.37 9.72896 12.26C9.35896 12.02 9.02896 11.73 8.49896 11.31C8.68896 12.29 8.83896 13.05 9.00896 13.91C9.94896 13.43 10.459 12.35 11.649 13.2C11.109 11.96 11.969 11.54 12.619 11.13C12.979 10.9 13.529 10.99 13.989 10.94C13.509 10.14 14.299 9.73 14.889 9.21C15.369 8.79 15.859 8.71 16.389 9.13C16.299 8.09 16.669 7.44 17.669 6.98C18.619 6.53 18.939 7.41999 19.509 7.93999C19.829 7.68999 20.139 7.41 20.489 7.2C20.629 7.12 20.859 7.18999 21.039 7.18999C20.999 7.36999 21.019 7.61 20.909 7.73C20.649 8.02 20.319 8.24999 20.089 8.43999C20.329 9.02999 20.629 9.55 20.729 10.1C20.769 10.32 20.399 10.66 20.159 10.88C19.169 11.74 18.939 11.75 18.209 11.13C18.209 11.53 18.349 12.05 18.169 12.41C17.979 12.8 17.519 13.08 17.139 13.35C16.509 13.81 16.029 13.45 15.469 12.75C16.119 14.18 15.999 14.47 14.749 15.33C13.989 15.85 13.539 15.38 13.119 14.87C13.219 15.32 13.509 15.87 13.359 16.25C13.199 16.69 12.679 17.03 12.269 17.33C11.679 17.76 11.449 17.64 10.299 16.46C10.009 16.69 9.70896 16.93 9.35896 17.21C10.009 17.77 9.71896 18.14 9.19896 18.53C8.25896 19.25 7.34896 20.01 6.44896 20.78C5.88896 21.26 5.29896 21.58 4.59896 21.12C3.91896 20.67 3.89896 20.01 4.21896 19.33C2.85896 18.79 2.64896 18.03 3.52896 16.91C4.19896 16.06 4.87896 15.22 5.53896 14.37C5.89896 13.91 6.21896 13.4 6.82896 14.12C7.07896 13.81 7.27896 13.57 7.48896 13.3C7.09896 12.75 6.10896 12.46 6.57896 11.59C6.94896 10.9 7.35896 10.1 8.39896 10.24V10.22ZM8.20896 16.94C7.10896 17.84 6.05896 18.67 5.04896 19.55C4.87896 19.7 4.91896 20.08 4.85896 20.36C5.13896 20.38 5.50896 20.53 5.67896 20.41C6.77896 19.57 7.83896 18.68 8.91896 17.79C8.65896 17.48 8.46896 17.25 8.20896 16.94ZM9.77896 15.91C9.44896 15.3 9.15896 14.76 8.79896 14.1C8.66896 14.04 8.35896 13.89 8.03896 13.74C7.82896 14.01 7.63896 14.26 7.41896 14.55C8.04896 14.95 7.92896 15.35 7.49896 15.82C6.99896 16.37 6.56896 16.98 6.09896 17.57C6.59896 17.32 7.04896 17.01 7.42896 16.63C7.93896 16.14 8.40896 15.85 8.93896 16.58C9.24896 16.33 9.51896 16.11 9.76896 15.91H9.77896ZM6.26896 14.59C5.45896 15.61 4.65896 16.58 3.90896 17.59C3.77896 17.76 3.87896 18.09 3.87896 18.35C4.12896 18.31 4.49896 18.36 4.62896 18.22C5.45896 17.25 6.23896 16.24 7.04896 15.21C6.75896 14.98 6.52896 14.8 6.26896 14.59ZM13.129 9.11C13.399 8.76 13.659 8.44 13.949 8.06C13.429 7.65 12.949 7.27 12.349 6.8C12.409 7.73 12.069 8.59 13.129 9.11ZM14.989 6.78C15.269 6.42 15.519 6.1 15.799 5.74C15.229 5.28 14.729 4.89 14.059 4.35C14.359 5.3 13.859 6.27 14.989 6.78ZM11.419 14.18C11.439 15.04 10.609 15.99 11.649 16.69C11.159 15.95 11.629 15.52 12.199 15.13C11.909 14.77 11.659 14.47 11.419 14.18ZM18.719 8.14C18.5056 9.54667 18.6423 10.4267 19.129 10.78C18.489 9.94 19.019 9.52 19.509 9.1C19.229 8.76 18.989 8.46 18.709 8.13L18.719 8.14ZM16.219 10.07C16.099 11.5633 16.139 12.3833 16.339 12.53C16.499 12.08 16.679 11.56 16.909 10.91C16.809 10.79 16.569 10.49 16.229 10.07H16.219ZM14.649 13.15C14.379 12.81 14.139 12.52 13.869 12.19C13.5556 13.4567 13.6756 14.3567 14.229 14.89C13.729 14.05 13.959 13.54 14.649 13.15ZM15.349 10.02L15.119 9.95C14.949 10.1 14.779 10.26 14.569 10.45C14.799 10.74 14.999 11 15.339 11.44V10.02H15.349ZM12.889 11.86C12.029 12.47 12.049 12.58 12.889 13.19V11.86ZM10.329 15.24C10.389 15.22 10.449 15.2 10.519 15.18C10.499 14.78 10.469 14.38 10.439 13.76C10.059 14.1 9.89896 14.25 9.69896 14.43C9.93896 14.72 10.139 14.98 10.339 15.23L10.329 15.24ZM17.629 9.21C17.709 9.19 17.789 9.17 17.869 9.15C17.839 8.76 17.809 8.37 17.759 7.78C17.399 8.11 17.239 8.26 17.029 8.45C17.259 8.73 17.449 8.97 17.639 9.21H17.629Z" fill="black"/>
</g>
</svg>
