<svg width="24" height="24" viewBox="0 0 24 24" fill="none" xmlns="http://www.w3.org/2000/svg">
<g id="hover=True">
<g id="Vector">
<path d="M2.69291 14.155C3.22565 14.5497 3.77417 14.9444 3.93596 15.3391C4.09776 15.7338 4.00305 16.4521 3.90439 17.127C3.75444 18.1216 3.60054 19.1518 4.22404 19.7754C4.84753 20.399 5.87749 20.2451 6.87193 20.0951C7.54673 19.9964 8.24126 19.8898 8.65955 20.0635C9.07785 20.2372 9.44879 20.7739 9.84341 21.3068C10.4511 22.1396 11.0825 23 12.002 23C12.9214 23 13.5528 22.1396 14.1605 21.3068C14.5552 20.7739 14.9498 20.2253 15.3444 20.0635C15.739 19.9017 16.4572 19.9964 17.132 20.0951C18.1265 20.2451 19.1564 20.399 19.7799 19.7754C20.4034 19.1518 20.2495 18.1216 20.0996 17.127C19.997 16.4521 19.8943 15.7574 20.068 15.3391C20.2416 14.9207 20.7783 14.5497 21.311 14.155C22.1437 13.5472 23 12.9157 23 11.9961C23 11.0764 22.1397 10.4449 21.311 9.8371C20.7783 9.44241 20.2298 9.04772 20.068 8.65303C19.9062 8.25834 20.0009 7.54001 20.0996 6.86509C20.2495 5.87047 20.4034 4.84033 19.7799 4.21672C19.1564 3.59311 18.1265 3.74704 17.132 3.89702C16.4572 3.99569 15.7627 4.10226 15.3444 3.9286C14.9261 3.75493 14.5552 3.21816 14.1605 2.68532C13.5449 1.86042 12.9175 1 11.9941 1C11.0707 1 10.4432 1.86042 9.83552 2.69322C9.4409 3.22605 9.04628 3.77467 8.65166 3.93649C8.25704 4.09831 7.53883 4.00359 6.86404 3.90492C5.8696 3.75493 4.83964 3.601 4.21614 4.22461C3.59265 4.84822 3.74655 5.87836 3.8965 6.87298C3.9991 7.5479 4.1017 8.24255 3.92807 8.66092C3.75444 9.0793 3.21776 9.4503 2.68502 9.84499C1.86027 10.4449 1 11.0725 1 11.9961C1 12.9196 1.86027 13.5472 2.69291 14.155ZM3.15856 10.4726C3.77812 10.0187 4.4174 9.54898 4.66206 8.96089C4.90673 8.3728 4.79623 7.53606 4.66206 6.75457C4.52789 5.97309 4.4174 5.12056 4.76072 4.78113C5.10404 4.44169 5.94457 4.56405 6.73381 4.68245C7.52305 4.80086 8.31229 4.91927 8.93973 4.68245C9.56717 4.44564 10.021 3.77861 10.4709 3.15895C10.9207 2.53929 11.4732 1.78938 11.9941 1.78938C12.515 1.78938 13.024 2.48403 13.5173 3.15895C14.0106 3.83387 14.4407 4.41801 15.0287 4.66272C15.6167 4.90743 16.4533 4.79691 17.2346 4.66272C18.016 4.52853 18.8683 4.41801 19.2077 4.76139C19.5471 5.10477 19.4248 5.94546 19.3064 6.73484C19.188 7.52422 19.0696 8.3136 19.3064 8.94115C19.5431 9.56871 20.1903 10.0029 20.8099 10.4528C21.4294 10.9028 22.1792 11.4553 22.1792 11.9763C22.1792 12.4973 21.4847 13.0065 20.8099 13.4998C20.1351 13.9932 19.551 14.4234 19.3064 15.0115C19.0617 15.5996 19.1722 16.4363 19.3064 17.2178C19.4405 17.9993 19.551 18.8518 19.2077 19.1912C18.8644 19.5307 18.0239 19.4083 17.2346 19.2899C16.4454 19.1715 15.6561 19.0531 15.0287 19.2899C14.4013 19.5267 13.9672 20.2135 13.5173 20.8332C13.0674 21.4528 12.515 22.2027 11.9941 22.2027C11.4732 22.2027 10.9641 21.5081 10.4709 20.8332C9.97758 20.1582 9.54744 19.5741 8.95946 19.3294C8.66886 19.218 8.35896 19.1656 8.04789 19.1755C7.60983 19.1886 7.17329 19.2334 6.7417 19.3097C5.95247 19.432 5.10798 19.5544 4.76861 19.211C4.42924 18.8676 4.55157 18.0269 4.66995 17.2375C4.78834 16.4482 4.90673 15.6588 4.66995 15.0312C4.43318 14.4037 3.77812 13.9695 3.15856 13.5196C2.53901 13.0696 1.78924 12.517 1.78924 11.9961C1.78924 11.4751 2.48377 10.9659 3.15856 10.4726Z" fill="#BF2231"/>
<path d="M9.42917 11.996C9.79548 11.996 10.1468 11.8505 10.4058 11.5914C10.6648 11.3324 10.8103 10.981 10.8103 10.6146V9.43055C10.8103 9.06418 10.6648 8.71281 10.4058 8.45374C10.1468 8.19468 9.79548 8.04914 9.42917 8.04914C9.06286 8.04914 8.71156 8.19468 8.45254 8.45374C8.19352 8.71281 8.04801 9.06418 8.04801 9.43055V10.6146C8.04801 10.981 8.19352 11.3324 8.45254 11.5914C8.71156 11.8505 9.06286 11.996 9.42917 11.996ZM8.83724 9.43055C8.83724 9.27353 8.89961 9.12295 9.01062 9.01192C9.12162 8.90089 9.27218 8.83852 9.42917 8.83852C9.58616 8.83852 9.73672 8.90089 9.84773 9.01192C9.95874 9.12295 10.0211 9.27353 10.0211 9.43055V10.6146C10.0211 10.7716 9.95874 10.9222 9.84773 11.0333C9.73672 11.1443 9.58616 11.2067 9.42917 11.2067C9.27218 11.2067 9.12162 11.1443 9.01062 11.0333C8.89961 10.9222 8.83724 10.7716 8.83724 10.6146V9.43055Z" fill="#BF2231"/>
<path d="M14.5588 12.3907C14.1925 12.3907 13.8412 12.5362 13.5822 12.7953C13.3232 13.0543 13.1777 13.4057 13.1777 13.7721V14.9562C13.1777 15.3225 13.3232 15.6739 13.5822 15.933C13.8412 16.192 14.1925 16.3376 14.5588 16.3376C14.9252 16.3376 15.2765 16.192 15.5355 15.933C15.7945 15.6739 15.94 15.3225 15.94 14.9562V13.7721C15.94 13.4057 15.7945 13.0543 15.5355 12.7953C15.2765 12.5362 14.9252 12.3907 14.5588 12.3907ZM15.1508 14.9562C15.1508 15.1132 15.0884 15.2638 14.9774 15.3748C14.8664 15.4858 14.7158 15.5482 14.5588 15.5482C14.4019 15.5482 14.2513 15.4858 14.1403 15.3748C14.0293 15.2638 13.9669 15.1132 13.9669 14.9562V13.7721C13.9669 13.6151 14.0293 13.4645 14.1403 13.3535C14.2513 13.2424 14.4019 13.1801 14.5588 13.1801C14.7158 13.1801 14.8664 13.2424 14.9774 13.3535C15.0884 13.4645 15.1508 13.6151 15.1508 13.7721V14.9562Z" fill="#BF2231"/>
<path d="M9.20422 16.7324L15.6365 7.6545H14.6657L8.23741 16.7324H9.20422Z" fill="#BF2231"/>
<path d="M2.69291 14.155C3.22565 14.5497 3.77417 14.9444 3.93596 15.3391C4.09776 15.7338 4.00305 16.4521 3.90439 17.127C3.75444 18.1216 3.60054 19.1518 4.22404 19.7754C4.84753 20.399 5.87749 20.2451 6.87193 20.0951C7.54673 19.9964 8.24126 19.8898 8.65955 20.0635C9.07785 20.2372 9.44879 20.7739 9.84341 21.3068C10.4511 22.1396 11.0825 23 12.002 23C12.9214 23 13.5528 22.1396 14.1605 21.3068C14.5552 20.7739 14.9498 20.2253 15.3444 20.0635C15.739 19.9017 16.4572 19.9964 17.132 20.0951C18.1265 20.2451 19.1564 20.399 19.7799 19.7754C20.4034 19.1518 20.2495 18.1216 20.0996 17.127C19.997 16.4521 19.8943 15.7574 20.068 15.3391C20.2416 14.9207 20.7783 14.5497 21.311 14.155C22.1437 13.5472 23 12.9157 23 11.9961C23 11.0764 22.1397 10.4449 21.311 9.8371C20.7783 9.44241 20.2298 9.04772 20.068 8.65303C19.9062 8.25834 20.0009 7.54001 20.0996 6.86509C20.2495 5.87047 20.4034 4.84033 19.7799 4.21672C19.1564 3.59311 18.1265 3.74704 17.132 3.89702C16.4572 3.99569 15.7627 4.10226 15.3444 3.9286C14.9261 3.75493 14.5552 3.21816 14.1605 2.68532C13.5449 1.86042 12.9175 1 11.9941 1C11.0707 1 10.4432 1.86042 9.83552 2.69322C9.4409 3.22605 9.04628 3.77467 8.65166 3.93649C8.25704 4.09831 7.53883 4.00359 6.86404 3.90492C5.8696 3.75493 4.83964 3.601 4.21614 4.22461C3.59265 4.84822 3.74655 5.87836 3.8965 6.87298C3.9991 7.5479 4.1017 8.24255 3.92807 8.66092C3.75444 9.0793 3.21776 9.4503 2.68502 9.84499C1.86027 10.4449 1 11.0725 1 11.9961C1 12.9196 1.86027 13.5472 2.69291 14.155ZM3.15856 10.4726C3.77812 10.0187 4.4174 9.54898 4.66206 8.96089C4.90673 8.3728 4.79623 7.53606 4.66206 6.75457C4.52789 5.97309 4.4174 5.12056 4.76072 4.78113C5.10404 4.44169 5.94457 4.56405 6.73381 4.68245C7.52305 4.80086 8.31229 4.91927 8.93973 4.68245C9.56717 4.44564 10.021 3.77861 10.4709 3.15895C10.9207 2.53929 11.4732 1.78938 11.9941 1.78938C12.515 1.78938 13.024 2.48403 13.5173 3.15895C14.0106 3.83387 14.4407 4.41801 15.0287 4.66272C15.6167 4.90743 16.4533 4.79691 17.2346 4.66272C18.016 4.52853 18.8683 4.41801 19.2077 4.76139C19.5471 5.10477 19.4248 5.94546 19.3064 6.73484C19.188 7.52422 19.0696 8.3136 19.3064 8.94115C19.5431 9.56871 20.1903 10.0029 20.8099 10.4528C21.4294 10.9028 22.1792 11.4553 22.1792 11.9763C22.1792 12.4973 21.4847 13.0065 20.8099 13.4998C20.1351 13.9932 19.551 14.4234 19.3064 15.0115C19.0617 15.5996 19.1722 16.4363 19.3064 17.2178C19.4405 17.9993 19.551 18.8518 19.2077 19.1912C18.8644 19.5307 18.0239 19.4083 17.2346 19.2899C16.4454 19.1715 15.6561 19.0531 15.0287 19.2899C14.4013 19.5267 13.9672 20.2135 13.5173 20.8332C13.0674 21.4528 12.515 22.2027 11.9941 22.2027C11.4732 22.2027 10.9641 21.5081 10.4709 20.8332C9.97758 20.1582 9.54744 19.5741 8.95946 19.3294C8.66886 19.218 8.35896 19.1656 8.04789 19.1755C7.60983 19.1886 7.17329 19.2334 6.7417 19.3097C5.95247 19.432 5.10798 19.5544 4.76861 19.211C4.42924 18.8676 4.55157 18.0269 4.66995 17.2375C4.78834 16.4482 4.90673 15.6588 4.66995 15.0312C4.43318 14.4037 3.77812 13.9695 3.15856 13.5196C2.53901 13.0696 1.78924 12.517 1.78924 11.9961C1.78924 11.4751 2.48377 10.9659 3.15856 10.4726Z" stroke="#BF2231" stroke-width="0.3"/>
<path d="M9.42917 11.996C9.79548 11.996 10.1468 11.8505 10.4058 11.5914C10.6648 11.3324 10.8103 10.981 10.8103 10.6146V9.43055C10.8103 9.06418 10.6648 8.71281 10.4058 8.45374C10.1468 8.19468 9.79548 8.04914 9.42917 8.04914C9.06286 8.04914 8.71156 8.19468 8.45254 8.45374C8.19352 8.71281 8.04801 9.06418 8.04801 9.43055V10.6146C8.04801 10.981 8.19352 11.3324 8.45254 11.5914C8.71156 11.8505 9.06286 11.996 9.42917 11.996ZM8.83724 9.43055C8.83724 9.27353 8.89961 9.12295 9.01062 9.01192C9.12162 8.90089 9.27218 8.83852 9.42917 8.83852C9.58616 8.83852 9.73672 8.90089 9.84773 9.01192C9.95874 9.12295 10.0211 9.27353 10.0211 9.43055V10.6146C10.0211 10.7716 9.95874 10.9222 9.84773 11.0333C9.73672 11.1443 9.58616 11.2067 9.42917 11.2067C9.27218 11.2067 9.12162 11.1443 9.01062 11.0333C8.89961 10.9222 8.83724 10.7716 8.83724 10.6146V9.43055Z" stroke="#BF2231" stroke-width="0.3"/>
<path d="M14.5588 12.3907C14.1925 12.3907 13.8412 12.5362 13.5822 12.7953C13.3232 13.0543 13.1777 13.4057 13.1777 13.7721V14.9562C13.1777 15.3225 13.3232 15.6739 13.5822 15.933C13.8412 16.192 14.1925 16.3376 14.5588 16.3376C14.9252 16.3376 15.2765 16.192 15.5355 15.933C15.7945 15.6739 15.94 15.3225 15.94 14.9562V13.7721C15.94 13.4057 15.7945 13.0543 15.5355 12.7953C15.2765 12.5362 14.9252 12.3907 14.5588 12.3907ZM15.1508 14.9562C15.1508 15.1132 15.0884 15.2638 14.9774 15.3748C14.8664 15.4858 14.7158 15.5482 14.5588 15.5482C14.4019 15.5482 14.2513 15.4858 14.1403 15.3748C14.0293 15.2638 13.9669 15.1132 13.9669 14.9562V13.7721C13.9669 13.6151 14.0293 13.4645 14.1403 13.3535C14.2513 13.2424 14.4019 13.1801 14.5588 13.1801C14.7158 13.1801 14.8664 13.2424 14.9774 13.3535C15.0884 13.4645 15.1508 13.6151 15.1508 13.7721V14.9562Z" stroke="#BF2231" stroke-width="0.3"/>
<path d="M9.20422 16.7324L15.6365 7.6545H14.6657L8.23741 16.7324H9.20422Z" stroke="#BF2231" stroke-width="0.3"/>
</g>
</g>
</svg>
