<svg width="16" height="23" viewBox="0 0 16 23" fill="none" xmlns="http://www.w3.org/2000/svg">
<g id="M6HSmF">
<g id="Group">
<path id="Vector" d="M4.89 22.2829C4.72 22.1828 4.66 22.0428 4.66 21.8528C4.67 21.4529 4.66 21.0529 4.66 20.6529C4.66 20.5829 4.59 20.4829 4.53 20.4529C1.8 19.2529 0.43 17.0729 0.05 14.1829C0.02 13.9629 0 13.7329 0 13.5129C0 13.1529 0.21 12.9229 0.57 12.8929C0.73 12.8829 0.89 12.8929 1.07 12.8929C1.07 12.8029 1.07 12.7328 1.05 12.6728C1.01 12.2328 1.16 11.8729 1.52 11.6129C1.62 11.5429 1.64 11.4729 1.63 11.3629C1.55 10.7829 1.83 10.3229 2.36 10.0929C2.42 10.0629 2.49 9.98285 2.5 9.92285C2.59 9.32285 2.97 8.94285 3.57 8.86285C3.63 8.86285 3.71 8.79286 3.73 8.74286C3.98 8.16286 4.41 7.92286 5.05 7.99286C5.1 7.99286 5.18 7.97285 5.21 7.93285C5.71 7.36285 6.12 7.26285 6.8 7.57285C7.13 7.26285 7.53 7.12286 7.97 7.27286C8.16 7.33286 8.31 7.52285 8.5 7.55285C8.68 7.57285 8.88 7.42285 9.08 7.41285C9.47 7.39285 9.8 7.56286 10.03 7.88286C10.1 7.97286 10.15 8.01286 10.28 7.99286C10.83 7.89286 11.32 8.18286 11.53 8.70286C11.57 8.80286 11.6 8.86286 11.73 8.88286C12.29 8.93286 12.71 9.34285 12.77 9.90285C12.78 10.0229 12.82 10.0729 12.93 10.1129C13.46 10.3229 13.72 10.7829 13.66 11.3629C13.66 11.4329 13.66 11.5429 13.71 11.5729C14.17 11.8929 14.3 12.3429 14.2 12.9029C14.37 12.9029 14.53 12.9029 14.69 12.9029C15.06 12.9229 15.3 13.1629 15.28 13.5229C15.13 16.1629 14.16 18.3629 11.89 19.8528C11.54 20.0828 11.15 20.2529 10.78 20.4429C10.67 20.5029 10.62 20.5529 10.62 20.6829C10.62 21.0729 10.62 21.4629 10.62 21.8629C10.62 22.0629 10.56 22.2029 10.39 22.2929H9.21C9.06 22.1929 8.94 22.0629 9.01 21.8629C9.08 21.6629 9.25 21.6329 9.44 21.6429C9.61 21.6429 9.78 21.6429 9.94 21.6429V20.6429H5.34V21.6429H5.56C6.26 21.6429 6.97 21.6429 7.67 21.6429C7.86 21.6429 8.02 21.6629 8.1 21.8629C8.17 22.0629 8.05 22.1929 7.9 22.2929H4.9L4.89 22.2829ZM14.61 13.5529C14.49 13.5529 14.4 13.5529 14.32 13.5529C11.33 13.5529 8.34 13.5529 5.35 13.5529C4.99 13.5529 4.84 13.4629 4.84 13.2329C4.84 13.0029 4.99 12.9029 5.35 12.9029C7.98 12.9029 10.6 12.9029 13.23 12.9029C13.48 12.9029 13.58 12.8029 13.58 12.5529C13.58 12.3129 13.42 12.1229 13.17 12.0629C12.81 11.9729 12.74 11.7929 12.93 11.4829C13.04 11.3029 13.06 11.1329 12.95 10.9529C12.85 10.7729 12.68 10.7029 12.48 10.7029C12.12 10.7029 11.99 10.5429 12.09 10.2029C12.15 10.0029 12.12 9.83285 11.98 9.68285C11.83 9.53285 11.65 9.51286 11.46 9.56286C11.1 9.66286 10.95 9.54285 10.96 9.18285C10.96 8.97285 10.89 8.81285 10.71 8.71285C10.53 8.60285 10.35 8.62285 10.18 8.73285C9.86 8.92285 9.69 8.85286 9.6 8.49286C9.55 8.28286 9.43 8.14286 9.22 8.09286C9.02 8.04286 8.87 8.11285 8.73 8.25285C8.48 8.51285 8.28 8.49285 8.1 8.17285C8 7.99285 7.86 7.88286 7.65 7.88286C7.44 7.88286 7.3 7.98285 7.2 8.16285C7.02 8.48285 6.82 8.51286 6.57 8.24286C6.43 8.09286 6.27 8.02285 6.06 8.08285C5.86 8.14285 5.75 8.28285 5.7 8.47285C5.61 8.83285 5.44 8.90285 5.12 8.71285C4.94 8.60285 4.77 8.58285 4.59 8.69285C4.41 8.79285 4.34 8.96285 4.34 9.16286C4.34 9.53286 4.19 9.65285 3.84 9.55285C3.64 9.49285 3.46 9.52285 3.32 9.67285C3.18 9.82285 3.14 9.99285 3.2 10.1929C3.31 10.5329 3.18 10.7029 2.82 10.6929C2.61 10.6929 2.45 10.7529 2.34 10.9329C2.24 11.1129 2.25 11.2929 2.36 11.4629C2.56 11.7829 2.48 11.9529 2.1 12.0529C1.89 12.1029 1.76 12.2329 1.72 12.4529C1.67 12.7429 1.79 12.8929 2.08 12.8929C2.49 12.8929 2.89 12.8929 3.3 12.8929C3.44 12.8929 3.58 12.8929 3.71 12.9029C3.89 12.9329 3.99 13.0529 3.98 13.2429C3.97 13.4129 3.87 13.5229 3.69 13.5429C3.62 13.5429 3.55 13.5429 3.47 13.5429C2.62 13.5429 1.77 13.5429 0.92 13.5429C0.84 13.5429 0.76 13.5429 0.68 13.5429C0.68 13.6629 0.67 13.7628 0.68 13.8528C0.73 14.2329 0.77 14.6129 0.86 14.9929C1.39 17.2929 2.68 18.9629 4.89 19.8829C5 19.9329 5.13 19.9529 5.25 19.9529C6.85 19.9529 8.44 19.9529 10.04 19.9529C10.16 19.9529 10.29 19.9329 10.4 19.8829C12.42 19.0529 13.7 17.5629 14.31 15.4829C14.49 14.8629 14.61 14.2329 14.62 13.5529H14.61Z" fill="#BF2231"/>
<path id="Vector_2" d="M8.78996 0.722744C8.76996 1.22274 8.60996 1.67275 8.42996 2.12275C8.28996 2.47275 8.14996 2.82274 8.04996 3.18274C7.92996 3.61274 8.10996 3.93274 8.45996 4.01274C8.67996 4.06274 8.91996 3.96274 9.01996 3.78274C9.12996 3.59274 9.08996 3.41275 8.91996 3.23275C8.74996 3.04275 8.72996 2.88275 8.85996 2.74275C8.99996 2.59275 9.19996 2.61275 9.37996 2.77275C9.80996 3.17275 9.84996 3.83274 9.45996 4.28274C9.04996 4.76274 8.29996 4.82274 7.80996 4.42274C7.39996 4.08274 7.27996 3.62275 7.39996 3.12275C7.48996 2.73275 7.63996 2.35274 7.78996 1.97274C7.99996 1.45274 8.18996 0.932741 8.09996 0.352741C8.06996 0.162741 8.19996 0.0127425 8.36996 0.00274249C8.54996 -0.0172575 8.67996 0.0727425 8.71996 0.252742C8.74996 0.402743 8.75996 0.562744 8.77996 0.722744H8.78996Z" fill="#BF2231"/>
<path id="Vector_3" d="M6.91997 2.39255C6.90997 2.91255 6.76997 3.38255 6.55997 3.84255C6.43997 4.12255 6.30997 4.40255 6.22997 4.69255C6.06997 5.29255 6.30997 5.78255 6.86997 6.05255C7.08997 6.15255 7.16997 6.32255 7.08997 6.50255C7.00997 6.67255 6.82997 6.73255 6.60997 6.65255C5.77997 6.33255 5.34997 5.41255 5.60997 4.48255C5.68997 4.18255 5.81997 3.89255 5.94997 3.61255C6.22997 3.03255 6.31997 2.43255 6.17997 1.79255C6.11997 1.53255 6.29997 1.33255 6.52997 1.39255C6.62997 1.42255 6.75997 1.53256 6.78997 1.63256C6.85997 1.88256 6.87997 2.14255 6.91997 2.40255V2.39255Z" fill="#BF2231"/>
<path id="Vector_4" d="M10.6 10.4825C10.43 10.4825 10.29 10.3425 10.28 10.1625C10.28 9.97252 10.42 9.83252 10.6 9.83252C10.77 9.83252 10.92 9.97252 10.92 10.1425C10.92 10.3225 10.77 10.4825 10.6 10.4825Z" fill="#BF2231"/>
<path id="Vector_5" d="M4.98009 10.8727C4.98009 11.0627 4.84009 11.2027 4.66009 11.2027C4.49009 11.2027 4.34009 11.0527 4.34009 10.8827C4.34009 10.7027 4.48009 10.5527 4.67009 10.5527C4.85009 10.5527 4.98009 10.6827 4.99009 10.8627L4.98009 10.8727Z" fill="#BF2231"/>
<path id="Vector_6" d="M9.51988 10.1625C9.51988 10.3325 9.37988 10.4825 9.20988 10.4825C9.02988 10.4825 8.87988 10.3325 8.87988 10.1525C8.87988 9.97252 9.01988 9.83252 9.18988 9.83252C9.36988 9.83252 9.51988 9.97252 9.51988 10.1625Z" fill="#BF2231"/>
<path id="Vector_7" d="M5.85003 11.6028C6.03003 11.6028 6.19003 11.7528 6.18003 11.9228C6.18003 12.0928 6.03003 12.2328 5.86003 12.2428C5.67003 12.2428 5.53003 12.1028 5.53003 11.9128C5.53003 11.7328 5.67003 11.6028 5.85003 11.5928V11.6028Z" fill="#BF2231"/>
<path id="Vector_8" d="M10.28 11.6025C10.47 11.6025 10.61 11.7525 10.6 11.9425C10.6 12.1225 10.45 12.2525 10.27 12.2525C10.1 12.2525 9.94995 12.1025 9.94995 11.9425C9.94995 11.7625 10.1 11.6125 10.28 11.6125V11.6025Z" fill="#BF2231"/>
</g>
</g>
</svg>
