<svg width="24" height="24" viewBox="0 0 24 24" fill="none" xmlns="http://www.w3.org/2000/svg">
<g id="Property 1=False">
<g id="Vector">
<path d="M14.2741 13.7293C14.113 13.7293 13.9443 13.691 13.745 13.6143C13.4919 13.5146 13.2312 13.3919 12.9782 13.2616C12.4491 13.0008 11.9583 12.7555 11.4905 12.7555H11.4829C11.0381 12.7555 10.555 12.9932 10.0489 13.2539C9.79586 13.3766 9.54277 13.507 9.29739 13.6066C9.05201 13.7063 8.66094 13.8214 8.34655 13.6066C8.03215 13.3919 8.00915 12.9932 8.01682 12.7095L8.04748 12.188C8.41555 10.8768 8.03216 9.78788 6.77458 8.56864C6.49853 8.30026 6.19948 7.94752 6.30683 7.54111C6.41419 7.12703 6.86659 6.96599 7.29601 6.85863C7.53372 6.79729 7.77912 6.7513 8.03217 6.71296C8.56894 6.62094 9.07504 6.5289 9.42011 6.28352C9.76518 6.03047 10.0029 5.57806 10.2559 5.10263C10.3786 4.88026 10.4937 4.6502 10.6317 4.44316C10.8617 4.07509 11.1378 3.73002 11.5289 3.73002C11.9276 3.73002 12.196 4.08276 12.4183 4.42783C12.4644 4.49685 12.5104 4.57353 12.564 4.64254C12.6944 4.83424 12.8325 5.03362 12.9245 5.26366C13.2925 6.13016 13.906 6.56725 14.8492 6.6516C15.1713 6.68227 15.4779 6.77429 15.7693 6.86631L16.0147 6.94299C16.3981 7.05802 16.6358 7.24972 16.7202 7.51811C16.8045 7.78649 16.7202 8.07788 16.4825 8.37694C16.2908 8.61465 16.0914 8.85236 15.8844 9.09007C15.6083 9.41214 15.3323 9.7342 15.0792 10.0716C14.9795 10.202 14.9105 10.4243 14.9105 10.6007C14.9182 11.0455 14.9565 11.4825 14.9948 11.9196C15.0178 12.1727 15.0409 12.4257 15.0562 12.6788C15.0869 13.1159 14.9719 13.4303 14.7341 13.6066C14.6038 13.6987 14.4504 13.7447 14.2817 13.7447L14.2741 13.7293ZM8.79899 12.3414L8.78364 12.7248C8.78364 12.8552 8.78365 12.9318 8.79899 12.9702C8.82199 12.9548 8.89098 12.9395 9.01367 12.8935C9.24372 12.8015 9.47379 12.6865 9.7115 12.5714C10.2789 12.2877 10.8617 11.9963 11.4905 11.9963H11.5058C12.15 11.9963 12.7481 12.2954 13.3309 12.5791C13.5686 12.6941 13.8063 12.8091 14.044 12.9088C14.1974 12.9702 14.2741 12.9778 14.2971 12.9702C14.2971 12.9548 14.3124 12.8858 14.2971 12.7171C14.2817 12.4717 14.2587 12.2264 14.2357 11.9733C14.1974 11.5132 14.159 11.0608 14.1437 10.6007C14.1437 10.2556 14.2587 9.87223 14.4658 9.59618C14.7265 9.24344 15.0179 8.90605 15.3016 8.57632C15.4933 8.34627 15.6927 8.11623 15.8844 7.88619C15.9457 7.80951 15.9687 7.75582 15.9764 7.73281C15.9611 7.73281 15.9074 7.70215 15.8 7.67148L15.5393 7.59479C15.2709 7.51044 15.0255 7.43374 14.7802 7.41074C13.5609 7.30339 12.7021 6.67461 12.219 5.55505C12.15 5.39402 12.0426 5.23299 11.9276 5.07196C11.8739 4.99527 11.8202 4.91093 11.7666 4.83424C11.6285 4.61954 11.5518 4.53519 11.5135 4.50452C11.5135 4.53519 11.4215 4.61953 11.2758 4.84957C11.1531 5.04128 11.0457 5.24833 10.9307 5.46304C10.647 5.99981 10.3556 6.55193 9.86488 6.90466C9.37411 7.2574 8.76064 7.36474 8.16252 7.4721C7.93247 7.51044 7.70242 7.54877 7.48004 7.61012C7.24233 7.67147 7.12732 7.72515 7.06597 7.75582C7.09665 7.80183 7.15798 7.89383 7.29601 8.03186C8.20086 8.9137 9.33575 10.317 8.78364 12.3644L8.79899 12.3414Z" fill="#040000"/>
<path d="M11.6662 17.3332C7.16493 17.3332 3.49953 13.6678 3.49953 9.1666C3.49953 4.66538 7.16493 1 11.6662 1C16.1674 1 19.8328 4.66538 19.8328 9.1666C19.8328 13.6678 16.1674 17.3332 11.6662 17.3332ZM11.6662 1.75914C7.58668 1.75914 4.26634 5.07946 4.26634 9.15893C4.26634 13.2384 7.58668 16.5587 11.6662 16.5587C15.7456 16.5587 19.066 13.2384 19.066 9.15893C19.066 5.07946 15.7456 1.75914 11.6662 1.75914Z" fill="#040000"/>
<path d="M8.10841 23L5.24052 19.4419L1 18.8438L4.36634 12.4639L5.04114 12.8243L2.1886 18.2381L5.64696 18.7211L8.00872 21.6504L10.846 16.7351L11.5131 17.1185L8.10841 23Z" fill="#040000"/>
<path d="M15.2168 23L11.8198 17.1185L12.4792 16.7351L15.3241 21.6504L17.6859 18.7211L21.1442 18.2381L18.2917 12.8243L18.9665 12.4639L22.3252 18.8438L18.0923 19.4419L15.2168 23Z" fill="#040000"/>
<path d="M14.2741 13.7293C14.113 13.7293 13.9443 13.691 13.745 13.6143C13.4919 13.5146 13.2312 13.3919 12.9782 13.2616C12.4491 13.0008 11.9583 12.7555 11.4905 12.7555H11.4829C11.0381 12.7555 10.555 12.9932 10.0489 13.2539C9.79586 13.3766 9.54277 13.507 9.29739 13.6066C9.05201 13.7063 8.66094 13.8214 8.34655 13.6066C8.03215 13.3919 8.00915 12.9932 8.01682 12.7095L8.04748 12.188C8.41555 10.8768 8.03216 9.78788 6.77458 8.56864C6.49853 8.30026 6.19948 7.94752 6.30683 7.54111C6.41419 7.12703 6.86659 6.96599 7.29601 6.85863C7.53372 6.79729 7.77912 6.7513 8.03217 6.71296C8.56894 6.62094 9.07504 6.5289 9.42011 6.28352C9.76518 6.03047 10.0029 5.57806 10.2559 5.10263C10.3786 4.88026 10.4937 4.6502 10.6317 4.44316C10.8617 4.07509 11.1378 3.73002 11.5289 3.73002C11.9276 3.73002 12.196 4.08276 12.4183 4.42783C12.4644 4.49685 12.5104 4.57353 12.564 4.64254C12.6944 4.83424 12.8325 5.03362 12.9245 5.26366C13.2925 6.13016 13.906 6.56725 14.8492 6.6516C15.1713 6.68227 15.4779 6.77429 15.7693 6.86631L16.0147 6.94299C16.3981 7.05802 16.6358 7.24972 16.7202 7.51811C16.8045 7.78649 16.7202 8.07788 16.4825 8.37694C16.2908 8.61465 16.0914 8.85236 15.8844 9.09007C15.6083 9.41214 15.3323 9.7342 15.0792 10.0716C14.9795 10.202 14.9105 10.4243 14.9105 10.6007C14.9182 11.0455 14.9565 11.4825 14.9948 11.9196C15.0178 12.1727 15.0409 12.4257 15.0562 12.6788C15.0869 13.1159 14.9719 13.4303 14.7341 13.6066C14.6038 13.6987 14.4504 13.7447 14.2817 13.7447L14.2741 13.7293ZM8.79899 12.3414L8.78364 12.7248C8.78364 12.8552 8.78365 12.9318 8.79899 12.9702C8.82199 12.9548 8.89098 12.9395 9.01367 12.8935C9.24372 12.8015 9.47379 12.6865 9.7115 12.5714C10.2789 12.2877 10.8617 11.9963 11.4905 11.9963H11.5058C12.15 11.9963 12.7481 12.2954 13.3309 12.5791C13.5686 12.6941 13.8063 12.8091 14.044 12.9088C14.1974 12.9702 14.2741 12.9778 14.2971 12.9702C14.2971 12.9548 14.3124 12.8858 14.2971 12.7171C14.2817 12.4717 14.2587 12.2264 14.2357 11.9733C14.1974 11.5132 14.159 11.0608 14.1437 10.6007C14.1437 10.2556 14.2587 9.87223 14.4658 9.59618C14.7265 9.24344 15.0179 8.90605 15.3016 8.57632C15.4933 8.34627 15.6927 8.11623 15.8844 7.88619C15.9457 7.80951 15.9687 7.75582 15.9764 7.73281C15.9611 7.73281 15.9074 7.70215 15.8 7.67148L15.5393 7.59479C15.2709 7.51044 15.0255 7.43374 14.7802 7.41074C13.5609 7.30339 12.7021 6.67461 12.219 5.55505C12.15 5.39402 12.0426 5.23299 11.9276 5.07196C11.8739 4.99527 11.8202 4.91093 11.7666 4.83424C11.6285 4.61954 11.5518 4.53519 11.5135 4.50452C11.5135 4.53519 11.4215 4.61953 11.2758 4.84957C11.1531 5.04128 11.0457 5.24833 10.9307 5.46304C10.647 5.99981 10.3556 6.55193 9.86488 6.90466C9.37411 7.2574 8.76064 7.36474 8.16252 7.4721C7.93247 7.51044 7.70242 7.54877 7.48004 7.61012C7.24233 7.67147 7.12732 7.72515 7.06597 7.75582C7.09665 7.80183 7.15798 7.89383 7.29601 8.03186C8.20086 8.9137 9.33575 10.317 8.78364 12.3644L8.79899 12.3414Z" stroke="#040000" stroke-width="0.4"/>
<path d="M11.6662 17.3332C7.16493 17.3332 3.49953 13.6678 3.49953 9.1666C3.49953 4.66538 7.16493 1 11.6662 1C16.1674 1 19.8328 4.66538 19.8328 9.1666C19.8328 13.6678 16.1674 17.3332 11.6662 17.3332ZM11.6662 1.75914C7.58668 1.75914 4.26634 5.07946 4.26634 9.15893C4.26634 13.2384 7.58668 16.5587 11.6662 16.5587C15.7456 16.5587 19.066 13.2384 19.066 9.15893C19.066 5.07946 15.7456 1.75914 11.6662 1.75914Z" stroke="#040000" stroke-width="0.4"/>
<path d="M8.10841 23L5.24052 19.4419L1 18.8438L4.36634 12.4639L5.04114 12.8243L2.1886 18.2381L5.64696 18.7211L8.00872 21.6504L10.846 16.7351L11.5131 17.1185L8.10841 23Z" stroke="#040000" stroke-width="0.4"/>
<path d="M15.2168 23L11.8198 17.1185L12.4792 16.7351L15.3241 21.6504L17.6859 18.7211L21.1442 18.2381L18.2917 12.8243L18.9665 12.4639L22.3252 18.8438L18.0923 19.4419L15.2168 23Z" stroke="#040000" stroke-width="0.4"/>
</g>
</g>
</svg>
