<svg width="11" height="17" viewBox="0 0 11 17" fill="none" xmlns="http://www.w3.org/2000/svg">
<g id="ShYY2o">
<path id="Vector" d="M7.76975 3.24431C7.91975 3.60431 8.03976 3.96431 8.20976 4.30431C8.47976 4.85431 8.92976 5.27431 9.50976 5.58431C9.66976 5.67431 9.77976 5.78431 9.74976 5.96431C9.69976 6.22431 9.40976 6.32432 9.12976 6.18432C8.36976 5.78432 7.80976 5.22431 7.45976 4.49431C7.33976 4.24431 7.24976 3.97431 7.14976 3.71431C7.12976 3.65431 7.09976 3.59431 7.06976 3.52431C6.48976 3.85431 6.18976 4.32431 6.05976 4.90431C5.97976 5.27431 6.01975 5.60431 6.15975 5.96431C7.25975 8.82431 8.33976 11.6843 9.42976 14.5443C9.73976 15.3743 9.24976 16.1743 8.32976 16.3443C8.19976 16.3643 8.05976 16.3743 7.91976 16.3743C5.94976 16.3743 3.97976 16.3743 2.00976 16.3743C1.00976 16.3743 0.249759 15.8443 0.0397592 15.0243C-0.0502408 14.6743 0.0297589 14.3343 0.109759 13.9943C0.799759 11.1943 1.49976 8.38432 2.17976 5.57432C2.29976 5.08432 2.36976 4.57431 2.24976 4.06431C2.14976 3.63431 1.88976 3.27431 1.50976 2.99431C1.18976 2.76431 0.869756 2.53431 0.559756 2.30431C0.299756 2.11431 0.289757 1.91431 0.529757 1.70431C1.14976 1.18431 1.76976 0.674315 2.38976 0.144315C2.51976 0.0343148 2.65976 -0.0156846 2.84976 0.00431536C3.90976 0.0943154 4.96976 0.18431 6.02976 0.26431C7.07976 0.35431 8.13976 0.434312 9.18976 0.524312C9.35976 0.534312 9.53976 0.544313 9.70976 0.564313C9.96976 0.594313 10.0998 0.71431 10.0998 0.94431C10.0998 1.33431 10.0998 1.73431 10.0998 2.12431C10.0998 2.31431 9.97976 2.43432 9.78976 2.50432C9.15976 2.73432 8.52976 2.96431 7.89976 3.19431C7.85976 3.20431 7.82975 3.22432 7.76975 3.25432V3.24431ZM2.91976 5.81431C2.89976 5.89431 2.87976 5.95431 2.85976 6.01431C2.61976 6.98431 2.37976 7.96432 2.13976 8.93432C1.68976 10.7443 1.24975 12.5443 0.799754 14.3543C0.619754 15.0843 1.12976 15.6843 1.95976 15.6843C3.96976 15.6843 5.96975 15.6843 7.97975 15.6843C8.54975 15.6843 8.88976 15.2643 8.69976 14.7843C7.57976 11.8343 6.45975 8.88431 5.33975 5.94431C5.29975 5.84431 5.24976 5.81431 5.12976 5.81431C4.66976 5.81431 4.20976 5.81431 3.74976 5.81431C3.46976 5.81431 3.18975 5.81431 2.90975 5.81431H2.91976ZM2.99976 5.11431H3.23976C3.82976 5.11431 4.41976 5.11431 5.00976 5.11431C5.18976 5.11431 5.24976 5.07431 5.27976 4.91431C5.44976 3.80431 6.11975 3.06431 7.29975 2.66431C7.93975 2.44431 8.55976 2.20431 9.18976 1.97431C9.23976 1.95431 9.31976 1.89431 9.31976 1.85431C9.32976 1.64431 9.31976 1.44431 9.31976 1.23431C9.25976 1.23431 9.22976 1.22431 9.18976 1.21431C7.97976 1.11431 6.76976 1.01431 5.55976 0.914311C4.72976 0.844311 3.90976 0.774314 3.07976 0.714314C2.96976 0.714314 2.81976 0.724314 2.74976 0.784314C2.29976 1.13431 1.86976 1.50431 1.43976 1.87431C1.39976 1.90431 1.36976 1.94432 1.30976 2.00432C2.59976 2.73432 3.28976 3.71431 2.99976 5.12431V5.11431Z" fill="black"/>
</g>
</svg>
