<svg width="15" height="19" viewBox="0 0 15 19" fill="none" xmlns="http://www.w3.org/2000/svg">
<g id="vfxfJm">
<path id="Vector" d="M4.55783 18.1054C4.00782 17.9154 3.80782 17.5054 3.76782 16.9454C3.65782 15.4454 3.50782 13.9454 3.37783 12.4354C3.36783 12.2754 3.32782 12.0954 3.35782 11.9454C3.37782 11.8354 3.50782 11.7454 3.58782 11.6454C3.68782 11.7254 3.85782 11.7954 3.86782 11.8854C3.92782 12.2154 3.94782 12.5654 3.97782 12.9054C4.09782 14.2754 4.21782 15.6554 4.33782 17.0254C4.37782 17.4354 4.48782 17.5454 4.88782 17.5454C6.81782 17.5454 8.75782 17.5454 10.6878 17.5454C11.0378 17.5454 11.1978 17.3954 11.2278 17.0454C11.3978 14.9354 11.5878 12.8154 11.7678 10.7054C11.9378 8.67536 12.1078 6.64536 12.2778 4.61536C12.2778 4.50536 12.2778 4.38536 12.2778 4.27536C11.8912 4.20869 11.6545 4.3487 11.5678 4.69536C11.4078 5.30536 11.2378 5.91536 11.0778 6.52536C11.5678 6.64536 11.5878 6.68536 11.5478 7.18536C11.3578 9.35536 11.1778 11.5254 10.9978 13.7054C10.9978 13.7854 10.9978 13.8954 10.9678 13.9454C10.8878 14.0454 10.7778 14.1154 10.6678 14.1954C10.5878 14.0954 10.4478 13.9854 10.4478 13.8854C10.4478 13.4254 10.5078 12.9654 10.5478 12.5154C10.6978 10.7454 10.8478 8.97536 10.9578 7.18536C10.9278 7.24536 10.8878 7.30536 10.8678 7.36536C10.6578 8.14536 10.4478 8.93536 10.2378 9.71536C10.2178 9.79536 10.2178 9.89536 10.1678 9.94536C10.0678 10.0354 9.93783 10.0954 9.82783 10.1754C9.76783 10.0554 9.64783 9.91536 9.66783 9.80536C9.77783 9.28536 9.92782 8.77536 10.0578 8.26536C10.1578 7.90536 10.2478 7.53536 10.3478 7.15536H8.06782C8.27782 7.48536 8.09782 7.66536 7.83782 7.83536C7.51782 8.04536 7.20782 8.27536 6.85782 8.52536C7.38782 8.88536 7.87782 9.23536 8.37782 9.55536C8.65782 9.73536 8.69782 9.91536 8.49782 10.1954C8.04782 10.8254 7.60782 11.4754 7.18782 12.1254C7.00782 12.4054 6.81782 12.4354 6.54782 12.2454C6.02782 11.8754 5.49782 11.5254 4.90782 11.1254C4.93782 11.5854 4.96782 11.9754 4.99782 12.3654C5.10782 13.7054 5.22782 15.0454 5.35782 16.3754C5.35782 16.4754 5.48782 16.6554 5.55783 16.6554C6.29782 16.6754 7.03782 16.6654 7.79782 16.6654C8.11782 15.4854 8.42782 14.3254 8.72782 13.1654C8.90782 12.5054 9.06783 11.8454 9.25783 11.1854C9.28783 11.0654 9.38783 10.9454 9.48783 10.8654C9.52783 10.8254 9.70782 10.8654 9.72782 10.9154C9.77782 11.0354 9.80782 11.1854 9.77782 11.3054C9.51782 12.3354 9.23783 13.3554 8.96782 14.3754C8.76783 15.1254 8.56782 15.8754 8.36782 16.6454H10.1678C10.2078 16.2154 10.2378 15.7854 10.2778 15.3554C10.2978 15.1254 10.2378 14.7754 10.5878 14.7954C10.9578 14.8154 10.8378 15.1554 10.8278 15.3854C10.8078 15.8354 10.7478 16.2754 10.7078 16.7254C10.6878 17.0354 10.5178 17.2054 10.2178 17.2054C8.60783 17.2054 6.98782 17.2054 5.37782 17.2054C5.02782 17.2054 4.84782 17.0154 4.81782 16.6654C4.65782 14.8554 4.49782 13.0554 4.33782 11.2454C4.21782 9.86536 4.09782 8.47536 3.97782 7.08536C3.93782 6.64536 4.01782 6.53536 4.43782 6.58536C5.03782 6.65536 5.46782 6.38536 5.90782 6.06536C6.88782 5.34536 6.70783 5.33536 7.39783 6.31536C7.53783 6.51536 7.67783 6.58536 7.91783 6.58536C8.76783 6.57536 9.60782 6.58536 10.4778 6.58536C10.6878 5.80536 10.8878 5.04536 11.0978 4.26536H3.21783C3.26783 4.89536 3.31782 5.51536 3.36782 6.13536C3.49782 7.60536 3.62783 9.06536 3.75783 10.5354C3.77783 10.7354 3.79782 10.9854 3.51782 11.0054C3.22782 11.0254 3.21782 10.7754 3.19782 10.5554C3.09782 9.35536 2.98782 8.16536 2.88782 6.93536C1.89782 6.86536 1.08782 6.45536 0.517824 5.64536C0.0778244 5.02536 -0.0521757 4.31536 0.0178243 3.56536C0.137824 2.36536 1.27782 1.23536 2.45782 1.05536C3.80782 0.855364 5.55783 1.62536 5.89783 3.67536H11.2378C11.3778 3.13536 11.5378 2.58536 11.6778 2.03536C11.7378 1.76536 11.8778 1.57536 12.1078 1.42536C12.7578 1.00536 13.4078 0.565358 14.0478 0.135358C14.2078 0.0253585 14.3878 -0.0946382 14.5378 0.115362C14.6978 0.345362 14.5178 0.475358 14.3478 0.595358C13.7178 1.01536 13.0878 1.42536 12.4678 1.85536C12.3578 1.92536 12.2578 2.04536 12.2178 2.16536C12.0678 2.64536 11.9478 3.13536 11.8178 3.62536C11.8478 3.64536 11.8678 3.66536 11.8878 3.67536C12.7278 3.73536 12.8678 3.88536 12.7978 4.73536C12.5578 7.65536 12.2978 10.5854 12.0478 13.5054C11.9478 14.6654 11.8378 15.8254 11.7578 16.9954C11.7178 17.5554 11.4878 17.9254 10.9678 18.1154H4.52782L4.55783 18.1054ZM6.77782 11.7354C7.19782 11.1254 7.57783 10.5554 7.98783 9.97536C7.45783 9.61536 6.96782 9.26536 6.46782 8.94536C6.37782 8.88536 6.13783 8.92536 6.07783 8.99536C5.70783 9.48536 5.37782 9.99536 5.01782 10.5354C5.60782 10.9354 6.17782 11.3254 6.78782 11.7354H6.77782ZM5.48783 7.05536C5.77783 7.45536 6.04783 7.83536 6.32783 8.22536C6.73783 7.93536 7.10782 7.66536 7.49782 7.39536C7.20782 6.98536 6.93782 6.60536 6.65782 6.21536C6.24782 6.50536 5.87783 6.77536 5.48783 7.05536ZM4.78782 9.86536C4.91782 9.67536 4.99782 9.57536 5.06782 9.46536C5.29782 9.11536 5.71782 8.74536 5.70782 8.40536C5.68782 8.03536 5.27782 7.67536 5.01782 7.33536C4.92782 7.22536 4.76783 7.17536 4.64783 7.09536C4.61783 7.12536 4.58782 7.15536 4.56782 7.18536C4.64782 8.04536 4.71782 8.91536 4.80783 9.87536L4.78782 9.86536ZM0.507826 4.26536C0.707826 4.72536 0.887826 5.12536 1.09783 5.57536C1.53783 5.10536 1.89783 4.71536 2.30783 4.26536H0.507826ZM2.70782 4.64536C2.28782 5.10536 1.91782 5.49536 1.54782 5.89536C1.96782 6.19536 2.37782 6.34536 2.85782 6.34536C2.80782 5.77536 2.75782 5.25536 2.70782 4.63536V4.64536ZM3.24782 1.51536V3.20536C3.61782 2.82536 3.99783 2.43536 4.41783 2.01536C4.06783 1.86536 3.69782 1.70536 3.24782 1.51536ZM1.48783 2.01536C1.90783 2.46536 2.26783 2.85536 2.64783 3.26536V1.52536C2.20783 1.70536 1.82783 1.87536 1.48783 2.01536ZM3.76782 3.66536H5.39783C5.22783 3.25536 5.07783 2.88536 4.91783 2.51536C4.49783 2.93536 4.13782 3.29536 3.76782 3.66536ZM2.13782 3.68536C1.76782 3.31536 1.40783 2.93536 0.987826 2.51536C0.837826 2.89536 0.687824 3.25536 0.517824 3.68536H2.13782Z" fill="#BF2231"/>
</g>
</svg>
