<svg width="20" height="15" viewBox="0 0 20 15" fill="none" xmlns="http://www.w3.org/2000/svg">
<g id="WmTeu2">
<g id="Group">
<path id="Vector" d="M7.18294 13.4276C8.67294 13.4476 9.99294 13.0676 11.2629 12.4376C12.4529 11.8476 13.5229 11.0776 14.4529 10.1176C15.1829 9.36756 15.7929 8.54756 16.1729 7.55756C16.3329 7.13756 16.4329 6.70756 16.4329 6.24756C16.4329 6.14756 16.4629 6.09756 16.5529 6.03756C16.8929 5.83756 17.2129 5.61756 17.5529 5.41756C17.7629 5.29756 17.9829 5.25756 18.2229 5.38756C18.3729 5.46756 18.5629 5.46756 18.7429 5.46756C18.9529 5.46756 19.0529 5.35756 19.0829 5.16756C19.1129 4.98756 19.0029 4.80756 18.8529 4.72756C18.7529 4.67756 18.6429 4.61756 18.5529 4.53756C18.4329 4.42756 18.3829 4.26756 18.3829 4.09756C18.3829 3.99756 18.3929 3.87756 18.3529 3.79756C18.3029 3.70756 18.1929 3.60756 18.0929 3.59756C18.0129 3.59756 17.8629 3.67756 17.8329 3.75756C17.7429 3.98756 17.6729 4.22756 17.6529 4.46756C17.6429 4.67756 17.5729 4.83756 17.4129 4.95756C17.0829 5.20756 16.7529 5.45756 16.4029 5.68756C16.2329 5.80756 16.0229 5.82756 15.8529 5.70756C15.4329 5.43756 14.9929 5.44756 14.5429 5.56756C13.5629 5.84756 12.6529 6.26756 11.8029 6.81756C11.0429 7.30756 10.4129 7.93756 9.90294 8.68756C9.76294 8.89756 9.55294 8.94756 9.36294 8.81756C9.18294 8.70756 9.14294 8.47756 9.28294 8.27756C9.80294 7.48756 10.4629 6.82756 11.2429 6.28756C12.1829 5.64756 13.2029 5.16756 14.3029 4.84756C14.8829 4.67756 15.4629 4.65756 16.0229 4.93756C16.0629 4.95756 16.1529 4.93756 16.1929 4.91756C16.4029 4.77756 16.6029 4.63756 16.7929 4.48756C16.8429 4.44756 16.8829 4.36756 16.8929 4.29756C16.9429 3.93756 17.0029 3.57756 17.2229 3.27756C17.5129 2.88756 17.9429 2.73756 18.3729 2.86756C18.7629 2.97756 19.0929 3.40756 19.1129 3.83756C19.1129 3.97756 19.1629 4.04756 19.2829 4.10756C19.7129 4.35756 19.9029 4.88756 19.7729 5.40756C19.6429 5.89756 19.2529 6.19756 18.6929 6.20756C18.4629 6.20756 18.2329 6.12756 17.9929 6.09756C17.9329 6.09756 17.8629 6.09756 17.8029 6.10756C17.8029 6.10756 17.7829 6.10756 17.7729 6.12756C17.5829 6.24756 17.3529 6.32756 17.2329 6.49756C17.1129 6.65756 17.1229 6.90756 17.0829 7.11756C16.9129 7.92756 16.5629 8.65756 16.0929 9.32756C14.9829 10.9276 13.5129 12.1176 11.8029 13.0176C10.7529 13.5676 9.65294 13.9476 8.48294 14.1376C7.73294 14.2576 6.97294 14.2176 6.22294 14.1376C5.51294 14.0676 4.80294 13.9276 4.12294 13.7276C2.85294 13.3576 1.76294 12.6976 0.912941 11.6576C0.342941 10.9476 0.0329409 10.1376 0.00294091 9.22756C-0.0370591 8.17756 0.332941 7.28756 0.992941 6.49756C1.80294 5.52756 2.84294 4.90756 4.02294 4.48756C5.31294 4.03756 6.64294 3.85756 8.01294 3.94756C8.83294 3.99756 9.65294 4.07756 10.4429 4.34756C10.9329 4.51756 11.3829 4.74756 11.8129 5.03756C12.0129 5.16756 12.0729 5.34756 11.9929 5.53756C11.9229 5.70756 11.7429 5.80756 11.5629 5.76756C11.4829 5.74756 11.4129 5.68756 11.3429 5.64756C10.4929 5.08756 9.55294 4.82756 8.54294 4.76756C7.78294 4.72756 7.01294 4.70756 6.25294 4.80756C4.70294 4.99756 3.26294 5.44756 2.06294 6.49756C1.41294 7.06756 0.932941 7.75756 0.792941 8.62756C0.652941 9.51756 0.842941 10.3376 1.39294 11.0476C1.83294 11.6276 2.39294 12.0976 3.03294 12.4576C3.62294 12.7876 4.25294 13.0076 4.92294 13.1576C5.69294 13.3276 6.47294 13.3776 7.20294 13.3976L7.18294 13.4276Z" fill="#BF2231"/>
<path id="Vector_2" d="M11.1129 2.02735C11.4229 2.06735 11.7429 2.11735 12.0529 2.14735C12.1329 2.14735 12.2129 2.12734 12.2929 2.10734C12.3429 2.09734 12.3729 2.05734 12.4229 2.03734C12.7729 1.85734 13.0129 1.62735 13.0029 1.17735C13.0029 0.837348 13.1429 0.517346 13.4129 0.277346C13.9129 -0.172654 14.6629 -0.062656 14.9929 0.517344C15.0829 0.677344 15.1229 0.867344 15.1929 1.03734C15.2129 1.08734 15.2529 1.13735 15.2929 1.15735C15.7129 1.39735 15.9729 1.74735 15.9629 2.25735C15.9629 2.83735 15.5629 3.28735 14.9829 3.34735C14.7229 3.37735 14.4629 3.31734 14.2029 3.30734C14.1429 3.30734 14.0729 3.30735 14.0229 3.33735C13.8729 3.43735 13.7229 3.54735 13.5829 3.65735C13.5429 3.68735 13.5329 3.76735 13.5329 3.82735C13.5329 4.20735 13.4929 4.57735 13.2529 4.88735C13.1529 5.00735 13.0329 5.12735 12.9029 5.20735C12.7229 5.31735 12.5129 5.26734 12.4029 5.10734C12.2729 4.92734 12.2829 4.72735 12.4729 4.59735C12.7329 4.40735 12.7929 4.13735 12.7529 3.84735C12.7029 3.50735 12.7629 3.24734 13.0729 3.05734C13.3029 2.91734 13.5229 2.73735 13.7429 2.58735C13.9229 2.46735 14.1129 2.43734 14.3429 2.51734C14.5229 2.57734 14.7229 2.58735 14.9129 2.56735C15.1029 2.54735 15.1929 2.42735 15.2029 2.23735C15.2129 2.06735 15.1129 1.91735 14.9429 1.84735C14.8329 1.79735 14.7329 1.74735 14.6329 1.67735C14.4829 1.56735 14.4429 1.40735 14.4229 1.22735C14.4229 1.12735 14.4029 1.02735 14.3529 0.937346C14.2529 0.737346 14.0229 0.727345 13.9029 0.917345C13.7429 1.15735 13.7329 1.43734 13.7529 1.71734C13.7729 1.90734 13.7229 2.06735 13.5729 2.17735C13.2029 2.43735 12.8329 2.70734 12.4429 2.94734C12.3429 3.00734 12.1829 2.97734 12.0529 2.94734C11.4329 2.80734 10.8129 2.79734 10.2029 2.96734C9.75286 3.09734 9.34286 3.32734 8.96286 3.60734C8.70286 3.79734 8.36286 3.65735 8.33286 3.33735C8.31286 3.16735 8.40286 3.04735 8.53286 2.95735C9.30286 2.37735 10.1629 2.03735 11.1429 2.02735H11.1129Z" fill="#BF2231"/>
<path id="Vector_3" d="M6.47306 5.61717C6.66306 5.62717 6.80306 5.63717 6.95306 5.64717C7.19306 5.66717 7.34306 5.82717 7.33306 6.05717C7.32306 6.27717 7.15306 6.42717 6.92306 6.41717C6.48306 6.39717 6.05306 6.39717 5.62306 6.51717C4.48306 6.81717 3.55306 7.43717 2.87306 8.39717C2.80306 8.49717 2.76306 8.62717 2.72306 8.74717C2.65306 8.98717 2.46306 9.13717 2.25306 9.08717C2.02306 9.03717 1.89306 8.83717 1.95306 8.57717C2.03306 8.19717 2.24306 7.87717 2.49306 7.57717C3.54306 6.33717 4.88306 5.66717 6.47306 5.59717V5.61717Z" fill="#BF2231"/>
</g>
</g>
</svg>
