<svg width="18" height="18" viewBox="0 0 18 18" fill="none" xmlns="http://www.w3.org/2000/svg">
<g id="XEQ0Uq">
<g id="Group">
<path id="Vector" d="M3.06594 9.10941C2.97594 9.01941 2.90594 8.94941 2.82594 8.88941C2.25594 8.35941 1.69593 7.82941 1.12593 7.29941C0.835934 7.02941 0.555934 6.76941 0.265934 6.49941C-0.0640662 6.18941 -0.0940616 5.65941 0.215938 5.31941C0.605938 4.88941 1.00593 4.46941 1.40593 4.03941C1.51593 3.91941 1.67593 3.91941 1.80593 4.03941C2.09593 4.29941 2.43594 4.41941 2.82594 4.41941C3.49594 4.41941 4.11594 3.87941 4.21594 3.20941C4.28594 2.70941 4.14593 2.27941 3.79593 1.91941C3.65593 1.77941 3.65593 1.63941 3.79593 1.49941C4.17593 1.08941 4.55594 0.689415 4.93594 0.279415C5.25594 -0.0705846 5.81594 -0.100585 6.16594 0.239415C6.54594 0.609415 6.94593 0.969415 7.33593 1.32941C8.63593 2.53941 9.93594 3.75941 11.2359 4.96941C12.6859 6.31941 14.1359 7.66941 15.5759 9.02942C15.6459 9.08942 15.7059 9.11941 15.8059 9.11941C16.1559 9.11941 16.5159 9.11941 16.8659 9.11941C17.3959 9.11941 17.7559 9.47941 17.7559 10.0094C17.7559 10.5594 17.7559 11.1094 17.7559 11.6594C17.7559 11.8594 17.6459 11.9694 17.4459 11.9694C16.7959 11.9794 16.2359 12.4294 16.0759 13.0694C15.9159 13.6894 16.2059 14.3494 16.7559 14.6694C16.9759 14.7894 17.2059 14.8594 17.4559 14.8694C17.6559 14.8694 17.7559 14.9794 17.7559 15.1794C17.7559 15.7294 17.7559 16.2894 17.7559 16.8394C17.7559 17.3494 17.3959 17.7094 16.8859 17.7094C14.7659 17.7094 12.6459 17.7094 10.5359 17.7094C8.89594 17.7094 7.26593 17.7094 5.62593 17.7094C4.40593 17.7094 3.19593 17.7094 1.97593 17.7094C1.59593 17.7094 1.28594 17.4994 1.17594 17.1294C1.14594 17.0194 1.13594 16.8994 1.13594 16.7894C1.13594 16.2494 1.13594 15.7194 1.13594 15.1794C1.13594 14.9794 1.23594 14.8794 1.43594 14.8694C2.24594 14.8394 2.86594 14.2094 2.86594 13.3994C2.86594 12.6294 2.22594 11.9694 1.45594 11.9694C1.27594 11.9694 1.13594 11.8094 1.13594 11.6494C1.13594 11.0894 1.13594 10.5394 1.13594 9.97941C1.13594 9.50941 1.49594 9.13941 1.96594 9.12941C2.15594 9.12941 2.33594 9.12941 2.52594 9.12941C2.70594 9.12941 2.89594 9.12941 3.10594 9.12941L3.06594 9.10941ZM17.2059 15.3894C17.1359 15.3694 17.0759 15.3594 17.0159 15.3494C16.1559 15.1494 15.4959 14.3594 15.4759 13.4894C15.4659 12.8394 15.6959 12.2994 16.1959 11.8694C16.4659 11.6394 16.7759 11.4994 17.1259 11.4394C17.1859 11.4294 17.2059 11.3994 17.2059 11.3394C17.2059 10.8894 17.2059 10.4394 17.2059 9.97941C17.2059 9.77941 17.0759 9.63941 16.8659 9.63941C16.5359 9.63941 16.2059 9.63941 15.8759 9.63941C13.8659 9.63941 11.8659 9.63941 9.85594 9.63941C9.35594 9.63941 8.84594 9.63941 8.34594 9.63941C7.53594 9.63941 6.73594 9.63941 5.92594 9.63941C5.74594 9.63941 5.57594 9.63941 5.38594 9.63941C5.38594 9.67941 5.38594 9.69941 5.38594 9.72941C5.38594 9.89941 5.38594 10.0694 5.38594 10.2394C5.38594 10.3994 5.26594 10.5094 5.11594 10.5094C4.96594 10.5094 4.84594 10.3994 4.84594 10.2394C4.84594 10.0794 4.84594 9.92941 4.84594 9.76941C4.84594 9.72941 4.84594 9.68941 4.84594 9.63941C4.80594 9.63941 4.78594 9.63941 4.75594 9.63941C3.84594 9.63941 2.92593 9.63941 2.01593 9.63941C1.98593 9.63941 1.95594 9.63941 1.92594 9.63941C1.77594 9.65941 1.65593 9.77942 1.65593 9.93941C1.65593 10.0094 1.65593 10.0794 1.65593 10.1594C1.65593 10.5594 1.65593 10.9594 1.65593 11.3594C1.65593 11.4094 1.68594 11.4294 1.73593 11.4394C2.81594 11.6094 3.56594 12.6794 3.35594 13.7494C3.19594 14.5894 2.58594 15.2094 1.73593 15.3694C1.68594 15.3694 1.66594 15.3994 1.66594 15.4594C1.66594 15.9194 1.66594 16.3694 1.66594 16.8294C1.66594 17.0394 1.79594 17.1594 1.99594 17.1594C2.91594 17.1594 3.84593 17.1594 4.76593 17.1594H4.86594C4.86594 16.9594 4.86594 16.7694 4.86594 16.5794C4.86594 16.4694 4.90594 16.3894 4.99594 16.3394C5.17594 16.2294 5.40593 16.3594 5.40593 16.5694C5.40593 16.7594 5.40593 16.9594 5.40593 17.1594C5.59593 17.1594 5.77593 17.1594 5.94593 17.1594C6.75593 17.1594 7.56594 17.1594 8.38594 17.1594C9.47594 17.1594 10.5759 17.1594 11.6659 17.1594C13.0259 17.1594 14.3959 17.1594 15.7559 17.1594C16.1359 17.1594 16.5159 17.1594 16.8959 17.1594C16.9159 17.1594 16.9359 17.1594 16.9559 17.1594C17.1259 17.1294 17.2159 17.0094 17.2259 16.8094C17.2259 16.4694 17.2259 16.1294 17.2259 15.7994C17.2259 15.6594 17.2259 15.5294 17.2259 15.3894H17.2059ZM14.8359 9.10941C14.8359 9.10941 14.8359 9.09941 14.8359 9.08941C12.6459 7.04941 10.4559 4.99941 8.25594 2.94941C8.23594 2.97941 8.21593 2.99941 8.19593 3.01941C8.08593 3.13941 7.96594 3.25941 7.85594 3.37941C7.77594 3.45941 7.67594 3.48941 7.56594 3.44941C7.45594 3.40941 7.39594 3.32941 7.38594 3.21941C7.38594 3.13941 7.40594 3.05941 7.46594 2.99941C7.59594 2.85941 7.72594 2.71941 7.85594 2.57941C7.46594 2.21941 7.08593 1.85941 6.69593 1.49941C6.38593 1.20941 6.07594 0.919414 5.75594 0.629414C5.60594 0.489414 5.43593 0.499414 5.29593 0.649414C5.11593 0.849414 4.92594 1.03941 4.74594 1.23941C4.60594 1.39941 4.45594 1.54941 4.31594 1.70941C4.98594 2.55941 4.84593 3.66941 4.22593 4.33941C3.64593 4.96941 2.54594 5.23941 1.60594 4.60941C1.26594 4.96941 0.925933 5.33941 0.585934 5.70941C0.485934 5.81941 0.50594 5.99941 0.61594 6.10941C0.88594 6.36941 1.15594 6.61941 1.42594 6.86941C1.66594 7.08941 1.90593 7.31941 2.15593 7.53941C2.34593 7.71941 2.53594 7.89941 2.74594 8.08941C2.76594 8.05941 2.77593 8.03941 2.79593 8.01941C2.90593 7.89941 3.02594 7.76941 3.14594 7.64941C3.22594 7.56941 3.32594 7.54941 3.43594 7.57941C3.53594 7.61941 3.59594 7.69941 3.60594 7.79941C3.61594 7.88941 3.58594 7.95941 3.52594 8.02942C3.39594 8.16942 3.26594 8.30941 3.13594 8.44941C3.36594 8.66941 3.59594 8.87941 3.82594 9.08941C3.84594 9.10941 3.87593 9.10941 3.90593 9.10941C4.77593 9.10941 5.64594 9.10941 6.50594 9.10941C8.95594 9.10941 11.4159 9.10941 13.8659 9.10941C14.1859 9.10941 14.5059 9.10941 14.8259 9.10941H14.8359Z" fill="black"/>
<path id="Vector_2" d="M7.93604 12.1696C7.93604 11.8396 7.99603 11.5496 8.13603 11.2896C8.38603 10.8596 8.80603 10.6396 9.30603 10.6896C9.86603 10.7396 10.156 11.0896 10.316 11.5896C10.416 11.9096 10.406 12.2296 10.346 12.5596C10.276 12.8896 10.116 13.1596 9.85603 13.3696C9.41603 13.7196 8.51604 13.7696 8.11604 12.9196C7.99604 12.6696 7.94603 12.3996 7.94603 12.1596L7.93604 12.1696ZM9.68604 12.1696C9.68604 11.9796 9.68603 11.7696 9.59603 11.5696C9.51603 11.3696 9.37603 11.2696 9.17603 11.2596C8.97603 11.2596 8.83603 11.3596 8.74603 11.5496C8.66603 11.7196 8.65603 11.9096 8.65603 12.0896C8.65603 12.3296 8.65603 12.5696 8.76603 12.7896C8.85603 12.9696 8.99603 13.0596 9.20603 13.0396C9.37603 13.0196 9.49603 12.9296 9.56603 12.7696C9.65603 12.5796 9.66603 12.3796 9.67603 12.1596L9.68604 12.1696Z" fill="black"/>
<path id="Vector_3" d="M11.0359 14.5996C11.0459 14.1996 11.1359 13.8196 11.4159 13.5196C11.8059 13.0896 12.3659 12.9796 12.8459 13.2596C13.1059 13.4096 13.2959 13.6196 13.3859 13.9096C13.5259 14.3596 13.5559 14.8196 13.3859 15.2596C13.0759 16.0296 12.2559 16.1796 11.7359 15.9096C11.3759 15.7196 11.1759 15.3996 11.0959 15.0096C11.0659 14.8796 11.0659 14.7396 11.0459 14.6096L11.0359 14.5996ZM12.7859 14.4996C12.7859 14.4996 12.7959 14.4996 12.8059 14.4996C12.7659 14.3196 12.7459 14.1296 12.6859 13.9596C12.6259 13.7596 12.4659 13.6796 12.2559 13.6896C12.0359 13.6996 11.8759 13.8396 11.8059 14.0896C11.7359 14.3296 11.7359 14.5796 11.7659 14.8296C11.7859 14.9596 11.8159 15.0896 11.8659 15.1996C11.9359 15.3696 12.0759 15.4596 12.2659 15.4596C12.4559 15.4596 12.5859 15.3696 12.6659 15.1996C12.7659 14.9796 12.7959 14.7396 12.7859 14.4996Z" fill="black"/>
<path id="Vector_4" d="M12.6859 10.7092C12.5259 10.9592 12.3758 11.1992 12.2358 11.4392C11.3058 12.9392 10.3858 14.4292 9.45585 15.9292C9.42585 15.9792 9.38585 16.0092 9.32585 16.0092C9.13585 16.0092 8.95585 16.0092 8.74585 16.0092C8.82585 15.8792 8.89585 15.7692 8.96585 15.6492C9.73585 14.4092 10.5058 13.1692 11.2758 11.9192C11.4758 11.5992 11.6759 11.2892 11.8659 10.9692C11.9159 10.8992 11.9559 10.8192 12.0059 10.7392C12.0159 10.7192 12.0559 10.6992 12.0759 10.6992C12.2759 10.6992 12.4659 10.6992 12.6859 10.6992V10.7092Z" fill="black"/>
<path id="Vector_5" d="M5.37594 13.4096C5.37594 13.5096 5.37594 13.5996 5.37594 13.6996C5.37594 13.8596 5.25594 13.9696 5.10594 13.9696C4.95594 13.9696 4.83594 13.8596 4.83594 13.6996C4.83594 13.5096 4.83594 13.3096 4.83594 13.1196C4.83594 12.9596 4.94594 12.8496 5.11594 12.8496C5.26594 12.8496 5.37594 12.9596 5.37594 13.1196C5.37594 13.2096 5.37594 13.3096 5.37594 13.3996V13.4096Z" fill="black"/>
<path id="Vector_6" d="M5.37595 15.1393C5.37595 15.2293 5.37595 15.3293 5.37595 15.4193C5.37595 15.5793 5.25595 15.6893 5.11595 15.6893C4.95595 15.6893 4.84595 15.5793 4.84595 15.4193C4.84595 15.2293 4.84595 15.0293 4.84595 14.8393C4.84595 14.6893 4.96595 14.5693 5.11595 14.5693C5.26595 14.5693 5.37595 14.6793 5.38595 14.8293C5.38595 14.9293 5.38595 15.0293 5.38595 15.1293L5.37595 15.1393Z" fill="black"/>
<path id="Vector_7" d="M5.37595 11.6896C5.37595 11.7896 5.37595 11.8796 5.37595 11.9796C5.37595 12.1296 5.25595 12.2396 5.11595 12.2396C4.96595 12.2396 4.84595 12.1296 4.84595 11.9796C4.84595 11.7796 4.84595 11.5796 4.84595 11.3796C4.84595 11.2296 4.96595 11.1196 5.11595 11.1196C5.26595 11.1196 5.37595 11.2296 5.38595 11.3796C5.38595 11.4796 5.38595 11.5796 5.38595 11.6796L5.37595 11.6896Z" fill="black"/>
<path id="Vector_8" d="M6.20605 4.45956C6.23605 4.39956 6.25605 4.33957 6.29605 4.28957C6.41605 4.14957 6.54606 4.00956 6.67606 3.86956C6.79606 3.74956 6.96606 3.73957 7.07606 3.84957C7.18606 3.95957 7.18606 4.11957 7.07606 4.23957C6.94606 4.37957 6.81606 4.51956 6.68606 4.65956C6.60606 4.73956 6.49606 4.75956 6.38605 4.70956C6.28605 4.65956 6.22606 4.57956 6.21606 4.45956H6.20605Z" fill="black"/>
<path id="Vector_9" d="M5.66588 5.03955C5.81588 5.03955 5.90588 5.08955 5.95588 5.18955C6.00588 5.28955 5.99588 5.38955 5.92588 5.46955C5.78588 5.62955 5.64588 5.77955 5.49588 5.92955C5.39588 6.02955 5.22588 6.01955 5.12588 5.92955C5.02588 5.82955 5.01588 5.66955 5.10588 5.56955C5.23588 5.41955 5.37588 5.26955 5.51588 5.12955C5.56588 5.07955 5.63588 5.05955 5.66588 5.04955V5.03955Z" fill="black"/>
<path id="Vector_10" d="M4.81604 6.57924C4.78604 6.63924 4.75604 6.71924 4.71604 6.76924C4.59604 6.90924 4.46603 7.03924 4.34603 7.16924C4.23603 7.28924 4.06604 7.28924 3.95604 7.18924C3.84604 7.08924 3.84604 6.91924 3.95604 6.79924C4.08604 6.65924 4.22604 6.50924 4.35604 6.36924C4.43604 6.28924 4.54604 6.27924 4.64604 6.31924C4.74604 6.36924 4.79604 6.44924 4.82604 6.56924L4.81604 6.57924Z" fill="black"/>
</g>
</g>
</svg>
