<svg width="25" height="24" viewBox="0 0 25 24" fill="none" xmlns="http://www.w3.org/2000/svg">
<g id="Social/Facebook">
<path id="Vector" d="M24.941 11.9752C24.9764 18.5727 19.592 23.9786 12.9731 23.9999C6.36848 24.0283 0.962753 18.6793 0.94147 12.0888C0.920188 5.4203 6.21952 0.0429056 12.8738 0.000340757C19.4856 -0.0493183 24.9055 5.33505 24.941 11.9752ZM16.3854 13.5218C16.5486 12.4932 16.7047 11.4999 16.8749 10.4358H13.9805C13.9805 9.59869 13.9592 8.82569 13.9876 8.04534C14.0089 7.50618 14.3565 7.1442 14.8531 6.97394C15.144 6.87462 15.4703 6.84627 15.7824 6.82499C16.1726 6.80371 16.5628 6.82499 16.953 6.82499V4.17889C16.2081 4.17889 15.4987 4.17889 14.7822 4.17889C14.321 4.17889 13.8528 4.1504 13.4059 4.24263C11.9019 4.54058 10.8307 5.87427 10.7101 7.59814C10.6533 8.39978 10.6888 9.20879 10.6746 10.0104C10.6746 10.1452 10.6604 10.287 10.6463 10.4573H7.94339V13.5291H10.6888V21.0417H13.9805V13.5218H16.3854Z" fill="white"/>
<path id="Vector_2" d="M16.3873 13.5219H13.9824V21.0417H10.6907V13.5291H7.94531V10.4573H10.6482C10.6624 10.2871 10.6766 10.1453 10.6766 10.0105C10.6837 9.20884 10.6553 8.39983 10.712 7.59819C10.8326 5.87431 11.9039 4.54062 13.4078 4.24267C13.8547 4.15754 14.323 4.18603 14.7841 4.17893C15.4935 4.17184 16.2029 4.17893 16.9549 4.17893V6.82504C16.5647 6.82504 16.1745 6.80375 15.7844 6.82504C15.4722 6.84632 15.1459 6.87467 14.855 6.97399C14.3584 7.14425 14.0108 7.50623 13.9895 8.04538C13.9541 8.81864 13.9824 9.59874 13.9824 10.4358H16.8768C16.7066 11.5 16.5505 12.4932 16.3873 13.5219Z" fill="#BF2231"/>
</g>
</svg>
