<svg width="66" height="65" viewBox="0 0 66 65" fill="none" xmlns="http://www.w3.org/2000/svg">
<g id="Group 17866">
<path id="Vector" d="M0.519132 32.4793C-0.111907 15.5701 14.9467 -0.515101 33.948 0.0126373C51.1209 0.486525 65.4622 14.9185 65.4999 32.5332C65.5323 50.417 50.7757 65.0591 32.7129 64.9998C15.1679 64.9406 0.0121434 50.1101 0.519132 32.4793Z" fill="#BF2231"/>
<g id="Group">
<path id="Vector_2" d="M33.4711 20.5341C35.4344 20.5341 37.3275 20.9326 39.102 21.7188C41.734 22.882 43.9884 24.8853 45.4555 27.3678C46.7176 29.4949 47.3864 31.9397 47.3864 34.4276C47.3864 42.0852 41.1461 48.3212 33.4711 48.3212C25.7962 48.3212 19.5559 42.0906 19.5559 34.4276C19.5559 31.9397 20.2247 29.4949 21.4868 27.3678C22.9538 24.8907 25.2083 22.8874 27.8403 21.7242C29.6094 20.938 31.5025 20.5395 33.4657 20.5395M33.4711 19.0532C31.2544 19.0532 29.1456 19.5217 27.2417 20.3672C24.2914 21.6704 21.8374 23.8675 20.2139 26.6139C18.8548 28.9025 18.0781 31.5735 18.0781 34.4276C18.0781 42.9199 24.971 49.802 33.4765 49.802C41.9821 49.802 48.875 42.9199 48.875 34.4276C48.875 31.5735 48.0983 28.9025 46.7391 26.6139C45.1157 23.8675 42.6563 21.6704 39.7114 20.3672C37.8075 19.5217 35.6987 19.0532 33.4819 19.0532H33.4711Z" fill="#FFEED6"/>
<path id="Vector_3" d="M39.8067 42.0851C39.618 42.0851 39.4292 42.0151 39.2835 41.8697L32.9462 35.5423C32.806 35.4022 32.7305 35.2138 32.7305 35.0199V24.1528C32.7305 23.7435 33.0649 23.4097 33.4748 23.4097C33.8847 23.4097 34.2191 23.7435 34.2191 24.1528V34.7183L40.3407 40.8304C40.6319 41.1212 40.6319 41.5897 40.3407 41.8751C40.1951 42.0205 40.0063 42.0905 39.8175 42.0905L39.8067 42.0851Z" fill="#FFEED6"/>
<path id="Vector_4" d="M18.4277 25.5682C18.2767 25.5682 18.1311 25.5252 18.0071 25.439C16.5023 24.3943 15.6016 22.6818 15.6016 20.8509C15.6016 17.776 18.1095 15.2773 21.1892 15.2773C23.2603 15.2773 25.148 16.4082 26.1189 18.2338C26.216 18.4169 26.2322 18.6269 26.1674 18.8207C26.1027 19.0146 25.9571 19.1708 25.7683 19.2569C22.996 20.4847 20.6175 22.5957 19.075 25.2021C18.9725 25.3798 18.7945 25.5036 18.5949 25.5467C18.541 25.5575 18.4871 25.5629 18.4385 25.5629L18.4277 25.5682ZM21.1838 16.7582C18.9239 16.7582 17.0794 18.5946 17.0794 20.8509C17.0794 21.9333 17.5055 22.9565 18.2498 23.7158C19.7923 21.3948 21.885 19.5369 24.3714 18.2768C23.6001 17.3237 22.4351 16.7582 21.1838 16.7582Z" fill="#FFEED6"/>
<path id="Vector_5" d="M48.4864 25.5956C48.4325 25.5956 48.3786 25.5902 48.33 25.5794C48.1305 25.5363 47.9525 25.4071 47.85 25.2348C46.3075 22.6284 43.929 20.5121 41.1567 19.2896C40.9679 19.2089 40.8223 19.0473 40.7576 18.8535C40.6929 18.6596 40.709 18.4442 40.8061 18.2611C41.7769 16.4356 43.6701 15.3047 45.7412 15.3047C48.8209 15.3047 51.3234 17.8034 51.3234 20.8782C51.3234 22.7092 50.4227 24.4216 48.918 25.4663C48.7939 25.5525 48.6429 25.5956 48.4972 25.5956H48.4864ZM42.5428 18.3042C45.0292 19.5643 47.1219 21.4221 48.6644 23.7431C49.4087 22.9838 49.8348 21.9606 49.8348 20.8782C49.8348 18.6219 47.9957 16.7856 45.7358 16.7856C44.4791 16.7856 43.3141 17.351 42.5428 18.3042Z" fill="#FFEED6"/>
<path id="Vector_6" d="M33.4709 18.8641C33.061 18.8641 32.7266 18.5302 32.7266 18.1209V16.2954C32.7266 15.8861 33.061 15.5522 33.4709 15.5522C33.8808 15.5522 34.2152 15.8861 34.2152 16.2954V18.1209C34.2152 18.5302 33.8808 18.8641 33.4709 18.8641Z" fill="#FFEED6"/>
<path id="Vector_7" d="M36.7885 16.5649H30.1545C29.7446 16.5649 29.4102 16.231 29.4102 15.8218C29.4102 15.4125 29.7446 15.0786 30.1545 15.0786H36.7885C37.1984 15.0786 37.5328 15.4125 37.5328 15.8218C37.5328 16.231 37.1984 16.5649 36.7885 16.5649Z" fill="#FFEED6"/>
</g>
</g>
</svg>
