<svg width="39" height="35" viewBox="0 0 39 35" fill="none" xmlns="http://www.w3.org/2000/svg">
<path d="M13.6717 10.2543H24.6766C24.5775 9.8136 24.3367 9.48666 24.1526 9.11708C22.977 6.74324 21.7873 4.38361 20.6117 2.00976C20.2435 1.25639 20.4418 0.559868 21.1074 0.232931C21.7306 -0.0797907 22.3821 0.190288 22.7646 0.943663C24.2517 3.90031 25.7389 6.84274 27.1977 9.79939C27.3677 10.1548 27.5659 10.2827 27.9625 10.2827C30.2853 10.2685 32.6081 10.2543 34.9309 10.2827C36.3331 10.2827 37.6503 11.2777 38.1601 12.6139C38.7267 14.1064 38.4009 15.7695 37.3387 16.7219C36.8854 17.1484 36.3331 17.4042 35.7382 17.4611C35.3841 17.4895 35.2708 17.6601 35.1858 17.9444C33.8403 22.223 32.4948 26.5016 31.1351 30.766C30.3986 33.083 28.7132 34.3054 26.3196 34.3196C21.5748 34.3196 16.8443 34.277 12.0995 34.3339C9.72009 34.3623 7.85052 32.7134 7.26983 30.7802C5.9668 26.4874 4.57879 22.223 3.23327 17.9586C3.16245 17.7312 3.13412 17.5321 2.7942 17.4753C-0.321741 17.0489 -0.576682 13.5094 0.783002 11.8036C1.53366 10.8655 2.49677 10.3822 3.71482 10.3822C5.92431 10.3822 8.13379 10.3822 10.3433 10.3822C10.7965 10.3822 11.0373 10.2543 11.2356 9.84203C12.7086 6.82853 14.224 3.82924 15.7254 0.815732C16.0936 0.090785 16.7026 -0.165079 17.3258 0.105C17.9065 0.360863 18.1898 0.986307 17.9773 1.59754C17.9065 1.79654 17.8215 1.98133 17.7224 2.16612C16.4477 4.69633 15.173 7.22653 13.9124 9.75674C13.8416 9.88467 13.785 10.0268 13.7 10.2258L13.6717 10.2543ZM19.1529 31.9316C21.5182 31.9316 23.8693 31.9316 26.2346 31.9316C27.6509 31.9316 28.4441 31.3203 28.869 29.97C30.2428 25.6203 31.6167 21.2848 32.9905 16.9351C33.3446 15.8406 34.0528 15.2009 35.2142 15.1157C35.5116 15.1014 35.7665 15.0019 35.9082 14.7034C36.3189 13.7653 35.724 12.6992 34.7184 12.685C32.8347 12.6423 30.9368 12.685 29.0389 12.6707C28.7415 12.6707 28.6707 12.7845 28.8123 13.0545C29.0956 13.6516 29.3505 14.2486 29.7046 14.8029C30.172 15.5563 30.0587 16.395 29.4213 17.0062C28.8265 17.589 27.8775 17.6743 27.1977 17.2052C26.5037 16.7361 26.1213 15.798 26.532 15.0872C26.8578 14.5186 26.702 14.1206 26.4329 13.6516C26.3196 13.4525 26.2204 13.2535 26.1354 13.0403C26.0221 12.7702 25.8522 12.6423 25.5406 12.6423C21.3057 12.6423 17.0709 12.6423 12.836 12.6423C12.6944 12.6423 12.4961 12.5855 12.4253 12.7418C12.1562 13.2393 11.9012 13.7368 11.6605 14.2486C11.5188 14.5329 11.7879 14.7319 11.8871 14.9735C12.1845 15.7269 11.9296 16.6082 11.2639 17.0773C10.5699 17.5748 9.60678 17.5321 8.98359 16.9493C8.37457 16.395 8.2471 15.5137 8.64367 14.7887C8.9411 14.2486 9.21021 13.6942 9.50764 13.154C9.73425 12.756 9.62095 12.6423 9.18188 12.6423C7.3973 12.6565 5.62688 12.6423 3.84229 12.6423C3.58735 12.6423 3.34657 12.685 3.13412 12.7702C2.53926 13.0119 2.29848 13.6373 2.42595 14.5044C2.48261 14.9167 2.76587 15.073 3.13412 15.0872C4.33801 15.1725 5.04618 15.8264 5.40026 16.9493C6.77411 21.299 8.14795 25.6345 9.5218 29.9842C9.93254 31.2919 10.7399 31.9174 12.1279 31.9174C14.4648 31.9174 16.8159 31.9174 19.1529 31.9174V31.9316Z" fill="#BF2231"/>
<path d="M14.3238 28.3213C13.9414 28.3213 13.5165 28.0655 13.3182 27.4969C12.5109 25.0946 11.7178 22.7066 10.9246 20.3043C10.7122 19.6504 11.0379 18.9823 11.6186 18.7691C12.2843 18.5274 12.9642 18.826 13.2049 19.5367C14.0123 21.9247 14.8054 24.327 15.5844 26.7435C15.8535 27.5822 15.3294 28.3213 14.3238 28.3355V28.3213Z" fill="#BF2231"/>
<path d="M23.9123 28.3211C23.0767 28.3211 22.5951 27.5962 22.8784 26.6865C23.5441 24.6538 24.2239 22.6353 24.8896 20.6026C25.0171 20.2046 25.1304 19.8066 25.2862 19.437C25.5411 18.8258 26.2209 18.5415 26.83 18.7831C27.4107 19.0106 27.7364 19.636 27.524 20.2472C26.745 22.6495 25.9518 25.0518 25.1445 27.4541C24.9462 28.0511 24.5213 28.3211 23.9123 28.3211Z" fill="#BF2231"/>
<path d="M20.4127 23.5311C20.4127 24.6399 20.4127 25.7486 20.4127 26.8573C20.4127 27.7529 19.9453 28.3214 19.2088 28.3214C18.444 28.3214 17.9766 27.7671 17.9766 26.8289C17.9766 24.6114 17.9766 22.3939 17.9766 20.1765C17.9766 19.2667 18.4298 18.7266 19.1804 18.7266C19.9594 18.7266 20.4127 19.2525 20.4127 20.2049C20.4127 21.3136 20.4127 22.4224 20.4127 23.5311Z" fill="#BF2231"/>
<path d="M21.7441 0.0195312H16.6736C16.1182 0.0195312 15.668 0.471383 15.668 1.02877V1.04299C15.668 1.60037 16.1182 2.05222 16.6736 2.05222H21.7441C22.2994 2.05222 22.7497 1.60037 22.7497 1.04299V1.02877C22.7497 0.471383 22.2994 0.0195312 21.7441 0.0195312Z" fill="#BF2231"/>
</svg>
