<svg width="66" height="65" viewBox="0 0 66 65" fill="none" xmlns="http://www.w3.org/2000/svg">
<g id="Group 17864">
<path id="Vector" d="M0.519132 32.4798C-0.111907 15.5706 14.9467 -0.514613 33.948 0.0131256C51.1209 0.487013 65.4622 14.919 65.4999 32.5336C65.5323 50.4175 50.7757 65.0595 32.7129 65.0003C15.1679 64.9411 0.0121434 50.1106 0.519132 32.4798Z" fill="#BF2231"/>
<g id="WmTeu2">
<g id="Group">
<path id="Vector_2" d="M27.3676 45.7405C30.4635 45.7782 33.2303 44.9866 35.8732 43.6781C38.3596 42.4503 40.5763 40.8455 42.5125 38.8584C44.0281 37.3021 45.3064 35.5843 46.0938 33.5433C46.4282 32.6709 46.6332 31.7662 46.6278 30.8239C46.6278 30.6246 46.6925 30.5008 46.8705 30.3931C47.5716 29.973 48.2566 29.5207 48.9632 29.106C49.4054 28.8475 49.8531 28.7775 50.3655 29.0468C50.6729 29.2083 51.0774 29.2191 51.4388 29.2191C51.881 29.2191 52.086 28.9983 52.1453 28.5998C52.1993 28.2282 51.9889 27.8459 51.6599 27.679C51.4442 27.5659 51.2176 27.4528 51.0397 27.2912C50.7862 27.0543 50.6783 26.7366 50.6945 26.3758C50.6999 26.1658 50.7214 25.9234 50.619 25.7565C50.5057 25.568 50.2792 25.3526 50.0796 25.3311C49.907 25.3095 49.5942 25.498 49.5349 25.6649C49.3569 26.1388 49.2005 26.645 49.1681 27.1458C49.1358 27.582 48.9955 27.9105 48.6719 28.1582C47.9869 28.6806 47.2858 29.1922 46.5738 29.6768C46.2179 29.9192 45.781 29.9622 45.4196 29.7307C44.5513 29.1653 43.629 29.1814 42.6959 29.4453C40.6626 30.0215 38.7641 30.8992 36.9896 32.0409C35.4039 33.0641 34.0987 34.378 33.0362 35.9343C32.7449 36.3651 32.3134 36.4674 31.9035 36.2089C31.5314 35.972 31.4559 35.5089 31.7363 35.0888C32.8312 33.4464 34.1958 32.0624 35.83 30.9585C37.7932 29.6284 39.9237 28.6267 42.1997 27.9698C43.4025 27.6251 44.6106 27.5659 45.781 28.1475C45.8727 28.1905 46.0453 28.1636 46.137 28.1044C46.5685 27.819 46.9891 27.5174 47.3937 27.1997C47.5015 27.1189 47.5716 26.9466 47.5932 26.812C47.7065 26.0634 47.8251 25.3203 48.289 24.6956C48.8877 23.8825 49.783 23.5755 50.6891 23.8448C51.4981 24.0817 52.1831 24.9595 52.2316 25.8642C52.2478 26.1442 52.3449 26.2896 52.5876 26.435C53.4883 26.9628 53.882 28.0505 53.6016 29.1276C53.3373 30.1453 52.5229 30.7808 51.3471 30.7915C50.8671 30.7969 50.3817 30.6354 49.8962 30.5654C49.7668 30.5438 49.632 30.5761 49.4971 30.5869C49.4755 30.5869 49.4594 30.6085 49.4378 30.6192C49.0495 30.8669 48.5533 31.0339 48.3052 31.3839C48.0624 31.7178 48.0732 32.2347 47.9815 32.6709C47.6256 34.3511 46.8867 35.8697 45.9104 37.2698C43.5912 40.5924 40.5331 43.0749 36.9626 44.9543C34.7837 46.1013 32.4806 46.8983 30.0428 47.2753C28.4733 47.5176 26.9038 47.4422 25.3397 47.2861C23.8511 47.1407 22.3894 46.8499 20.9547 46.4352C18.3011 45.6651 16.0305 44.2866 14.2776 42.1271C13.0802 40.657 12.4492 38.9715 12.3737 37.0652C12.2874 34.8842 13.0641 33.0264 14.4286 31.3893C16.1114 29.3645 18.2958 28.0721 20.7498 27.2105C23.4411 26.2681 26.2134 25.9073 29.0612 26.0904C30.7763 26.1981 32.486 26.365 34.1257 26.9251C35.1396 27.2697 36.0835 27.7651 36.9734 28.3521C37.3941 28.6321 37.5182 28.9983 37.3564 29.386C37.2054 29.7468 36.844 29.9569 36.4556 29.8653C36.2884 29.8276 36.1428 29.7091 35.9972 29.6122C34.2227 28.449 32.2595 27.8998 30.1614 27.7813C28.565 27.6897 26.9739 27.6682 25.3882 27.8567C22.1683 28.2444 19.1533 29.1868 16.6561 31.3624C15.297 32.5471 14.2992 33.9795 14.0025 35.8051C13.7005 37.6575 14.1158 39.3538 15.2484 40.8401C16.1761 42.0518 17.3411 43.0318 18.6733 43.775C19.8976 44.4643 21.219 44.9166 22.5998 45.2236C24.2124 45.579 25.8359 45.6921 27.3568 45.7352L27.3676 45.7405Z" fill="#FFEED6"/>
<path id="Vector_3" d="M35.5555 22.0133C36.2081 22.0994 36.8661 22.191 37.5242 22.261C37.686 22.2771 37.8585 22.2179 38.0257 22.1748C38.1174 22.1479 38.1983 22.0725 38.29 22.024C39.0235 21.6471 39.509 21.1678 39.4982 20.2308C39.4874 19.5254 39.7948 18.8576 40.3557 18.3514C41.3859 17.4144 42.95 17.6352 43.6404 18.8522C43.8291 19.1861 43.9047 19.5792 44.0503 19.9346C44.088 20.0316 44.1743 20.1339 44.266 20.1877C45.1506 20.6939 45.6791 21.4209 45.6629 22.471C45.6468 23.6773 44.8269 24.625 43.6188 24.7489C43.0848 24.8027 42.5293 24.695 41.9846 24.6735C41.8605 24.6681 41.7095 24.6681 41.6124 24.7273C41.2942 24.932 40.9814 25.1582 40.6901 25.4005C40.6092 25.4651 40.5823 25.632 40.5823 25.7505C40.6038 26.5421 40.5068 27.3068 40.0052 27.9476C39.8056 28.2061 39.5467 28.4431 39.2662 28.6208C38.8995 28.8577 38.4518 28.7446 38.2199 28.4161C37.9502 28.0338 37.9772 27.6299 38.3601 27.3445C38.9049 26.9406 39.0181 26.3806 38.9319 25.7882C38.8348 25.0881 38.9534 24.5443 39.606 24.1511C40.0968 23.8603 40.5337 23.4834 41.0137 23.1711C41.3967 22.918 41.7904 22.8587 42.2596 23.0203C42.6264 23.1441 43.0471 23.1711 43.4354 23.1334C43.8399 23.0957 44.0125 22.8372 44.0341 22.4495C44.0557 22.0887 43.8453 21.7871 43.5001 21.6363C43.279 21.5394 43.0579 21.4317 42.8637 21.2917C42.5509 21.0655 42.4592 20.7208 42.4268 20.3493C42.4107 20.1446 42.3729 19.9239 42.2866 19.7408C42.087 19.3261 41.5962 19.31 41.3481 19.7031C41.0245 20.2093 40.9868 20.7855 41.0353 21.3563C41.0677 21.7548 40.976 22.0779 40.6578 22.3041C39.8811 22.8533 39.1098 23.4134 38.2954 23.9088C38.0959 24.0327 37.7453 23.9788 37.4864 23.9196C36.192 23.6396 34.9029 23.5965 33.6193 23.9681C32.67 24.2427 31.8232 24.7112 31.0358 25.3089C30.5018 25.7128 29.7953 25.4059 29.7198 24.7543C29.682 24.3989 29.8654 24.1511 30.1297 23.9573C31.7423 22.7564 33.5222 22.051 35.5663 22.024L35.5555 22.0133Z" fill="#FFEED6"/>
<path id="Vector_4" d="M25.8813 29.4873C26.2696 29.5088 26.5717 29.5196 26.8737 29.5412C27.3699 29.5789 27.6935 29.9235 27.6666 30.4028C27.645 30.8551 27.289 31.1782 26.809 31.1567C25.8975 31.119 24.986 31.1244 24.1014 31.3559C21.7229 31.9752 19.792 33.2622 18.3736 35.2763C18.2225 35.4917 18.1362 35.7555 18.0661 36.014C17.9259 36.5041 17.516 36.8218 17.0899 36.7302C16.6045 36.6225 16.351 36.2133 16.4643 35.6748C16.6315 34.8724 17.0737 34.21 17.5915 33.6015C19.7866 31.0274 22.5643 29.6273 25.8813 29.4927V29.4873Z" fill="#FFEED6"/>
</g>
</g>
</g>
</svg>
