<svg width="66" height="65" viewBox="0 0 66 65" fill="none" xmlns="http://www.w3.org/2000/svg">
<g id="Group 17863">
<path id="Vector" d="M0.788663 32.4793C0.157624 15.5701 15.2163 -0.515101 34.2175 0.0126373C51.3904 0.486525 65.7317 14.9185 65.7695 32.5332C65.8018 50.417 51.0452 65.0591 32.9824 64.9998C15.4374 64.9406 0.281675 50.1101 0.788663 32.4793Z" fill="#BF2231"/>
<g id="6KUemh">
<g id="Group">
<path id="Vector_2" d="M41.2797 17.4653C41.6033 16.9161 41.8514 16.3722 42.2074 15.9091C42.5364 15.4783 42.9624 15.1228 43.3616 14.7566C43.5935 14.5412 43.8955 14.4066 44.1436 14.7082C44.4133 15.0367 44.1868 15.2844 43.9171 15.489C42.4932 16.566 41.97 18.0792 41.8244 19.7755C41.8244 19.8186 41.846 19.8617 41.8568 19.9102C42.5903 19.7594 43.3184 19.5709 44.0519 19.4686C47.2341 19.0324 50.5133 20.8795 51.8509 23.809C53.0645 26.4692 52.9512 29.1564 52.0505 31.8597C51.2091 34.3853 50.001 36.7009 47.9946 38.521C46.6084 39.7757 45.0012 40.562 43.1081 40.6912C43.0487 40.6912 42.9948 40.7235 42.8815 40.7558C43.6097 42.0644 43.7499 43.4107 43.2375 44.7946C42.8815 45.764 42.2613 46.5233 41.3822 47.0887C39.8396 48.0795 37.2184 48.3596 35.1149 46.0009C34.225 47.0941 33.0816 47.7403 31.6631 47.8211C30.2554 47.9018 29.058 47.4064 28.0333 46.4371C26.3775 47.8426 24.5544 48.2034 22.6182 47.2018C20.6765 46.2002 19.943 44.4931 20.121 42.409C19.4846 42.2206 18.8751 42.0859 18.298 41.8598C17.5537 41.569 16.9604 41.052 16.5074 40.3896C16.324 40.1204 16.173 40.0935 15.8601 40.1958C14.8677 40.5243 13.8538 40.8043 12.8398 41.0682C12.3813 41.1866 12.171 41.0143 12.1063 40.535C11.9121 39.0488 12.2465 37.7079 13.2227 36.5501C13.2713 36.4908 13.3144 36.4262 13.3899 36.3239C13.2389 36.2377 13.1095 36.1624 12.98 36.0977C11.691 35.4354 10.8873 34.3853 10.4882 33.0121C10.3426 32.5113 10.4559 32.3389 10.9736 32.2097C13.0232 31.7035 15.0889 31.5958 17.1761 31.9889C17.2786 32.0105 17.3865 32.0105 17.5699 32.0266C17.2678 31.6443 17.009 31.3212 16.7555 30.9873C15.4233 29.2425 14.7707 27.2447 14.4902 25.096C14.4524 24.8052 14.5549 24.5413 14.8462 24.5521C15.0349 24.5575 15.3154 24.7514 15.3855 24.9237C15.515 25.2522 15.515 25.6291 15.5851 25.9792C16.0166 28.1494 16.928 30.0718 18.5407 31.6281C18.7133 31.7951 18.9129 31.9405 19.1664 32.1505C19.0477 29.431 20.1048 27.5085 22.7261 26.83C24.9751 26.2484 26.728 27.2016 27.9362 29.0864C28.5456 28.7309 29.1443 28.4078 29.7106 28.0255C29.8293 27.9447 29.8563 27.6755 29.8724 27.487C29.9911 25.6184 30.4873 23.879 31.6469 22.3765C32.8874 20.7718 34.5054 19.7809 36.5226 19.4686C36.6089 19.4524 36.7006 19.4309 36.7545 19.4147C36.4147 18.6662 35.9725 17.9662 35.7675 17.2015C35.5194 16.2752 35.4547 15.3005 35.3468 14.3366C35.2983 13.922 35.6111 13.8304 35.9617 13.8035C38.1407 13.6581 40.1524 14.902 41.0532 16.9645C41.1179 17.1207 41.1934 17.2715 41.2689 17.4438L41.2797 17.4653ZM35.9401 33.4214C36.0911 33.459 36.2044 33.4967 36.3231 33.5237C37.7092 33.836 38.7879 34.563 39.4944 35.8177C39.9313 36.5878 40.1255 37.4171 40.0823 38.2948C40.0661 38.591 40.1848 38.6826 40.4329 38.7957C40.9129 39.0111 41.3606 39.3019 41.8352 39.5442C42.0186 39.6411 42.2289 39.7488 42.4285 39.7488C44.1814 39.7919 45.7563 39.2265 47.0507 38.0794C50.0873 35.3761 51.5543 31.9028 51.7916 27.8963C51.8833 26.3292 51.4572 24.8429 50.6158 23.5182C48.7874 20.6372 45.3302 19.5601 42.1804 20.8956C41.5655 21.1541 41.0855 21.1649 40.4599 20.8956C38.8202 20.1902 37.1051 20.104 35.417 20.7502C32.8011 21.7519 31.4365 23.7659 30.9457 26.4477C30.8702 26.8677 30.8594 27.2985 30.8163 27.7347C34.3922 27.6055 36.5118 30.5296 35.9401 33.4214ZM27.6719 33.4214C25.6493 33.3513 23.9342 34.9615 23.8479 37.0132C23.7616 39.0272 25.412 40.7881 27.4292 40.8474C29.5326 40.9066 31.2424 39.2965 31.3017 37.2071C31.3556 35.1769 29.743 33.4967 27.6773 33.4214H27.6719ZM38.3996 46.8733C40.6001 46.9218 42.0887 45.7263 42.5202 43.8792C42.8923 42.2906 41.9754 40.5081 40.4059 39.7757C38.8634 39.0541 36.9703 39.555 35.9024 40.9551C35.7244 41.192 35.692 41.3967 35.7945 41.6821C36.1505 42.6729 36.1451 43.6853 35.7945 44.6762C35.6812 44.9939 35.7406 45.2093 35.9293 45.4462C36.6575 46.3509 37.5959 46.841 38.3888 46.8733H38.3996ZM35.1095 43.5022C35.1095 41.3697 33.8097 39.8188 32.0136 39.5388C31.8357 39.5119 31.5498 39.6303 31.4419 39.7757C30.6437 40.842 29.6135 41.5151 28.2975 41.7305C28.0279 41.7736 27.893 41.8867 27.8229 42.1506C27.4238 43.6638 27.8121 44.967 28.9717 45.974C30.1853 47.0241 31.5984 47.1856 33.0546 46.5017C34.4407 45.8501 35.0394 44.6708 35.1149 43.5076L35.1095 43.5022ZM16.5883 37.1855C16.4912 39.555 18.1362 41.3213 20.0832 41.3482C20.2504 41.3482 20.4985 41.1974 20.5741 41.0466C21.0703 40.0288 21.8469 39.3126 22.8663 38.8495C23.1306 38.731 23.1683 38.6018 23.0928 38.3487C22.8447 37.5356 22.8231 36.7062 23.1036 35.9039C23.2492 35.4838 23.1252 35.2307 22.8285 34.9669C21.615 33.8952 20.2397 33.6475 18.7672 34.2883C17.3326 34.9076 16.6584 36.087 16.5937 37.1855H16.5883ZM23.7994 34.3745C24.4574 33.529 25.3311 32.8828 26.4584 32.6028C26.5608 32.5759 26.6579 32.3982 26.6903 32.2743C26.8575 31.6604 26.9707 31.0304 27.1703 30.4326C27.2674 30.1364 27.2728 29.9103 27.1271 29.641C26.2534 28.0524 24.4196 27.2662 22.7908 27.7939C20.9462 28.3917 19.9106 30.018 20.1641 31.9189C20.2882 32.829 20.3799 32.9313 21.2482 33.1144C21.4154 33.1521 21.5934 33.1844 21.739 33.2598C22.4078 33.6098 23.0712 33.9814 23.7994 34.3745ZM26.9222 41.7682C26.6903 41.7036 26.4853 41.639 26.275 41.5851C25.2826 41.3266 24.4682 40.7828 23.8803 39.9535C23.6268 39.5927 23.4218 39.5819 23.0766 39.7704C21.7121 40.5189 21.0217 41.6713 21.0541 43.2114C21.0918 44.7193 21.8469 45.8447 23.2115 46.464C24.5922 47.0941 25.9244 46.8894 27.1433 45.9632C27.413 45.7586 27.413 45.5809 27.262 45.2955C26.7604 44.3531 26.5932 43.3514 26.8197 42.3013C26.8521 42.1344 26.8844 41.9675 26.9222 41.7628V41.7682ZM31.7925 35.1446C32.6447 34.2722 33.5454 33.6906 34.6726 33.4914C34.8129 33.4644 34.9963 33.2113 35.0178 33.039C35.2228 31.612 34.7913 30.4057 33.6371 29.5225C32.4074 28.5802 31.0752 28.4778 29.6675 29.1294C28.5133 29.6626 27.5209 31.1865 27.6935 32.452C29.4949 32.6297 30.9242 33.4267 31.7925 35.15V35.1446ZM35.2282 40.3358C35.2498 40.2981 35.2713 40.2173 35.3253 40.1581C36.2529 39.1403 37.391 38.5479 38.7825 38.5156C39.1223 38.5049 39.1546 38.3433 39.1492 38.0687C39.1331 36.5716 38.2108 35.2146 36.7977 34.6384C35.4817 34.0999 33.7935 34.4337 32.7957 35.4677C32.5422 35.7262 32.2618 36.0654 32.224 36.3993C32.1377 37.0994 32.197 37.8156 32.197 38.5372C32.6447 38.7203 33.2218 38.8926 33.7288 39.1888C34.2358 39.485 34.6673 39.8996 35.2282 40.3412V40.3358ZM13.0447 40.1419C13.9131 39.8673 14.6951 39.6088 15.488 39.3665C15.7846 39.2749 15.844 39.1295 15.7684 38.8118C15.2345 36.6309 16.2053 34.5414 18.2117 33.4914C18.2872 33.4483 18.3627 33.3998 18.4544 33.3406C16.9874 32.6028 12.829 32.4843 11.486 33.1629C11.7611 33.5829 12.0092 34.0191 12.3112 34.4068C12.8236 35.0638 13.5571 35.3815 14.3338 35.6185C14.9325 35.8016 15.008 36.1731 14.5495 36.6039C14.3661 36.7763 14.172 36.9378 14.0048 37.1209C13.2767 37.9448 12.9369 38.898 13.0447 40.1365V40.1419ZM40.7673 19.894C40.7134 17.0507 38.9173 14.6705 36.3015 14.832C36.3878 16.5176 36.7707 18.0685 38.0813 19.2586C38.1676 19.3394 38.2863 19.4094 38.3996 19.4363C39.1762 19.5978 39.9583 19.7432 40.7673 19.8994V19.894Z" fill="#FFEED6" stroke="#FFEED6" stroke-width="0.204561" stroke-miterlimit="10"/>
<path id="Vector_3" d="M49.8959 28.2838C49.8959 29.7163 49.5453 30.9117 49.1192 32.0965C49.0113 32.3926 48.801 32.5327 48.4936 32.425C48.2077 32.3226 48.1538 32.0803 48.2401 31.8057C48.4234 31.1918 48.6392 30.5833 48.774 29.9586C49.1516 28.2031 48.9682 26.5283 47.8949 25.0312C47.2261 24.0942 46.3308 23.4642 45.2197 23.1465C45.1442 23.1249 45.0687 23.1088 44.9932 23.0818C44.7181 22.9903 44.5132 22.791 44.648 22.5272C44.7343 22.3602 45.0525 22.1718 45.2143 22.2095C45.7537 22.3495 46.3092 22.5218 46.7892 22.8018C48.9358 24.0619 49.8419 26.0221 49.8959 28.2838Z" fill="#FFEED6" stroke="#FFEED6" stroke-width="0.204561" stroke-miterlimit="10"/>
<path id="Vector_4" d="M46.4745 36.0814C46.0916 36.0652 45.8759 35.6936 46.0862 35.3921C46.4098 34.9343 46.7712 34.4981 47.1595 34.0943C47.2458 34.0027 47.537 34.0027 47.6557 34.0781C47.7744 34.1589 47.8984 34.4604 47.8445 34.5358C47.4777 35.0528 47.0624 35.5375 46.6579 36.0221C46.6202 36.0706 46.5123 36.0652 46.4745 36.076V36.0814Z" fill="#FFEED6" stroke="#FFEED6" stroke-width="0.204561" stroke-miterlimit="10"/>
</g>
</g>
</g>
</svg>
