<svg width="24" height="25" viewBox="0 0 24 25" fill="none" xmlns="http://www.w3.org/2000/svg">
<path fill-rule="evenodd" clip-rule="evenodd" d="M17.6529 16.7387C20.2892 13.4025 20.0672 8.54639 16.987 5.46615C13.6675 2.1467 8.28561 2.1467 4.96615 5.46615C1.6467 8.78561 1.6467 14.1675 4.96615 17.487C8.04639 20.5672 12.9025 20.7892 16.2387 18.1529L19.8154 21.7296C20.2059 22.1201 20.8391 22.1201 21.2296 21.7296C21.6201 21.3391 21.6201 20.7059 21.2296 20.3154L17.6529 16.7387ZM15.5728 6.88037C18.1112 9.41878 18.1112 13.5343 15.5728 16.0728C13.0343 18.6112 8.91878 18.6112 6.38037 16.0728C3.84196 13.5343 3.84196 9.41878 6.38037 6.88037C8.91878 4.34196 13.0343 4.34196 15.5728 6.88037Z" fill="#B7B7B7"/>
</svg>
