<svg width="24" height="25" viewBox="0 0 24 25" fill="none" xmlns="http://www.w3.org/2000/svg">
<path d="M17.6059 22.4999C14.3025 22.4999 10.4316 20.5863 7.17246 17.3273C3.85838 14.0141 1.92576 10.0413 2.00218 6.70237C2.02521 5.7361 2.40184 4.82409 3.06715 4.13586C3.92815 3.24524 4.85907 2.70248 5.83765 2.52074C6.32203 2.43028 6.79981 2.6408 7.05474 3.05362C7.80802 4.28304 8.53087 5.58413 9.2002 6.91464C9.44032 7.39243 9.34329 7.96727 8.95594 8.33979L7.33507 9.90639C7.20021 10.0371 7.17307 10.2411 7.26764 10.4015C8.06944 11.7386 9.08424 13.0223 10.2784 14.2181C11.4724 15.4121 12.7585 16.426 14.095 17.2288C14.2553 17.3258 14.4593 17.2979 14.59 17.1613L16.1566 15.5405C16.5291 15.1531 17.104 15.0561 17.5818 15.2962C18.9124 15.9656 20.2133 16.6877 21.4428 17.4417C21.8556 17.6941 22.0661 18.1719 21.9757 18.6588C21.7882 19.6711 21.2158 20.6333 20.2701 21.5173C19.6385 22.1086 18.8129 22.4523 17.9461 22.4877C17.8351 22.4975 17.7218 22.4999 17.6059 22.4999ZM6.05668 3.3504C6.0353 3.3504 6.01227 3.35286 5.99172 3.35697C5.19155 3.50418 4.41278 3.96552 3.68015 4.72539C3.16454 5.25993 2.87178 5.96715 2.8545 6.7188C2.78295 9.83057 4.62257 13.5716 7.77635 16.7229C10.9835 19.9334 14.7746 21.7739 17.9161 21.6431C18.5789 21.616 19.2105 21.3528 19.6932 20.8997C20.5016 20.144 20.9901 19.3372 21.1438 18.5084C21.1693 18.3718 21.1142 18.2386 21.0024 18.1712C19.7919 17.4302 18.5123 16.7189 17.2022 16.0617C17.0608 15.9902 16.8823 16.0214 16.7705 16.1374L15.2039 17.7583C14.7951 18.1793 14.1619 18.2632 13.6587 17.9622C12.2606 17.1226 10.9218 16.0675 9.67763 14.8233C8.43343 13.5791 7.37659 12.2401 6.5387 10.8423C6.23772 10.3414 6.32161 9.70576 6.74265 9.29704L8.36352 7.73044C8.47948 7.6186 8.51073 7.44015 8.43918 7.2987C7.78047 5.98702 7.07077 4.70903 6.32972 3.49852C6.27134 3.40559 6.16853 3.3504 6.05668 3.3504Z" fill="#BF2231" stroke="#BF2231" stroke-width="0.3"/>
</svg>
