<svg width="66" height="65" viewBox="0 0 66 65" fill="none" xmlns="http://www.w3.org/2000/svg">
<g id="Group 17865">
<path id="Vector" d="M0.788663 32.4793C0.157624 15.5701 15.2163 -0.515101 34.2175 0.0126373C51.3904 0.486525 65.7317 14.9185 65.7695 32.5332C65.8018 50.417 51.0452 65.0591 32.9824 64.9998C15.4374 64.9406 0.281675 50.1101 0.788663 32.4793Z" fill="#BF2231"/>
<g id="NHT0ep">
<g id="Group">
<path id="Vector_2" d="M37.5179 30.2646C37.9332 30.3938 38.3539 30.4638 38.7098 30.6469C39.4649 31.0454 39.8694 31.7078 39.891 32.564C39.9126 33.4579 39.9072 34.3465 39.8964 35.2404C39.8694 37.4806 38.2083 39.1446 35.9592 39.1823C34.929 39.1984 33.9042 39.1715 32.8741 39.1984C32.6853 39.1984 32.4965 39.3492 32.3078 39.4246C32.1082 39.5054 31.9086 39.64 31.7037 39.6454C30.4254 39.6669 29.1418 39.6615 27.8581 39.6508C27.3296 39.6508 27.103 39.4138 27.0977 38.8807C27.0977 35.9943 27.0977 33.1079 27.0977 30.2215C27.0977 29.6776 27.3134 29.4568 27.8473 29.4514C29.131 29.446 30.4092 29.4299 31.6929 29.4622C31.968 29.4676 32.2322 29.6507 32.6314 29.8014C33.4943 29.2575 34.3735 28.509 34.8643 27.3835C35.2256 26.5596 35.8621 26.1504 36.5902 26.2742C37.3669 26.4035 37.917 27.0281 38.0087 27.8951C38.1004 28.746 37.9008 29.543 37.5179 30.2592V30.2646ZM32.4642 37.8844C33.8341 37.8844 35.1447 37.9652 36.4446 37.8629C37.6581 37.766 38.5912 36.662 38.629 35.4612C38.6613 34.5242 38.6505 33.5872 38.629 32.6502C38.6182 32.0309 38.2029 31.627 37.5772 31.6108C37.1134 31.6001 36.6549 31.6108 36.1911 31.6108C35.8513 31.6108 35.5762 31.487 35.4576 31.1423C35.3443 30.8138 35.5439 30.6361 35.765 30.4315C36.4554 29.7799 36.8814 28.9937 36.7304 28.0082C36.7035 27.8359 36.5147 27.6905 36.396 27.5343C36.2666 27.6528 36.0778 27.7443 36.0131 27.8951C35.4683 29.1229 34.6054 30.103 33.4512 30.7331C32.5828 31.207 32.3833 31.7885 32.4264 32.7094C32.5019 34.4326 32.448 36.1558 32.448 37.8952L32.4642 37.8844ZM31.1859 38.3906V30.7384H28.3867V38.3906H31.1859Z" fill="#FFEED6"/>
<path id="Vector_3" d="M44.8555 52.4166C44.4583 52.4166 44.0548 52.3236 43.6885 52.1315L33.9489 47.1112C33.6695 46.9687 33.3405 46.9687 33.0612 47.1112L23.3216 52.1315C22.4587 52.5715 21.4407 52.4972 20.6585 51.927C19.8764 51.3568 19.4853 50.4147 19.6405 49.4602L21.4158 38.6635C21.4655 38.3537 21.3662 38.0376 21.1427 37.8206L13.3523 30.1291C12.6632 29.4473 12.4211 28.4557 12.7191 27.5384C13.017 26.6211 13.7992 25.9579 14.7552 25.8092L25.5873 24.1543C25.8977 24.1048 26.1646 23.9126 26.3074 23.6337L31.23 13.8597C31.6645 12.9982 32.5336 12.459 33.502 12.459C34.4703 12.459 35.3394 12.9982 35.7739 13.8597L40.6965 23.6337C40.8392 23.9126 41.1062 24.1048 41.4166 24.1543L52.2487 25.8092C53.2047 25.9579 53.9868 26.6149 54.2848 27.5384C54.5828 28.4619 54.3406 29.4535 53.6516 30.1291L45.8612 37.8206C45.6377 38.0376 45.5384 38.3537 45.588 38.6635L47.3634 49.4602C47.5186 50.4147 47.1337 51.3568 46.3454 51.927C45.8984 52.2493 45.377 52.4166 44.8493 52.4166H44.8555ZM33.5082 45.4254C33.9117 45.4254 34.3089 45.5184 34.6751 45.7105L44.4148 50.7308C44.7438 50.9043 45.1225 50.8733 45.4266 50.6564C45.7308 50.4395 45.8736 50.0862 45.8115 49.7205L44.0361 38.9239C43.8996 38.1119 44.1727 37.2814 44.7562 36.705L52.5467 29.0135C52.8136 28.7532 52.9005 28.3813 52.7888 28.028C52.6708 27.6747 52.3853 27.4268 52.0129 27.371L41.1807 25.7162C40.3675 25.5923 39.6598 25.0778 39.2936 24.3465L34.371 14.5725C34.2034 14.2378 33.8806 14.0394 33.5082 14.0394C33.1357 14.0394 32.8129 14.2378 32.6453 14.5725L27.7227 24.3465C27.3503 25.084 26.6488 25.5923 25.8356 25.7162L15.0035 27.371C14.6372 27.4268 14.3455 27.6747 14.2275 28.028C14.1096 28.3813 14.2027 28.7532 14.4696 29.0135L22.2601 36.705C22.8436 37.2814 23.1167 38.1119 22.9802 38.9239L21.2048 49.7205C21.1427 50.0862 21.2855 50.4395 21.5897 50.6564C21.8938 50.8795 22.2725 50.9043 22.6015 50.7308L32.3411 45.7105C32.7074 45.5246 33.1109 45.4254 33.5082 45.4254Z" fill="#FFEED6"/>
</g>
</g>
</g>
</svg>
