<svg width="19" height="16" viewBox="0 0 19 16" fill="none" xmlns="http://www.w3.org/2000/svg">
<path d="M1.1 0.985352C0.492492 0.985352 0 1.47604 0 2.08137C0 2.68669 0.492492 3.17738 1.1 3.17738H17.38C17.9875 3.17738 18.48 2.68669 18.48 2.08137C18.48 1.47604 17.9875 0.985352 17.38 0.985352H1.1ZM1.1 6.90383C0.492492 6.90383 0 7.39451 0 7.99984C0 8.60517 0.492492 9.09586 1.1 9.09586H17.38C17.9875 9.09586 18.48 8.60517 18.48 7.99984C18.48 7.39451 17.9875 6.90383 17.38 6.90383H1.1ZM1.1 12.8223C0.492492 12.8223 0 13.313 0 13.9183C0 14.5237 0.492492 15.0143 1.1 15.0143H17.38C17.9875 15.0143 18.48 14.5237 18.48 13.9183C18.48 13.313 17.9875 12.8223 17.38 12.8223H1.1Z" fill="#BF2231"/>
</svg>
