<svg width="170" height="118" viewBox="0 0 170 118" fill="none" xmlns="http://www.w3.org/2000/svg">
<g id="Group">
<path id="Vector" d="M6.07913 37.3441L4.64336 38.734L8.62986 42.8122L7.25516 44.1716L3.26866 40.0934L1.92454 41.3917L0.565131 40.0018L1.89406 38.6882L0 36.7484L1.3747 35.4043L3.28395 37.3441L4.70443 35.9389L6.07913 37.3441Z" fill="#BF2231"/>
<g id="Group_2">
<path id="Vector_2" d="M10.1257 31.0964C10.6603 30.6535 11.2255 30.4091 11.8517 30.3174C12.4627 30.2411 13.0889 30.3174 13.6846 30.5924C14.3108 30.8826 14.8607 31.3102 15.3189 31.8754L17.7475 34.8233L16.2353 36.0757L13.8068 33.1278C13.4861 32.746 13.1042 32.4711 12.6613 32.303C12.2183 32.1503 11.7906 32.242 11.3629 32.5933C11.0727 32.8376 10.8895 33.1431 10.8284 33.525C10.7673 33.9068 10.92 34.3192 11.3019 34.7774L13.9595 38.0155L12.4321 39.268L3.52734 28.4693L5.05475 27.2168L9.19404 32.242C9.37733 31.8143 9.68277 31.4324 10.1104 31.0964" fill="#BF2231"/>
<path id="Vector_3" d="M23.9812 33.8152C24.1493 34.0443 24.2103 34.3039 24.1645 34.5789C24.1187 34.8538 23.9813 35.0676 23.7522 35.2356C23.5231 35.4037 23.2634 35.4648 22.9885 35.4037C22.7136 35.3578 22.4844 35.2204 22.3164 34.9913C22.1484 34.7622 22.0872 34.5025 22.1483 34.2276C22.1942 33.9526 22.3469 33.7388 22.5761 33.5708C22.8052 33.4028 23.0648 33.3417 23.3245 33.3875C23.5994 33.4333 23.8132 33.5708 23.9812 33.7999M20.7126 32.7154L16.2985 26.4989L17.8869 25.3839L22.2858 31.6004L20.6974 32.7154H20.7126ZM16.497 23.2608C16.665 23.4899 16.7261 23.7496 16.6803 24.0092C16.6345 24.2842 16.497 24.498 16.2679 24.666C16.0388 24.834 15.7791 24.8951 15.5042 24.8493C15.2292 24.8035 15.0154 24.666 14.8474 24.4369C14.6794 24.2078 14.6183 23.9481 14.6794 23.6732C14.7252 23.3983 14.8626 23.1692 15.0917 23.0011C15.3209 22.8331 15.5805 22.7873 15.8554 22.8331C16.1304 22.879 16.3442 23.0317 16.5122 23.2608" fill="#BF2231"/>
</g>
<path id="Vector_4" d="M26.9451 21.8252L25.2497 22.8791L28.2434 27.721L26.5938 28.7443L23.6001 23.8872L22.0116 24.8647L20.9883 23.1999L22.5767 22.2223L21.141 19.9159L22.7906 18.8926L24.2264 21.2142L25.9218 20.1603L26.9451 21.8252Z" fill="#BF2231"/>
<g id="Group_3">
<path id="Vector_5" d="M40.1096 19.2935C40.5984 19.0796 40.9345 18.7283 41.1331 18.2243C41.3316 17.7203 41.3316 17.2315 41.1178 16.758C40.9039 16.2692 40.5526 15.9332 40.0486 15.7499C39.5445 15.5666 39.0557 15.5666 38.567 15.7804C38.0782 15.9943 37.7422 16.3456 37.5436 16.8344C37.3451 17.3231 37.3604 17.8119 37.5742 18.3007C37.788 18.7894 38.1393 19.1255 38.6281 19.324C39.1169 19.5226 39.6056 19.5073 40.0944 19.2935M40.2776 12.9548L42.0648 12.1758L47.655 24.9601L45.868 25.7391L42.9201 19.0033C42.7368 19.4615 42.4771 19.8739 42.1258 20.2252C41.7745 20.5765 41.3621 20.8667 40.8886 21.0805C40.2471 21.3555 39.5904 21.4624 38.903 21.3707C38.2157 21.2944 37.6047 21.05 37.0396 20.6376C36.4744 20.2252 36.0621 19.7059 35.7872 19.0644C35.5122 18.4229 35.4053 17.7661 35.497 17.0787C35.5733 16.3914 35.8177 15.7652 36.2301 15.2153C36.6425 14.6502 37.177 14.2378 37.8033 13.9628C38.2767 13.749 38.7655 13.6421 39.2696 13.6268C39.7736 13.6268 40.2471 13.7032 40.7054 13.8712L40.2929 12.9242L40.2776 12.9548Z" fill="#BF2231"/>
<path id="Vector_6" d="M52.6935 8.54102L53.9613 12.5123L55.0152 15.7962L53.4114 16.3155L53.3198 16.0253C52.9226 16.4835 52.4186 16.8043 51.8229 17.0028C51.1814 17.2014 50.5552 17.2319 49.9595 17.0792C49.3485 16.9265 48.8139 16.6057 48.3557 16.1322C47.8975 15.6587 47.5462 15.063 47.3171 14.3299L46.1562 10.7099L48.0196 10.1142L49.1805 13.7342C49.3027 14.1313 49.5318 14.5132 49.8678 14.8645C50.1886 15.231 50.6468 15.3074 51.2425 15.1241C51.5327 15.0325 51.8076 14.8339 52.052 14.5284C52.2964 14.223 52.3269 13.7495 52.1131 13.1079L50.8454 9.1367L52.7088 8.54102H52.6935Z" fill="#BF2231"/>
<path id="Vector_7" d="M61.7239 12.3284C62.2432 12.2215 62.6556 11.9313 62.9458 11.4883C63.236 11.0301 63.3276 10.5566 63.2207 10.0373C63.1138 9.51799 62.8236 9.12086 62.3807 8.83065C61.9224 8.54045 61.4489 8.46408 60.9296 8.571C60.4103 8.67792 60.0132 8.96812 59.723 9.41107C59.4328 9.85401 59.3412 10.3428 59.4634 10.8621C59.5703 11.3814 59.8605 11.7938 60.3034 12.084C60.7464 12.3742 61.2351 12.4659 61.7545 12.359M63.0069 6.41736L64.7023 6.05078L66.2755 13.3365L64.5801 13.7031L64.3968 12.8324C63.7859 13.5809 63.0375 14.0544 62.1363 14.2529C61.449 14.4057 60.7921 14.3598 60.1353 14.146C59.4785 13.9322 58.9134 13.5656 58.4552 13.0616C57.9817 12.5422 57.6763 11.9466 57.5235 11.2592C57.3708 10.5719 57.4166 9.89983 57.6305 9.25832C57.8443 8.60154 58.2108 8.0364 58.7149 7.57818C59.2342 7.10469 59.8299 6.79921 60.502 6.66174C61.4032 6.46318 62.2737 6.58537 63.1444 7.02832L63.0221 6.43263L63.0069 6.41736Z" fill="#BF2231"/>
</g>
<path id="Vector_8" d="M76.1402 4.24414L74.2157 12.0644L72.5508 18.7239L70.4583 18.953L72.0773 12.3088L68.4727 5.11476L70.5805 4.87038L72.841 9.31512L74.0018 4.48852L76.1402 4.24414Z" fill="#BF2231"/>
<path id="Vector_9" d="M90.2376 2.42857C90.2376 2.23001 90.2071 2.09254 90.1307 2.01617C90.0391 1.92453 89.9322 1.87871 89.81 1.86343C89.6267 1.86343 89.4892 1.90925 89.3976 2.00089C89.3212 2.07726 89.2754 2.23001 89.2601 2.45912C89.2601 2.55076 89.2601 2.67295 89.2907 2.82569C89.2907 2.94788 89.3976 3.22282 89.6267 3.65049C89.8406 3.45193 89.9933 3.26864 90.0696 3.1159C90.146 2.96316 90.2071 2.7646 90.2223 2.52021V2.39802L90.2376 2.42857ZM90.2987 8.1105C89.7488 7.36208 89.3364 6.78166 89.0615 6.33872C88.4353 6.73584 87.9618 7.22461 87.6257 7.8203C87.5036 8.04941 87.4425 8.24797 87.4273 8.43126C87.4273 8.69092 87.4883 8.9353 87.6563 9.16442C87.7938 9.36298 87.9618 9.53099 88.1757 9.65318C88.3895 9.79065 88.6186 9.85174 88.863 9.86702H89.0004C89.6572 9.79065 90.2529 9.45462 90.7875 8.82838L90.2835 8.1105H90.2987ZM94.3464 10.4322L92.8953 11.5777L92.8342 11.5166C92.8342 11.5166 92.6815 11.3333 92.5287 11.1348C92.376 10.9362 92.1774 10.6765 91.9483 10.3558C91.1388 11.15 90.2224 11.6083 89.199 11.7152C89.1074 11.7152 88.9699 11.7152 88.7866 11.7152C88.2978 11.6999 87.8397 11.5777 87.4273 11.3639C86.8927 11.1042 86.4496 10.7071 86.0983 10.1725C85.7318 9.60736 85.5638 8.9964 85.5791 8.35489C85.5944 7.89667 85.7318 7.42318 85.9915 6.93441C86.465 6.07906 87.1676 5.34591 88.084 4.73495C87.6869 4.00179 87.4578 3.4672 87.4273 3.10063C87.3967 2.74932 87.3967 2.52021 87.3967 2.39802C87.4272 1.78706 87.6105 1.26774 87.9618 0.809521C88.3742 0.305479 88.9547 0.030548 89.7184 0H89.8711C90.1002 0 90.3599 0.0458197 90.6654 0.152738C90.9556 0.259656 91.2305 0.442949 91.5054 0.717881C91.9484 1.19138 92.1469 1.77179 92.1163 2.48967C92.0858 3.16172 91.9636 3.69631 91.704 4.09344C91.4596 4.49056 91.093 4.88769 90.6195 5.30009C91.1083 6.03324 91.4901 6.5831 91.765 6.94968L91.8109 6.73585V6.65948L93.6437 7.1177V7.19406C93.491 7.78975 93.3077 8.29379 93.0786 8.75202C93.4299 9.25606 93.7506 9.66846 94.0256 10.0045L94.3006 10.3863L94.3616 10.4474L94.3464 10.4322Z" fill="#BF2231"/>
<path id="Vector_10" d="M108.628 10.9995L110.186 12.1909C109.728 12.7407 109.178 13.1378 108.521 13.3822C107.864 13.6266 107.177 13.6877 106.474 13.5502C105.787 13.4281 105.191 13.1379 104.657 12.6796C104.137 12.2214 103.756 11.6715 103.527 11.03C103.297 10.3733 103.236 9.7012 103.359 9.02914C103.481 8.34181 103.771 7.74612 104.229 7.21153C104.687 6.69222 105.237 6.31036 105.879 6.08125C106.535 5.85214 107.208 5.79104 107.88 5.91324C108.399 6.00488 108.872 6.20344 109.3 6.47837C109.728 6.76858 110.079 7.11989 110.354 7.53228C110.568 7.85304 110.721 8.14325 110.797 8.4029L108.979 9.07496C108.918 8.92222 108.857 8.80003 108.796 8.70839C108.506 8.23489 108.078 7.94468 107.513 7.83777C106.994 7.74612 106.52 7.83776 106.077 8.14324C105.634 8.44872 105.375 8.86112 105.283 9.38044C105.191 9.89976 105.283 10.3733 105.589 10.8162C105.894 11.2591 106.306 11.5188 106.826 11.6104C107.162 11.6715 107.498 11.641 107.819 11.5341C108.139 11.4119 108.414 11.2286 108.628 10.9842" fill="#BF2231"/>
<path id="Vector_11" d="M118.344 13.8998C118.803 13.6402 119.108 13.2583 119.246 12.7695C119.398 12.2655 119.337 11.7767 119.093 11.3185C118.833 10.8603 118.467 10.5548 117.947 10.4173C117.443 10.2799 116.97 10.3257 116.512 10.5701C116.053 10.8145 115.748 11.1963 115.595 11.7156C115.458 12.2197 115.503 12.6932 115.763 13.1514C116.023 13.6096 116.389 13.9151 116.893 14.0678C117.397 14.2206 117.886 14.1595 118.344 13.8998ZM122.881 9.94385L122.85 10.0355C122.759 10.3562 122.591 10.6465 122.361 10.8908C122.041 11.2421 121.644 11.456 121.17 11.5323C121.292 12.128 121.277 12.7237 121.109 13.3041C120.91 13.9762 120.574 14.5413 120.086 15.0148C119.597 15.4883 119.016 15.8091 118.36 15.9771C117.703 16.1451 117.031 16.1298 116.359 15.9313C115.687 15.7327 115.122 15.3967 114.648 14.9079C114.175 14.4191 113.854 13.8387 113.686 13.1819C113.518 12.5252 113.533 11.8531 113.732 11.181C113.93 10.509 114.266 9.94385 114.755 9.47035C115.244 8.99686 115.824 8.6761 116.481 8.50809C117.138 8.34007 117.81 8.35535 118.482 8.55391C119.368 8.81357 120.07 9.33288 120.62 10.1119C120.91 10.1577 121.155 10.0966 121.323 9.9133C121.399 9.82165 121.46 9.73001 121.491 9.63836L121.521 9.54672L122.896 9.94385H122.881Z" fill="#BF2231"/>
<path id="Vector_12" d="M135.908 15.3818C136.274 15.8859 136.473 16.4816 136.519 17.1384C136.565 17.7951 136.427 18.4825 136.137 19.1851L134.655 22.6828L132.853 21.9191L134.335 18.4214C134.503 18.0395 134.564 17.6119 134.564 17.1231C134.564 16.6343 134.258 16.2677 133.693 16.0234C133.403 15.9012 133.067 15.8706 132.685 15.947C132.303 16.0081 131.982 16.3594 131.707 16.9856L130.088 20.8194L128.286 20.0557L128.317 20.0099H128.301L129.783 16.4969C129.951 16.115 130.012 15.6873 130.012 15.1986C130.012 14.7098 129.707 14.3432 129.141 14.0988C128.851 13.9766 128.515 13.9461 128.133 14.0225C127.751 14.0836 127.415 14.4349 127.156 15.0458L125.537 18.8796L123.734 18.1159L126.698 11.0898L128.256 11.7466L128.133 12.0368C128.744 11.9605 129.34 12.0368 129.905 12.2812C130.822 12.6631 131.448 13.3199 131.784 14.2057C132.211 14.0225 132.654 13.9308 133.128 13.9308C133.601 13.9308 134.044 14.0225 134.472 14.2057C135.098 14.4654 135.587 14.8473 135.938 15.3666" fill="#BF2231"/>
<path id="Vector_13" d="M150.22 23.3822C150.494 23.9474 150.601 24.5583 150.54 25.2151C150.479 25.8719 150.235 26.5287 149.838 27.1702L147.822 30.393L146.157 29.3544L148.173 26.1316C148.387 25.7802 148.539 25.3679 148.601 24.8791C148.662 24.3903 148.432 23.9932 147.913 23.6572C147.654 23.4891 147.317 23.4128 146.936 23.4128C146.538 23.4128 146.172 23.703 145.805 24.2681L143.591 27.7964L141.926 26.7578L145.973 20.2969L147.409 21.198L147.241 21.4577C147.837 21.4577 148.417 21.641 148.952 21.977C149.517 22.3283 149.945 22.7865 150.22 23.3517" fill="#BF2231"/>
<path id="Vector_14" d="M158.147 28.4092C158.697 28.8216 159.078 29.3257 159.292 29.9061C159.506 30.4865 159.567 31.1127 159.43 31.7542C159.292 32.4263 158.987 33.0525 158.544 33.6482L156.222 36.6877L154.664 35.4964L156.986 32.4568C157.291 32.0597 157.475 31.632 157.52 31.1585C157.582 30.7003 157.383 30.2879 156.94 29.9519C156.65 29.7228 156.299 29.6159 155.917 29.6464C155.535 29.6617 155.153 29.9213 154.802 30.3948L152.251 33.7246L150.678 32.5179L159.185 21.3984L160.759 22.6051L156.803 27.783C157.261 27.8746 157.704 28.0732 158.131 28.4092" fill="#BF2231"/>
<path id="Vector_15" d="M168.686 36.3992L167.403 32.8251L168.717 32.3516L170 35.9257L168.686 36.3992ZM164.196 40.4926C164.715 40.4926 165.158 40.2788 165.509 39.8969C165.876 39.5151 166.044 39.0569 166.029 38.5375C166.013 38.0182 165.8 37.5753 165.418 37.2087C165.036 36.8574 164.593 36.6894 164.058 36.7199C163.539 36.7505 163.096 36.949 162.745 37.3156C162.393 37.6975 162.225 38.1404 162.241 38.6597C162.256 39.179 162.455 39.622 162.836 39.9733C163.218 40.3246 163.661 40.4926 164.196 40.4773M169.526 38.8583L164.578 44.1737L163.356 43.0434L163.951 42.4019C163.508 42.3866 163.081 42.2797 162.653 42.1117C162.225 41.9437 161.859 41.6993 161.523 41.3938C161.019 40.9203 160.667 40.3704 160.484 39.7289C160.286 39.0874 160.27 38.4306 160.423 37.7738C160.576 37.1171 160.881 36.5366 161.355 36.0326C161.828 35.5286 162.378 35.1773 163.02 34.9787C163.661 34.7801 164.318 34.7496 164.975 34.9023C165.631 35.0551 166.212 35.3605 166.716 35.8188C167.052 36.1242 167.312 36.4908 167.51 36.9032C167.709 37.3156 167.846 37.728 167.892 38.171L168.32 37.7127L169.542 38.843L169.526 38.8583Z" fill="#BF2231"/>
<path id="Vector_16" d="M82.9243 97.9077C46.4652 103.849 52.6207 78.9832 41.4706 69.7576L85.0322 39.5762C85.0322 39.5762 72.0797 39.5762 67.1157 39.5762C63.1292 45.8538 44.9989 57.5079 38.7977 61.9526L50.5281 39.5762H37.2397C33.3601 48.8017 16.8336 77.9445 9.76172 90.8358H25.998C27.9378 85.0011 34.2613 73.5151 34.2613 73.5151C37.9118 75.8062 40.2028 82.7864 43.334 92.073C47.0761 103.147 55.4311 117.657 73.1948 117.733C73.2712 117.733 73.3322 117.688 73.3628 117.626L83.1229 98.1673C83.184 98.0299 83.0618 97.8924 82.9243 97.9077Z" fill="#BF2231"/>
<path id="Vector_17" d="M123.079 75.1185C126.44 72.8427 129.327 71.7582 131.847 71.7582C132.931 71.7582 133.649 72.0026 133.894 72.4761H133.298C131.984 72.4761 130.9 73.194 130.9 74.6297C130.9 75.7142 131.373 76.5542 132.336 77.1499C129.571 80.388 125.004 83.0304 121.17 83.0304C119.123 83.0304 118.176 82.3125 118.176 80.9837C118.176 79.3036 119.857 77.379 123.095 75.1032M71.6213 81.4878C66.9016 81.4878 69.6968 74.3853 75.1954 67.4357H64.5036C64.137 68.0313 63.0679 69.5893 61.2655 71.8804C59.4632 74.1562 58.0274 76.3251 56.9429 78.3566C55.7363 80.4033 55.1406 82.4347 55.1406 84.3593C55.1406 88.3152 57.8747 91.0798 62.1972 91.0798C65.8172 91.0798 72.5377 89.3539 77.181 85.9019L74.6914 90.8507H104.399C105.27 89.1095 106.064 87.4752 106.813 85.8714C108.019 89.1095 111.166 91.0951 115.855 91.0951C119.582 91.0951 123.538 90.0107 127.494 87.7348C131.45 85.459 134.703 82.6944 137.101 79.5632C143.516 81.1823 146.372 75.4698 146.281 73.9577L146.22 73.9118C144.417 75.7142 141.301 76.432 139.377 75.592C139.85 74.5075 140.095 73.4383 140.095 72.3539C140.095 68.1535 136.139 65.9846 130.732 65.9846C124.011 65.9846 115.488 69.2227 110.57 73.9118C108.569 75.7447 107.271 77.7151 106.66 79.7771C104.522 80.4949 95.3113 81.6558 91.9357 81.4725C93.1729 79.2577 110.784 45.7007 115.091 39.5605H99.7408C99.7408 39.5605 97.8468 47.8238 83.8864 72.0942C80.3733 78.2038 75.6841 81.4725 71.5907 81.4725" fill="#BF2231"/>
<path id="Vector_18" d="M135.342 58.1779H135.494C135.357 61.2175 137.006 63.7224 137.006 63.7224H146.782C146.782 63.7224 140.199 59.9192 137.449 52.2363H136.273C131.141 59.2929 117.395 63.7224 117.395 63.7224H129.843C129.843 63.7224 132.974 61.6451 135.342 58.1779Z" fill="#BF2231"/>
<path id="Vector_19" d="M78.9191 53.246C77.132 57.4005 71.2057 61.9216 66.8984 63.724C75.513 63.724 83.4096 60.1193 87.3503 53.246C84.6468 53.2155 81.1491 53.246 78.9191 53.246Z" fill="#BF2231"/>
<path id="Vector_20" d="M100.212 104.416C100.044 106.02 99.4024 107.7 98.3332 109.472C97.264 111.213 95.9352 112.695 94.3773 113.871C92.8499 115.047 91.3377 115.612 89.8561 115.612H87.5192L95.309 100.307H97.3862C99.4635 100.307 100.487 101.758 100.197 104.416M104.534 104.813C104.962 100.811 102.488 97.9551 98.7609 97.9551H89.7645C89.627 97.9551 89.5049 98.0467 89.4285 98.1842L88.5579 99.956C88.4509 100.155 88.5273 100.292 88.7259 100.292H91.0933L83.3036 115.597H80.7833C80.6459 115.597 80.5237 115.688 80.4474 115.826L79.5461 117.597C79.4392 117.796 79.5462 117.934 79.7447 117.934H89.5659C91.8265 117.934 94.0565 117.277 96.2865 115.963C98.5318 114.65 100.426 112.969 101.938 110.938C103.465 108.876 104.351 106.829 104.565 104.798" fill="#BF2231"/>
<path id="Vector_21" d="M123.491 103.744C123.919 103.744 124.362 103.515 124.545 103.087L126.943 98.2911C127.05 98.0925 126.973 97.9551 126.775 97.9551H111.791C111.654 97.9551 111.531 98.0467 111.455 98.1842L110.6 99.9407C110.493 100.139 110.569 100.277 110.768 100.277H113.135L105.422 115.413H102.917C102.779 115.413 102.657 115.505 102.581 115.642L101.695 117.399C101.588 117.597 101.695 117.735 101.878 117.735H117.656C117.794 117.735 117.916 117.643 117.992 117.506L120.604 112.389C120.635 112.297 120.681 112.19 120.696 112.053C120.742 111.686 120.482 111.381 120.07 111.381C119.764 111.381 119.428 111.518 119.092 111.809L117.167 113.412C116.266 114.176 115.533 114.68 114.907 115.001C114.311 115.276 113.563 115.429 112.631 115.429H109.607L113.105 108.571H114.143C115.136 108.571 115.411 108.83 115.472 109.64L115.518 110.495C115.548 110.953 115.869 111.228 116.282 111.228C116.618 111.228 117.015 110.999 117.198 110.633L120.222 104.706C120.268 104.599 120.299 104.508 120.314 104.431C120.36 104.065 120.039 103.759 119.627 103.759C119.321 103.759 118.985 103.897 118.68 104.156L117.656 105.088C116.572 105.989 116.114 106.295 115.319 106.295H114.281L117.32 100.307H119.84C121.872 100.307 122.376 100.567 122.574 102.003L122.712 103.072C122.773 103.53 123.094 103.774 123.506 103.774" fill="#BF2231"/>
<path id="Vector_22" d="M132.654 97.9551C132.517 97.9551 132.395 98.0467 132.318 98.1842L131.463 99.9407C131.356 100.139 131.432 100.277 131.631 100.277H133.998L126.285 115.413H123.78C123.643 115.413 123.52 115.505 123.444 115.642L122.558 117.399C122.451 117.597 122.558 117.735 122.741 117.735H137.099C137.236 117.735 137.359 117.643 137.435 117.506L140.032 112.42C140.062 112.328 140.108 112.221 140.123 112.084C140.169 111.656 139.894 111.381 139.436 111.381C139.13 111.381 138.794 111.518 138.489 111.778L136.534 113.367C135.572 114.13 134.808 114.665 134.212 114.97C133.647 115.276 132.929 115.429 132.074 115.429H130.44L138.153 100.292H140.688C140.826 100.292 140.948 100.2 141.024 100.063L141.895 98.3064C142.002 98.1078 141.926 97.9704 141.727 97.9704H132.654V97.9551Z" fill="#BF2231"/>
<path id="Vector_23" d="M160.912 97.9551H151.87C151.733 97.9551 151.61 98.0467 151.534 98.1842L150.648 99.9407C150.541 100.139 150.648 100.277 150.831 100.277H153.138L145.424 115.413H142.95C142.813 115.413 142.69 115.505 142.614 115.642L141.728 117.399C141.621 117.597 141.728 117.735 141.911 117.735H150.954C151.091 117.735 151.213 117.643 151.29 117.506L152.175 115.749C152.282 115.551 152.175 115.413 151.992 115.413H149.609L157.323 100.277H159.874C160.011 100.277 160.133 100.185 160.21 100.048L161.096 98.2911C161.202 98.0925 161.096 97.9551 160.912 97.9551Z" fill="#BF2231"/>
</g>
</svg>
