<svg width="20" height="21" viewBox="0 0 20 21" fill="none" xmlns="http://www.w3.org/2000/svg">
<path id="Union" fill-rule="evenodd" clip-rule="evenodd" d="M15.6529 14.7387C18.2892 11.4025 18.0672 6.54639 14.987 3.46615C11.6675 0.146698 6.28561 0.146698 2.96615 3.46615C-0.353302 6.78561 -0.353302 12.1675 2.96615 15.487C6.04639 18.5672 10.9025 18.7892 14.2387 16.1529L17.8154 19.7296C18.2059 20.1201 18.8391 20.1201 19.2296 19.7296C19.6201 19.3391 19.6201 18.7059 19.2296 18.3154L15.6529 14.7387ZM13.5728 4.88037C16.1112 7.41878 16.1112 11.5343 13.5728 14.0728C11.0343 16.6112 6.91878 16.6112 4.38037 14.0728C1.84196 11.5343 1.84196 7.41878 4.38037 4.88037C6.91878 2.34196 11.0343 2.34196 13.5728 4.88037Z" fill="#B7B7B7"/>
</svg>
