<svg width="25" height="24" viewBox="0 0 25 24" fill="none" xmlns="http://www.w3.org/2000/svg">
<g id="Social/Instagram">
<path id="Vector" d="M24.9342 11.9678C24.9342 18.608 19.5993 23.9858 12.9875 24C6.34014 24.0142 0.941406 18.6437 0.941406 12.0177C0.941406 5.38456 6.34723 -0.0212201 12.9591 6.26285e-05C19.5709 0.0213454 24.9271 5.37015 24.9342 11.9678ZM12.8952 19.6582C14.0587 19.6582 15.215 19.6653 16.3785 19.6582C18.7976 19.6369 20.5925 17.8776 20.6138 15.4585C20.6351 13.1245 20.6422 10.7831 20.6138 8.44908C20.5925 6.15764 18.748 4.34858 16.4495 4.34148C14.1013 4.34148 11.753 4.33439 9.40484 4.34148C7.09921 4.34858 5.2689 6.20044 5.2689 8.51316C5.2689 10.7833 5.2689 13.0536 5.2689 15.3237C5.2689 17.8706 7.04246 19.6511 9.60348 19.6582C10.696 19.6582 11.7956 19.6582 12.8881 19.6582H12.8952Z" fill="white"/>
<path id="Vector_2" d="M12.8966 19.6583C11.804 19.6583 10.7044 19.6583 9.61192 19.6583C7.0509 19.6583 5.27734 17.8777 5.27734 15.3238C5.27734 13.0536 5.27734 10.7834 5.27734 8.51322C5.27734 6.20049 7.10056 4.34863 9.41328 4.34153C11.7615 4.33444 14.1097 4.34153 16.4579 4.34153C18.7564 4.34153 20.6009 6.15059 20.6222 8.44913C20.6435 10.7831 20.6435 13.1245 20.6222 15.4585C20.6009 17.8706 18.8061 19.637 16.3869 19.6583C15.2235 19.6654 14.0671 19.6583 12.9037 19.6583H12.8966ZM19.2672 11.9963C19.2672 10.8896 19.2672 9.78289 19.2672 8.66909C19.2672 6.89553 18.0612 5.68954 16.2876 5.68244C14.06 5.68244 11.8253 5.68244 9.59774 5.68244C7.84546 5.68244 6.62524 6.88858 6.61815 8.63376C6.61105 10.8755 6.61105 13.1173 6.61815 15.3591C6.61815 17.0901 7.83835 18.2962 9.56226 18.2962C11.8324 18.3033 14.1026 18.3033 16.3727 18.2962C18.047 18.2962 19.2672 17.0617 19.2672 15.3875C19.2672 14.2524 19.2672 13.1171 19.2672 11.9821V11.9963Z" fill="#BF2231"/>
<path id="Vector_3" d="M19.2676 11.9959C19.2676 13.131 19.2676 14.2663 19.2676 15.4014C19.2676 17.0756 18.0474 18.303 16.3732 18.3101C14.103 18.3172 11.8329 18.3172 9.56271 18.3101C7.83171 18.3101 6.6257 17.0968 6.6186 15.3729C6.61151 13.1312 6.61151 10.8894 6.6186 8.64761C6.6186 6.90242 7.84592 5.70338 9.5982 5.69629C11.8258 5.69629 14.0605 5.69629 16.2881 5.69629C18.0616 5.69629 19.2676 6.90228 19.2676 8.68294C19.2676 9.78964 19.2676 10.8963 19.2676 12.0101V11.9959ZM12.968 16.1745C15.2878 16.1674 17.189 14.2522 17.1607 11.9536C17.1323 9.67639 15.2026 7.80327 12.9183 7.81036C10.6481 7.82455 8.78235 9.71173 8.78944 12.0032C8.78944 14.3159 10.6623 16.1816 12.975 16.1745H12.968ZM17.0755 7.01572C16.5718 7.00863 16.1604 7.40591 16.1604 7.9025C16.1604 8.38491 16.5505 8.78219 17.033 8.78929C17.5296 8.79638 17.9552 8.38491 17.9552 7.9025C17.9552 7.43428 17.5437 7.02282 17.0755 7.01572Z" fill="white"/>
<path id="Vector_4" d="M12.9669 16.1748C10.6541 16.1819 8.78834 14.3233 8.78125 12.0034C8.78125 9.71909 10.6399 7.82482 12.9101 7.81063C15.2016 7.79644 17.1241 9.67665 17.1525 11.9539C17.1809 14.2453 15.2796 16.1606 12.9598 16.1748H12.9669ZM10.2072 12.0034C10.2072 13.5429 11.4487 14.7703 12.974 14.7632C14.4779 14.7561 15.6911 13.5145 15.684 11.9892C15.684 10.4853 14.4212 9.2579 12.9172 9.27208C11.4274 9.28627 10.2001 10.5207 10.2001 12.0034H10.2072Z" fill="#BF2231"/>
<path id="Vector_5" d="M17.0753 7.01621C17.5435 7.0233 17.955 7.44186 17.955 7.90299C17.955 8.3854 17.5293 8.79686 17.0327 8.78977C16.5503 8.78268 16.1602 8.3854 16.1602 7.90299C16.1602 7.40639 16.5716 7.00911 17.0753 7.01621Z" fill="#BF2231"/>
<path id="Vector_6" d="M10.207 12.0035C10.207 10.5278 11.4343 9.28628 12.9241 9.27209C14.4352 9.25791 15.6838 10.4853 15.6909 11.9892C15.6909 13.5074 14.4849 14.749 12.9809 14.7632C11.4556 14.7774 10.2212 13.5429 10.2141 12.0035H10.207Z" fill="white"/>
</g>
</svg>
