<svg width="25" height="24" viewBox="0 0 25 24" fill="none" xmlns="http://www.w3.org/2000/svg">
<g id="Social/Tiktok">
<path id="Vector" d="M24.9407 12.0177C24.9407 18.6437 19.5704 24 12.9372 24C6.31827 24 0.962081 18.6366 0.933704 12.0035C0.905327 5.40581 6.34663 -0.0141607 12.9727 2.77941e-05C19.5916 0.0142163 24.9407 5.38454 24.9336 12.0177H24.9407ZM13.7318 4.64664C13.7318 4.83109 13.7318 4.9873 13.7318 5.14337C13.7318 7.81082 13.7318 10.4783 13.7318 13.1386C13.7318 13.8481 13.7531 14.5644 13.7318 15.2738C13.6892 16.4444 12.7528 17.3738 11.6035 17.4163C10.3975 17.466 9.39718 16.629 9.26239 15.4585C9.1276 14.3021 9.88667 13.238 11.043 13.0181C11.3907 12.9542 11.7667 13.0108 12.1497 13.0108V10.3577C11.944 10.3294 11.7525 10.2938 11.5609 10.2867C9.23401 10.2158 7.1412 11.897 6.66589 14.2097C6.19057 16.5082 7.44626 18.8424 9.61711 19.7008C12.9018 20.9991 16.3779 18.6793 16.4205 15.1464C16.4418 13.5076 16.4205 11.8756 16.4205 10.2368C16.4205 10.102 16.4347 9.96749 16.4418 9.76885C17.5343 10.6273 18.6978 11.0456 20.0457 10.9321V8.32159C17.8677 8.20099 16.9384 7.2715 16.3637 4.63243H13.7389L13.7318 4.64664Z" fill="white"/>
<path id="Vector_2" d="M13.7317 4.64648H16.3566C16.9312 7.28555 17.8606 8.21504 20.0385 8.33564V10.9461C18.6906 11.0596 17.5271 10.6484 16.4346 9.7829C16.4275 9.97445 16.4133 10.109 16.4133 10.2509C16.4133 11.8897 16.4275 13.5213 16.4133 15.1601C16.3708 18.693 12.8946 21.0202 9.60992 19.7149C7.43908 18.8565 6.18339 16.5223 6.6587 14.2238C7.13402 11.911 9.22682 10.2298 11.5537 10.3008C11.7453 10.3008 11.9368 10.3431 12.1426 10.3714V13.0249C11.7595 13.0249 11.3835 12.9679 11.0359 13.0318C9.87951 13.2517 9.12042 14.3162 9.25521 15.4725C9.39 16.6431 10.3903 17.48 11.5963 17.4304C12.7456 17.3878 13.682 16.4584 13.7246 15.2879C13.753 14.5785 13.7246 13.8621 13.7246 13.1527C13.7246 10.4852 13.7246 7.81778 13.7246 5.15742C13.7246 5.00135 13.7246 4.84514 13.7246 4.66069L13.7317 4.64648Z" fill="#BF2231"/>
</g>
</svg>
